<?xml version="1.0" standalone="no"?>
<!DOCTYPE svg PUBLIC "-//W3C//DTD SVG 1.1//EN" "http://www.w3.org/Graphics/SVG/1.1/DTD/svg11.dtd" >
<svg xmlns="http://www.w3.org/2000/svg">
<metadata></metadata>
<defs>
<font id="berry_rotundaregular" horiz-adv-x="1351" >
<font-face units-per-em="2048" ascent="1575" descent="-473" />
<missing-glyph horiz-adv-x="1024" />
<glyph horiz-adv-x="0" />
<glyph unicode="&#xd;" horiz-adv-x="1024" />
<glyph horiz-adv-x="0" />
<glyph horiz-adv-x="0" />
<glyph unicode=" "  horiz-adv-x="1024" />
<glyph unicode="&#x09;" horiz-adv-x="1024" />
<glyph unicode="&#xa0;" horiz-adv-x="1024" />
<glyph unicode="!" horiz-adv-x="763" d="M346 1894q0 16 15.5 25.5t58.5 24.5q29 8 57.5 22t42.5 21l152 57q18 8 29.5 14t17.5 6q25 0 24 -24q0 -16 -18 -35q-29 -29 -38 -42t-17 -36q-6 -20 -9.5 -38.5t-3.5 -43v-59.5t-2 -88l-14 -469v-344q0 -25 -3 -48.5t-4 -45t4 -42t21 -34.5q12 -12 13 -25 q0 -10 -11.5 -23.5t-42.5 -35.5q-27 -20 -43 -24.5t-31.5 -7.5t-30.5 -10t-38 -32t-30 -40t-21 -15q-12 0 -20.5 10t-8.5 23q0 12 11 43q6 23 7 33t-1 22t-5.5 34.5t-3.5 69.5l-2 518l-14 474q0 33 -1 52t-4 33.5t-9 25.5t-17 28q-10 14 -10 26zM393 129q-10 49 53 156 q31 53 50.5 67.5t50.5 22.5q16 4 46 7t52 -26q41 -57 60 -137q18 -84 -14 -137t-97 -68q-33 -8 -65.5 -2t-60.5 21.5t-48.5 40t-26.5 55.5z" />
<glyph unicode="&#x22;" horiz-adv-x="835" d="M20 1212v37q14 31 44 124t75 253q57 203 140 203q59 0 98 -45q41 -47 41 -86q0 -63 -152 -258q-59 -76 -107 -132.5t-87 -95.5h-52zM348 1206v37q14 31 44 124t75 253q57 203 139 203q59 0 99 -45q40 -47 40 -86q0 -63 -151 -258q-59 -76 -107.5 -132.5t-87.5 -95.5h-51z " />
<glyph unicode="#" horiz-adv-x="1155" d="M53 530l31 140h223l53 280h-219l29 144h209l55 274l137 29l-61 -303h209l53 274l146 29l-62 -303h248l-27 -144h-246l-47 -280h250l-14 -140h-252l-55 -319l-156 -18l64 337h-191l-59 -319l-156 -18l66 337h-228zM449 670h196l47 280h-192z" />
<glyph unicode="$" horiz-adv-x="1196" d="M12 1098q-6 117 68 198q109 127 436 256l-14 273l147 100l-47 -366q86 -53 192.5 -83t231.5 -40q-49 -74 -75.5 -146.5t-20.5 -169.5l-273 80q-98 29 -176 84t-139 119q-76 -47 -70 -119q4 -61 134 -156l235 -172l336 -174q195 -103 203 -293q8 -121 -29 -178 q-37 -51 -211 -149l-264 -146l2 -67q2 -18 2 -39v-43q0 -92 -2 -96l-103 -86l-86 -78l89 420q-72 33 -125.5 53t-92.5 31q-51 12 -105 18t-110 0l-79 -8q53 84 77.5 157.5t20.5 161.5q111 -4 206 -22.5t187 -52.5l287 -144q25 2 39 38t12 79q-2 61 -227 199 q-186 111 -289 172t-129 82q-227 164 -238 307z" />
<glyph unicode="%" horiz-adv-x="1378" d="M0 1165q0 55 13.5 106.5t45.5 108.5q59 23 105.5 50.5t97.5 80.5l107 -71q16 -8 33.5 -16.5t33.5 -14.5q23 -12 58 -51q31 -37 41 -45q16 -66 16 -150q0 -66 -17.5 -134t-50.5 -138l-45 2q-27 2 -70.5 -24.5t-84.5 -63.5q-41 35 -82 60.5t-97 56.5q-43 43 -73.5 108.5 t-30.5 134.5zM49 1245q0 -82 72 -153q80 -80 201 -80q72 0 157 -74q10 26 10 94q0 104 -98 197q-86 86 -153 84l-45 -2q-68 -2 -125 22q-18 -29 -19 -88zM250 23l694 1478l113 43l-674 -1481zM803 424q0 55 14 106.5t45 108.5q59 23 105.5 50.5t97.5 80.5q45 -29 94 -59.5 t82 -42.5q10 -6 20.5 -15.5t22.5 -25.5q16 -23 29.5 -36t21.5 -22q8 -41 13.5 -73.5t5.5 -75.5q0 -66 -16.5 -134.5t-51.5 -138.5l-45 5q-59 2 -156 -84q-31 25 -63 43q-12 10 -119 65q-45 43 -72.5 106.5t-27.5 141.5zM848 502q0 -82 74 -152q84 -82 204 -82q66 0 148 -69 q4 12 5 18t3 12q10 42 10 62q0 106 -96 196q-43 41 -82 63.5t-72 18.5l-47 -2q-35 -2 -65.5 5.5t-59.5 19.5q-10 -16 -16 -35.5t-6 -54.5z" />
<glyph unicode="&#x26;" horiz-adv-x="1404" d="M41 401q-16 92 7.5 151.5t88.5 113.5l189 151q0 27 -2 31q-2 16 -13.5 41.5t-29.5 62.5q-16 35 -25.5 59.5t-13.5 37.5q-35 195 153 360q162 135 248 133q78 -4 166 -102q43 -47 67.5 -92t32.5 -86q23 -119 -63 -199q-53 -47 -107.5 -88t-107.5 -84q51 -70 93 -126 t77 -101q51 -66 86 -105t57 -55q43 25 29 123q-4 25 -14.5 55.5t-24.5 60t-31.5 55t-36.5 42.5h-51v22l229 166q20 0 40 -16.5t37.5 -41t28.5 -56t17 -64.5q18 -104 -10.5 -204.5t-118.5 -223.5q10 -66 76 -129q63 -66 117 -66q10 0 25.5 5.5t37.5 17.5l60 35l16 -13 q-4 -10 -33.5 -49t-91.5 -104l-119 -127l-32 -10q-72 45 -132.5 93t-111.5 101l-49 -10q-49 -57 -87 -91t-63 -52q-53 -31 -135 -29q-164 4 -303 125q-143 123 -172 282zM322 543q20 -125 118 -236q98 -109 215 -110q23 0 46.5 5t48.5 21q4 2 8 6t10 9l-4 30l-381 465 l-27 -2q-57 -68 -34 -188zM434 1247q12 -74 70 -184q55 -106 90 -109q25 0 42 15.5t27.5 38t13.5 51t-1 57.5q-14 86 -70 166q-55 78 -119 80q-76 2 -53 -115z" />
<glyph unicode="'" horiz-adv-x="466" d="M20 1202v37q14 31 44 124t75 253q57 203 140 203q59 0 98 -45q41 -47 41 -86q0 -63 -152 -258q-59 -76 -107 -132.5t-87 -95.5h-52z" />
<glyph unicode="(" horiz-adv-x="448" d="M-16 696q0 168 22.5 357.5t66.5 389t110.5 403.5t154.5 401q72 0 108 -37q-8 -37 -14 -66.5t-12 -57.5t-14.5 -56.5t-20.5 -63.5q-131 -147 -203 -455q-35 -147 -52 -311t-17 -348q0 -178 18.5 -331.5t58 -291t102 -260.5t148.5 -239q2 -10 4 -17.5t2 -11.5 q2 -20 3.5 -34.5t1.5 -24.5q0 -47 -14.5 -85t-49.5 -38q-135 0 -262 342q-141 375 -141 835z" />
<glyph unicode=")" horiz-adv-x="448" d="M-12 2169q0 47 14 85t47 38q137 0 264 -344q72 -188 106 -394t34 -440q0 -170 -22.5 -359.5t-67 -389t-111 -403.5t-152.5 -400q-72 0 -108 39q8 37 14 66.5t12.5 56t14.5 55t20 63.5q131 147 203 455q68 297 68 659q0 178 -18.5 332t-57.5 291t-101.5 260t-148.5 240 q-2 10 -4 18t-2 10q-2 20 -3 35t-1 27z" />
<glyph unicode="*" horiz-adv-x="821" d="M37 1350q20 10 47 23t53 13q41 0 63.5 -15t41.5 -38q18 -23 37.5 -49.5t54.5 -48.5q10 -12 24.5 -21.5t30.5 -17.5q0 20 -2 47t-8 49q-6 18 -16.5 39t-20.5 41.5t-18.5 41t-8.5 40.5q0 16 11.5 31.5t28 30t34 26t29.5 19.5q12 -8 29.5 -19.5t33 -26t26.5 -30t11 -31.5 q0 -20 -8 -40.5t-18.5 -41t-20.5 -41t-16 -39.5q-6 -23 -8.5 -49t-2.5 -47q16 8 30.5 17.5t27.5 21.5q35 23 54 49.5t36 48.5q18 23 41.5 38t64.5 15q25 0 52.5 -13t44.5 -23q0 -31 -2 -60.5t-15 -48.5q-12 -23 -35.5 -36t-58.5 -13q-31 0 -56.5 1t-49.5 1 q-29 -10 -55.5 -21.5t-47.5 -21.5q94 -53 195 -53q37 0 61.5 -16.5t38.5 -39.5q10 -29 12 -58.5t6 -57.5q-27 -4 -52 -14.5t-52 -10.5q-31 0 -59.5 18.5t-57.5 61.5q-16 29 -44.5 58.5t-78.5 58.5q0 -20 2.5 -46t8.5 -48q12 -41 37.5 -83t25.5 -79q0 -16 -11 -31.5 t-26.5 -30t-33 -27t-29.5 -20.5q-12 8 -29.5 20.5t-34 27t-28 29.5t-11.5 32q0 18 8.5 37.5t18.5 40t20.5 42t16.5 42.5q6 23 8 48t2 46q-49 -29 -76.5 -58.5t-44.5 -58.5q-31 -43 -58.5 -61.5t-57.5 -18.5q-27 0 -53.5 10.5t-53.5 14.5q6 29 8 58.5t13 57.5 q14 23 38.5 39.5t59.5 16.5q104 0 194 53q-18 10 -44.5 21.5t-55.5 21.5q-25 0 -50.5 -1t-55.5 -1q-37 0 -59.5 13.5t-37.5 35.5q-10 18 -12 48t-6 61z" />
<glyph unicode="+" horiz-adv-x="1040" d="M45 459q0 6 4 17t8 26q14 37 23.5 61.5t15.5 43t10.5 34.5t10.5 39q8 45 14 58.5t19 13.5q6 0 14 -4.5t33 -20.5q12 -6 22 -9t31.5 -5t61.5 -2h112v92q0 43 -1 69.5t-4 43t-9.5 28.5t-16.5 25q-8 20 -8 26q0 16 14.5 27.5t55.5 21.5q23 10 42 17.5t35 17.5 q29 16 52.5 30.5t48.5 31.5q14 8 25.5 14t19.5 6q23 0 22 -24q0 -16 -18 -35q-23 -23 -37 -51.5t-22.5 -73.5t-12.5 -109.5t-4 -156.5h53h56q150 0 219 28q18 10 33 11q29 0 28 -29q0 -18 -26 -47q-35 -35 -56.5 -70t-38.5 -80q-16 -53 -36 -53q-12 0 -20.5 4t-37.5 29 q-25 23 -108 22h-33h-33v-100q0 -41 1 -64.5t5 -39t12.5 -27.5t24.5 -33q12 -12 13 -22q0 -8 -10.5 -14.5t-39.5 -18.5q-27 -12 -45 -21.5t-35.5 -19.5t-33 -23.5t-35.5 -33.5q-33 -31 -49 -31q-10 0 -18.5 9t-8.5 22q0 20 10 41q12 41 19.5 112.5t7.5 161.5v102 q-76 0 -129 -3t-92 -12t-63.5 -23.5t-41.5 -36.5q-16 -16 -32 -17q-20 0 -21 25z" />
<glyph unicode="," horiz-adv-x="616" d="M84 -283l127 328q27 66 65.5 98.5t83.5 32.5q31 0 56.5 -13t45 -35t30 -47t10.5 -50q0 -68 -162 -197l-203 -162h-53v45z" />
<glyph unicode="-" horiz-adv-x="1167" d="M113 842q27 121 129 211q104 88 190 88q16 0 23 -2l139 -25q55 -25 109.5 -46t89.5 -28q8 -2 24 -2q53 0 95 29t71 76l57 -10q0 -27 -2 -33q-8 -18 -10 -33q-18 -111 -123 -223q-102 -115 -194 -115q-16 0 -21 2l-94 17q-18 0 -117 53q-27 12 -46 20t-34 10 q-12 2 -38.5 8.5t-67.5 20.5q-41 10 -69.5 17.5t-47.5 7.5q-27 0 -43 -9t-20 -34z" />
<glyph unicode="." horiz-adv-x="559" d="M117 213q0 86 44 131t109 45q33 0 65 -13.5t54.5 -35t36.5 -49t14 -58.5q0 -49 -86 -141q-84 -90 -147 -90q-31 0 -62 64q-29 68 -28 147z" />
<glyph unicode="/" horiz-adv-x="858" d="M16 -266q0 12 21 53q18 39 34.5 75t35 83t42 113.5t58.5 167t82 242.5t112 341q53 160 99.5 305.5t81 265t56 208.5t28.5 134q6 53 12 66.5t29 13.5q4 0 16 -1t27 -3q10 -2 23 -3t24 -1q37 0 77 6q31 6 52 6q25 0 24 -20q0 -12 -5 -27.5t-21 -40.5q-23 -33 -65 -133 t-97 -248.5t-119.5 -337t-132.5 -399.5q-47 -147 -85 -278.5t-65.5 -243t-45 -199.5t-21.5 -145q-6 -33 -33 -33q-8 0 -31.5 3t-56.5 9l-45 2q-10 2 -17.5 1t-15.5 -3q-20 -4 -33.5 -6t-19.5 -2q-25 0 -25 29z" />
<glyph unicode="0" horiz-adv-x="1734" d="M0 899v207q0 156 119 381q119 229 284 383q190 178 365 178h88q227 0 467 -289q256 -311 256 -663v-131q0 -264 -242 -607q-252 -358 -481 -358h-133q-215 0 -461 283q-262 303 -262 616zM242 1217q0 -229 247 -553q250 -324 433 -324h131q12 14 51 34.5t80 41.5 q29 29 82 162q23 59 39 69v240q-18 68 -39 136.5t-48.5 135t-64.5 128t-90 114.5q-39 47 -70.5 84t-60.5 59q-164 143 -340 144q-145 0 -234 -89q-117 -115 -116 -274v-108z" />
<glyph unicode="1" horiz-adv-x="841" d="M0 1655q0 18 139 121q47 35 111.5 78.5t150.5 99.5q143 94 150 94q33 0 98 -104q37 -61 37 -109v-1374q0 -96 51 -154q27 -29 27 -59v-35h-146q-41 0 -215 -107q-29 -16 -70.5 -43.5t-96.5 -62.5h-113v45q31 16 59.5 42t50 68t35 100t13.5 138v1149q0 66 -39 92 q-27 20 -74 21q-16 0 -84 -13q-35 -6 -53 -6q-31 0 -31 19z" />
<glyph unicode="2" horiz-adv-x="1513" d="M29 1425q0 260 178 441q176 188 418 188q258 0 432 -180t174 -459q0 -219 -168 -442l-406 -436l541 -162q25 0 54.5 19.5t66.5 54.5l151 153q23 0 29 -14q4 -12 4 -39q0 -86 -174 -305q-188 -238 -303 -238q-35 0 -180 76t-221 76h-174q-113 0 -189 -39q-78 -37 -104 -37 q-25 0 -44.5 15.5t-19.5 37.5q0 37 217 254q145 147 246.5 258t161.5 187q219 285 219 462q0 158 -129 269q-100 88 -174 88h-172q-63 0 -170 -97q-53 -47 -105.5 -96t-105.5 -100q-33 0 -43 14.5t-10 50.5z" />
<glyph unicode="3" horiz-adv-x="1648" d="M0 659q0 80 55 80h336v-67q-4 -2 -6 -2t-4 -2q-25 -18 -25 -74v-102q0 -106 111 -213q127 -121 293 -121q197 0 330 147q106 115 106 209v113q0 94 -102 202q-102 111 -211 111h-191q-2 10 -3 18.5t-1 16.5q4 8 4 20q0 10 197 176q94 80 94 160v135q0 76 -113 164 q-119 94 -243 94q-115 0 -193 -63l-143 -139q-16 0 -30.5 15t-14.5 40q0 160 188 338q143 133 326 133q213 0 364 -135q152 -135 152 -314q0 -47 -14.5 -93t-47.5 -93q-20 -31 -41.5 -58.5t-42.5 -56.5q98 -66 152.5 -104.5t69.5 -52.5q147 -146 147 -357q0 -242 -151 -436 q-125 -160 -320 -260q-168 -88 -278 -88h-203q-170 0 -344 174q-203 203 -203 485z" />
<glyph unicode="4" horiz-adv-x="1703" d="M0 612v56q135 223 216 407.5t114 335.5q66 305 69 311q68 111 435 326v-78l-56 -188q-35 -115 -79 -215.5t-91 -192.5q-66 -129 -137.5 -227t-148.5 -168q295 0 303 -4q8 -6 309 -6q20 10 27.5 93t7.5 243v241v279q41 23 83 48t85 54q82 57 129 87t59 34v-1057 q0 -55 49 -55q18 0 49 10h123v-45q0 -59 -35 -151q-49 -127 -131 -127h-55v-289q0 -35 33 -62t33 -61q0 -37 -117 -43q-119 -4 -162 -35l-125 -90q-33 -23 -68.5 -33t-72.5 -10q-55 0 -55 45q0 14 81 84q84 74 84 172v311h-956z" />
<glyph unicode="5" horiz-adv-x="1406" d="M0 424v176q20 12 66 12h40t31 -2q74 -4 126 -7t83 -3v-55q-14 -41 -24.5 -63.5t-10.5 -24.5q0 -78 86 -176q98 -113 215 -113q207 0 336 194q98 150 99 273v201q0 109 -101 221q-127 145 -321 145q-45 0 -125 -30.5t-209 -102.5v911q0 23 -1 35.5t-1 16.5q0 12 8 14 q4 2 37 2q25 0 121 -55q94 -55 157 -56h123q55 0 139 33q47 20 96.5 39t98.5 39q35 0 43 -14q2 -2 2 -31q0 -92 -196 -223q-193 -131 -355 -131q-43 0 -74 10h-55q0 -16 -2 -35.5t-6 -42.5q-8 -41 -8 -55q0 -23 16 -23t133 37q57 18 90 19h123q174 0 336 -193 q164 -195 164 -387v-166q0 -229 -150 -428q-127 -170 -321 -283q-176 -102 -297 -102q-147 0 -319 123q-193 137 -193 301z" />
<glyph unicode="6" horiz-adv-x="1607" d="M0 842v332q72 362 313 616q242 258 506 258h133l160 -66q82 -35 121 -63.5t39 -46.5l-86 -121q-90 -123 -103 -123q-33 31 -57.5 53.5t-44.5 38.5q-121 94 -217 95h-100q-150 0 -293 -193q-150 -199 -150 -426q0 -29 -1 -52.5t-1 -43.5q0 -29 2 -37q37 -262 252 -473 q217 -213 445 -213q158 0 278 117q121 121 121 260q0 106 -98 221q-123 143 -312 143q-80 0 -149 -57q-72 -59 -72 -131q0 -100 51 -137q27 -20 27 -39q0 -20 -18.5 -32.5t-49.5 -12.5q-51 0 -121 82q-78 90 -77 184v88q0 127 116 260q141 160 338 160q256 0 404 -234 q104 -164 104 -297v-233q0 -305 -295 -529q-250 -190 -469 -190q-238 0 -450 213q-246 248 -246 629z" />
<glyph unicode="7" horiz-adv-x="1579" d="M0 1577q0 117 121 278q139 182 295 183h98q29 0 219 -84q184 -82 219 -82h131q59 0 125 55q145 121 172 121q41 0 52 -25q4 -12 4 -51q0 -55 -207 -340q-285 -387 -385 -557q-209 -348 -209 -549t137 -231q137 -31 137 -66q-29 -78 -55 -114q-84 -115 -219 -115 q-57 0 -135 41q-193 104 -193 332q0 219 160 487q47 82 123 182.5t180 223.5q174 207 182 245h-24h-78q-39 0 -78 2.5t-59 8.5q-61 29 -107.5 51t-79.5 37q-195 88 -241 88q-104 0 -166 -105q-61 -104 -76 -104q-23 0 -33 25.5t-10 62.5z" />
<glyph unicode="8" horiz-adv-x="1579" d="M0 600v178q0 129 111 262q33 39 82 85t118 100q-47 61 -78.5 105t-42.5 71q-23 51 -22 145q0 231 203 383q158 119 297 119h155q127 0 301 -131q188 -141 189 -270v-111q0 -92 -117 -199q-20 -16 -49 -38.5t-68 -51.5l252 -227q105 -146 105 -330q0 -227 -242 -454 q-250 -236 -526 -236q-215 0 -447 219q-221 211 -221 381zM233 891q0 -209 246 -414q236 -199 434 -198q119 0 187 73q69 76 69 170q0 162 -288 363q-117 82 -236 143.5t-244 106.5q-29 -23 -49 -42.5t-35 -35.5q-84 -94 -84 -166zM401 1714q0 -78 138 -178 q51 -37 115.5 -74t142.5 -76q125 -61 139 -61q49 0 102 59q54 60 54 107q0 133 -222 268q-201 121 -325 121q-47 0 -96 -51q-47 -51 -48 -115z" />
<glyph unicode="9" horiz-adv-x="1728" d="M0 399q0 18 104 60q102 39 195 39q20 0 94 -179q74 -176 283 -176q158 0 311 158q186 188 187 485v586q0 176 -101 357q-111 199 -242 198h-133q-86 0 -186 -96q-113 -106 -113 -238v-188q0 -199 70 -358q92 -217 262 -218q88 0 148 72q51 59 51 129q0 12 -8.5 37 t-20.5 55.5t-28.5 66.5t-30.5 73q0 35 35 34q10 -2 18 -2h14q47 0 97 -80q57 -90 57 -206q0 -231 -193 -381q-147 -117 -260 -117h-123q-119 0 -264 176q-168 201 -168 442v146q0 305 244 555q215 219 410 219h178q219 0 438 -252q248 -287 248 -688q0 -291 -170 -565 q-145 -231 -371 -393q-207 -150 -356 -150h-133q-152 0 -291 102q-51 37 -98.5 83t-87.5 110z" />
<glyph unicode=":" horiz-adv-x="696" d="M283 219q0 43 15 74t39.5 51.5t56.5 30.5t65 10t64.5 -13.5t54 -35t37 -49t14.5 -58.5q0 -49 -86 -141q-84 -90 -148 -90q-31 0 -61 63q-14 33 -32.5 75t-18.5 83zM311 1165q0 86 44 131t110 45q33 0 64.5 -13t54 -34.5t37 -49t14.5 -58.5q0 -25 -15.5 -62t-58.5 -84 q-20 -23 -33.5 -39t-24.5 -27t-21.5 -17.5t-26.5 -6.5t-57.5 17.5t-57.5 50.5q-29 68 -29 147z" />
<glyph unicode=";" horiz-adv-x="706" d="M199 -270q14 31 43.5 124t74.5 252q57 203 140 203q59 0 98 -45q41 -47 41 -86q0 -63 -152 -258q-59 -76 -107 -132t-87 -95h-51v37zM334 1159q0 86 44 131t109 45q33 0 65 -13t54.5 -34.5t36.5 -49t14 -58.5q0 -49 -86 -142q-84 -90 -147 -90q-33 0 -62 64 q-29 63 -28 147z" />
<glyph unicode="&#x3c;" horiz-adv-x="673" d="M45 737q47 31 92 69t90 83q102 102 150 192h291q-25 -41 -65 -85t-93 -91q-49 -41 -98.5 -81t-96.5 -81l273 -483l-287 -170q0 20 -1 43t-11 47z" />
<glyph unicode="=" horiz-adv-x="1091" d="M53 367q0 12 15 45q14 41 23 65.5t15.5 43t10.5 34.5t8 41q10 45 16 58.5t17 13.5q10 0 17 -4.5t34 -20.5q8 -6 18.5 -9t40 -5t89 -2h167.5q119 0 191.5 1t118 4t71 8t51.5 15q18 10 35 11q31 0 31 -29q0 -20 -29 -49q-35 -39 -56.5 -74t-37.5 -80q-10 -31 -18.5 -43 t-22.5 -12q-12 0 -19.5 5t-35.5 30q-10 8 -20.5 13t-42 7t-95 2h-178.5q-86 0 -142.5 -3t-96.5 -11t-66.5 -23.5t-50.5 -40.5q-23 -18 -33 -18q-25 0 -25 27zM53 743q0 12 15 45q14 41 23 66t15.5 43t10.5 34.5t8 41.5q10 45 16 58t17 13q10 0 17 -4t34 -22q8 -6 18.5 -8 t40 -4t89 -2h167.5q119 0 191.5 1t118 4t71 8t51.5 15q18 10 35 10q14 0 22.5 -9t8.5 -19q0 -20 -29 -49q-35 -39 -56.5 -74t-37.5 -80q-10 -31 -18.5 -43t-22.5 -12q-12 0 -19.5 5t-35.5 30q-10 8 -20.5 13t-42 7t-95 2h-178.5q-86 0 -142.5 -3t-96.5 -12.5t-66.5 -23.5 t-50.5 -39q-18 -18 -33 -18q-25 0 -25 26z" />
<glyph unicode="&#x3e;" horiz-adv-x="673" d="M53 96q51 70 148 172q37 39 82 83t98 95l-272 488l286 166q2 -23 4 -45.5t11 -42.5l235 -549q-80 -61 -168 -168q-88 -106 -137 -199h-287z" />
<glyph unicode="?" horiz-adv-x="1611" d="M336 1427q0 252 178 441q182 188 418 188q258 0 432 -180t174 -459q0 -219 -168 -442l-405 -436q-4 16 -4 22q57 98 105 187.5t89 177.5q90 179 90 372q0 154 -129 269q-104 88 -174 88h-172q-63 0 -170 -96q-53 -47 -105.5 -96.5t-105.5 -100.5q-33 0 -43 14.5t-10 50.5 zM795 207q0 86 44 131t109 45q33 0 64.5 -13.5t54.5 -35t37 -49t14 -58.5q0 -49 -86 -141q-84 -90 -147 -90q-33 0 -62 63t-28 148z" />
<glyph unicode="@" horiz-adv-x="1617" d="M51 748q0 408 268 688q236 242 504 241q315 0 541 -252q223 -248 223 -600q0 -129 -25.5 -232.5t-74.5 -176t-122 -111.5t-167 -39q-55 0 -131 64q-53 45 -102 110l-93 -57q-27 -16 -60.5 -52t-80.5 -85q-129 39 -199 137q-55 76 -55 160q0 178 150 334q25 -6 57.5 -10.5 t46.5 -4.5q82 0 154 35q14 6 26.5 14.5t30.5 18.5v88q0 70 -23.5 92.5t-78.5 22.5q-63 0 -131 -68q-66 -66 -105 -66q-10 0 -21.5 8.5t-20.5 19.5t-16 22.5t-7 17.5q0 20 12 47t20 27l64 -2q72 -4 176 59l131 80q16 2 29.5 4t19.5 2q25 0 31 -6q33 -72 84 -94 q37 -66 37 -129v-568q0 -35 28.5 -61.5t69.5 -26.5q74 0 125 107q55 106 55 233q0 264 -149 502q-188 305 -498 305q-203 0 -364 -205q-162 -207 -162 -479q0 -346 207 -604q221 -281 536 -281q-72 -41 -135 -63.5t-111 -32.5q-264 39 -473 279q-221 260 -221 588zM680 594 q0 -35 10 -68.5t26.5 -59.5t39 -42t45.5 -16q55 0 141 75v389q-63 -35 -102 -57t-54 -33q-106 -78 -106 -188z" />
<glyph unicode="A" horiz-adv-x="2041" d="M0 1507q0 168 182 351q155 151 202 151h1h117q43 0 207 -76q29 -12 67.5 -31.5t91.5 -46.5l29 23q33 25 39 25q12 0 26.5 -9.5t30.5 -38.5l-356 -241q-8 2 -46 24.5t-108 63.5q-107 65 -210 65h-3q-49 0 -94 -28q-61 -41 -61 -117q0 -33 14 -74t14 -69q0 -49 -11 -58.5 t-46 -9.5q-39 0 -63 37q-23 41 -23 59zM47 782q0 203 135 369q59 72 167 165t269 204l783 528h47v-39q-10 -10 -19.5 -21.5t-9.5 -25.5q125 -94 217 -246q102 -168 103 -334v-106q0 -78 10 -103.5t18 -42.5q6 -74 7 -131q0 -53 -1 -73.5t-6 -36.5q8 -12 18.5 -23.5 t10.5 -25.5v-97q0 -199 25 -290q35 -133 129 -134v-49q-23 -76 -117 -176q-86 -94 -115 -94q-41 16 -70.5 32.5t-50.5 33.5q-121 96 -120 253v213v48q-14 2 -19 10q-10 16 -10 39q-2 29 -5 63.5t-3 46.5q0 18 8 33h-29q-27 -6 -55.5 -28.5t-57 -54.5t-58 -67.5t-60.5 -70.5 q-115 61 -180 90q-207 92 -303 92q-57 0 -101 -57q-43 -57 -55 -58q-16 0 -31.5 17.5t-15.5 40.5q0 39 141 180q158 158 246 158l520 -164l10 367q-16 86 -48 173t-79 179q-79 151 -152 151h-1q-39 0 -162 -133q-78 -86 -149.5 -186.5t-141.5 -222.5q-47 -82 -81 -146.5 t-56 -111.5q-96 -215 -96 -351v-176t2 -90v-9t-2 -13q-23 -90 -43 -140q-59 -141 -121 -141q-39 0 -62.5 21.5t-23.5 56.5q0 29 63 129q33 51 33 92q0 35 -127 180q-125 143 -125 303z" />
<glyph unicode="B" horiz-adv-x="2404" d="M0 1489q0 27 25.5 46t60.5 19q51 0 68 -61q14 -61 84 -61q106 0 340 159q190 129 299.5 203t140.5 92q272 162 471 162q182 0 311 -104q33 -27 75 -76t93 -121q76 -106 127 -107q2 -12 3 -19t1 -11q-2 -14 -3 -22.5t-1 -12.5q0 -39 -74 -76q-203 -102 -219 -125l365 -221 q137 -125 137 -281q0 -231 -305 -553q-305 -319 -529 -319h-86q-47 0 -108.5 17.5t-136.5 56.5l-291 149q-84 43 -150.5 61.5t-117.5 18.5h-97q-109 0 -149 -115q-39 -112 -85 -112h-1q-45 0 -53 8q-23 18 -23 86q0 135 217 246q217 113 219 182q4 117 7 182.5t3 85.5 q0 29 -10 54q0 39 1 63.5t3 39.5t5.5 24.5t9.5 15.5q-20 20 -21 41q2 8 2 20q0 8 -10 33q-20 39 -86 51q-61 12 -84 43v58q143 0 291 80q74 41 147.5 81.5t149.5 83.5h26v-65q-23 -16 -49 -62q-35 -59 -35 -100v-549q0 -39 43 -88q23 -27 23 -45q0 -25 -68 -51 q-53 -20 -92 -53h142q74 0 239 -86l359 -189h104q61 0 174 119q137 143 137 289q0 129 -219 274q-207 133 -340 133q-180 0 -223 -129q-43 -127 -117 -127q-29 0 -48 23.5t-19 42.5q0 72 141 205q176 164 514 364q-49 127 -141 211q-88 82 -172 82h-133q-39 0 -110 -25.5 t-175 -80.5l-383 -201q-111 -57 -187.5 -83t-121.5 -26h-133q-45 0 -99 52q-53 53 -53 100z" />
<glyph unicode="C" horiz-adv-x="1800" d="M0 854v205q0 160 121 366q123 207 315 351q86 63 171 113t165 86t152.5 54.5t132.5 18.5q55 0 262 -47q35 -8 83 -20.5t111 -28.5q16 0 82 57q35 29 54 29q14 0 31.5 -17.5t17.5 -29.5q0 -25 -88 -156q-53 -82 -94 -147.5t-68 -116.5q-90 -176 -90 -289v-108h-78 q-14 59 -14 83q0 16 10 21l4 4q0 90 14 141q8 23 16.5 45.5t18.5 44.5q0 27 -192 127q-219 117 -361 117q-225 0 -385 -182q-150 -170 -149 -381q0 -240 168 -446q139 -174 356 -287q195 -102 321 -103h136q145 0 276 131t160 132q18 0 33.5 -19.5t15.5 -48.5 q0 -51 -92 -174q-113 -150 -273 -250q-207 -129 -442 -129q-252 0 -475 166q-184 137 -313 358q-113 193 -113 330z" />
<glyph unicode="D" horiz-adv-x="2113" d="M0 244q0 47 28.5 98t88.5 98l215 172q63 51 91 108.5t28 115.5v188q0 260 -140 276q-65 10 -65 42q0 17 8 26q8 12 39 12h84q47 0 102.5 12.5t120.5 43.5l256 123q27 0 27 -37q0 -23 -43 -62q-41 -41 -41 -80v-516q0 -37 28 -69q29 -33 29 -43q0 -25 -90 -47 q-92 -18 -145 -95q8 -2 18 -4t26.5 -3t44 -1h70.5q47 0 98.5 -20.5t106.5 -67.5q49 -41 96 -82t95 -80q111 -90 206 -90q166 0 322 217q147 205 147 385v84q0 264 -174 459q-174 199 -381 199h-346l-112 -19q-121 -18 -152 -18h-254q-113 0 -196 53q-94 61 -95 164 q0 94 60 178q61 84 129 84q18 0 30 -37q27 -86 138 -86q137 18 264 32.5t207 14.5h348q309 0 518 -256q186 -225 186 -485v-207q0 -119 -57 -299q-59 -186 -135 -305q-39 -59 -100.5 -124t-149.5 -130q-219 -166 -377 -166h-84q-70 0 -141.5 27.5t-140.5 91.5l-240 221 q-70 63 -137.5 92t-128.5 29q-152 0 -187 -146q-35 -145 -96 -145q-25 0 -36 21.5t-11 52.5z" />
<glyph unicode="E" horiz-adv-x="1730" d="M0 920v133q0 133 88 336q90 209 197 327q78 86 254 195q223 137 370 137h123q27 0 203 -68q175 -65 204 -65h1q72 0 131 72q27 33 49 32q29 0 39 -19t10 -56q0 -104 -139 -234q-139 -127 -270 -127q-49 0 -240 62q-190 61 -215 61h-189q-111 0 -260 -145 q-168 -162 -168 -347v-172q0 -31 17.5 -69.5t50.5 -52.5q0 139 100 247q92 102 185 103h141q59 -14 118.5 -25.5t90.5 -11.5q53 0 99 35t71 98h57q2 -6 2 -18v-15q-2 -14 -2 -22v-13q0 -117 -88 -247q-96 -141 -186 -142h-96q-27 0 -97 25q-69 24 -117 24h-4q-68 0 -139 -47 q-69 -44 -69 -112q0 -29 84 -125q53 -59 108 -106.5t115 -82.5q162 -96 319 -96h285q53 0 103 19.5t91 66.5l175 189q35 0 41 -24t6 -62q0 -158 -234 -369q-233 -209 -420 -209h-190q-92 0 -203 51q-195 88 -375 309q-117 145 -176 310q-51 139 -51 250z" />
<glyph unicode="F" horiz-adv-x="1671" d="M0 1942q0 39 39 38q70 -41 162 -73.5t205 -32.5q84 0 339 86q252 88 357 88h143q100 0 170 -25.5t139 -52.5q8 0 37 27q14 12 23 12l28 -12q29 -17 29 -27q0 -18 -119 -201q-59 -92 -99 -152.5t-62 -90.5h-58q-2 10 -2 35q0 13 1 31q1 19 1 42q0 56 -133 115 q-129 57 -225 57q-72 0 -139 -22q-63 -20 -64 -55v-715h29l190 151q100 61 187 62h270q23 0 49 -27l10 -12l-114 -193q-115 -193 -138 -192q-41 0 -49 51q-20 113 -164 113q-61 0 -153 -49q-106 -57 -107 -115v-455q0 -123 29 -190l68 -109l-15 -18q-23 -20 -63 -21 q-16 0 -62 15q-45 14 -63 14h-117q-20 -6 -35.5 -10t-25.5 -6q-57 -14 -74 -23h-47v106q2 4 10 26t23 63q2 6 6 15t8 21v1074q-12 4 -14 6q-14 12 -15 41v348q-184 68 -289.5 125t-105.5 117z" />
<glyph unicode="G" horiz-adv-x="2164" d="M0 956q0 111 80 314q80 201 178 309q143 160 358 281q78 45 163 80.5t177 64.5q137 43 191 43h153q41 0 97.5 -14.5t132.5 -46.5q35 -16 71.5 -32t71.5 -32q29 0 41 33q12 35 37 35q16 0 41 -20.5t25 -37.5q-51 -70 -89 -122t-63 -87q-154 -215 -154 -231q0 -23 58 -35 q178 -41 276 -127q57 -49 121 -147q61 -96 62 -150v-211l-19 -84q-16 -53 -45 -105t-68 -106q-109 -150 -288 -280q-59 -43 -117.5 -80t-116.5 -66q-195 -102 -313 -102h-182l-78 12q-96 16 -182.5 61.5t-169.5 108.5q-227 172 -338 367.5t-111 406.5zM258 1178 q0 -297 350 -600q334 -291 617 -291h114q111 0 242 131t131 241v125q0 111 -123 271q-115 145 -184 170q-14 -23 -23.5 -38.5t-13.5 -37.5h-68l-24 25q-4 8 -4 22q0 33 5 48.5t23 27.5v31q-35 8 -65.5 18t-38.5 10h-96l-62 -49q-43 -35 -43 -96q0 -55 52 -99l24 -16 q10 0 36 19.5t50 19.5q39 0 39 -57q0 -35 -41 -70q-39 -31 -72.5 -62.5t-58.5 -68.5l-115 -172q-14 -23 -29.5 -31t-29.5 -8q-29 0 -41 6q-10 6 -10 17q0 6 10 20l4 4q-14 6 -14 17q0 14 14 40q-25 14 -72 95q-47 86 -53 88v153q53 113 111.5 198t156.5 128q137 59 258 76 q160 23 201 57v39q-66 29 -118 50.5t-89 35.5q-225 86 -319 86h-96q-164 0 -351 -197q-184 -195 -184 -376z" />
<glyph unicode="H" horiz-adv-x="2074" d="M0 1966q0 29 9 43t48 14q10 0 183 -71q86 -35 145 -35h107q139 25 292 61q106 27 179 42.5t114 23.5q8 2 25.5 2h30.5q61 0 121.5 -1t121.5 -1q82 0 215 -90q152 -102 152 -211q0 -55 -18.5 -75.5t-69.5 -20.5q-55 0 -248 120q-193 121 -299 121h-78q-23 0 -69 -9 t-117 -26q-143 -33 -199 -61v-530q90 59 150.5 97t95.5 54q129 59 274 60q354 0 598 -275q211 -236 211 -493v-144q0 -78 -28.5 -142.5t-92.5 -109.5l-110 -78q39 -78 123 -118q72 -35 71 -64q0 -37 -27.5 -52t-70.5 -15q-113 0 -225 155q-92 129 -92 316v340v102 q-18 176 -144 295q-125 119 -282 119q-145 0 -308 -101q-162 -98 -161 -168v-809q0 -31 30.5 -81t65.5 -101q0 -31 -16.5 -35t-42.5 -4q-20 0 -61.5 12.5t-82.5 26.5h-164q-25 0 -75 -24l-50 -25q-20 0 -34 12q-23 18 -23 45q0 16 57 99q29 41 29 75v1407q0 119 -131 199 q-129 76 -129 129z" />
<glyph unicode="I" horiz-adv-x="1570" d="M0 305q0 10 211 176t238 166q47 0 47 -47q0 -18 -29 -41t-29 -45q0 -55 117 -199q141 -172 274 -172q72 0 150 74q88 86 88 203v856q0 133 -59 168l-121 72q37 49 102 73q119 43 135 78q6 4 15 16q2 2 24 3q31 0 58.5 30.5t35.5 65.5l-268 -129q-121 -43 -235 -43h-191 l-391 125q-14 0 -29.5 -8.5t-30 -17.5t-26.5 -16t-18 -7q-14 0 -25 8q-25 18 -25 49q0 14 127 160q129 145 150 145q49 -18 98 -36.5t101 -35.5q200 -71 276 -71h2h277q41 0 94 10t119 35l254 98q47 0 47 -57q-29 -39 -54.5 -75t-48.5 -71q-49 -80 -49 -159v-906 q6 -20 17.5 -44.5t11.5 -49.5q0 -16 -3 -44t-7 -52q-10 -82 -51.5 -159t-110.5 -150q-121 -123 -279 -207q-141 -74 -217 -74h-209q-117 0 -291 129q-176 129 -225 129q-12 0 -29.5 15.5t-17.5 31.5z" />
<glyph unicode="J" horiz-adv-x="1593" d="M0 1942q0 39 8 57t39 18q20 0 66 -119q45 -116 210 -116h3q74 0 223 65q76 33 148.5 66t144.5 63q90 37 164.5 53.5t136.5 16.5q113 0 260 -61q182 -78 182 -187q0 -16 -88 -80q-88 -63 -88 -172v-1106l49 -190q27 -100 38 -162.5t11 -89.5q-10 -33 -18 -64.5t-16 -64.5 q-57 -141 -187 -240q-176 -129 -448 -129q-117 0 -222 33q-137 43 -194 90q-76 84 -109 133q-109 152 -108 242v205q0 53 21.5 124.5t68.5 157.5l168 312q47 90 69.5 163.5t22.5 126.5q0 74 -53 123t-53 72q0 20 21.5 37.5t35.5 17.5q51 -27 69 -43q72 -59 72 -125v-143 q0 -70 -90 -240q-72 -133 -113 -213.5t-55 -111.5q-90 -209 -90 -373q0 -182 158 -321q133 -119 245 -119h84q156 0 269 112q96 96 96 181v104q-35 59 -63.5 143t-28.5 195v653q8 16 14 80t6 182q0 66 -80 95q-79 27 -79 60q0 21 88 65q45 23 99 54.5t118 76.5 q-27 33 -133 57q-35 8 -105 18h-160q-49 -8 -87 -13t-64 -9q-170 -25 -205 -25h-90q-137 0 -246 64q-135 76 -135 201z" />
<glyph unicode="K" horiz-adv-x="1972" d="M0 1952q0 29 10 39t37 10q12 0 66 -43q51 -43 135 -43q76 27 144.5 49.5t127.5 40.5q135 43 250 43q78 -10 115 -18q115 -31 114 -86v-39q-135 0 -186 -53.5t-51 -174.5v-524h65q137 72 259 164t219 221l264 354q61 82 137 119t160 37q47 0 86 -23t39 -63 q0 -16 -19.5 -31.5t-38.5 -15.5h-96h-39q-29 0 -46 -10.5t-38 -46.5l66 -62q28 -40 28 -114v-5q0 -82 -54 -160.5t-173 -140.5l-287 -147l162 -166q37 -59 70 -151.5t73 -215.5l97 -286q53 -94 157 -103q109 -10 109 -49q0 -20 -162 -139l-162 -119q-39 0 -73 35l-41 41 q-63 63 -110.5 123.5t-74.5 124.5q-10 23 -61 247q-20 86 -51 166t-76 158q-29 51 -53.5 87t-44.5 56q-47 47 -92 47l-43 -6q-53 -8 -91.5 -23.5t-64.5 -35.5v-744q0 -57 51 -139q53 -84 53 -98q0 -39 -57 -39q-53 18 -103.5 32.5t-87.5 14.5q-86 0 -143 -18.5t-76 -18.5 q-31 0 -39 6q-18 12 -18 52q0 6 43 98t43 129v1354q0 123 -215 163q-213 41 -213 140z" />
<glyph unicode="L" horiz-adv-x="1871" d="M0 1802q0 39 129 68q176 35 274 61l256 74q143 43 164 43h256q45 -10 77 -20.5t54 -18.5q133 -53 133 -108q0 -18 -20 -38t-49 -20q-37 18 -74 33.5t-74 30.5q-83 32 -151 32h-4q-195 0 -289 -112q-84 -102 -84 -279v-1362h39q76 27 266 154q150 100 314 100q45 0 91 -13 t93 -42q53 -35 89 -60.5t58 -39.5q2 8 13 92q4 41 6 79t2 72q0 74 12 117q27 92 27 129v98q0 14 -6.5 39t-15.5 49.5t-21.5 48t-24.5 40.5v59h57q86 -86 127 -169t41 -194v-323q-2 -8 -2 -37q0 -88 68 -219q33 -63 33 -98q0 -41 -17.5 -54.5t-62.5 -13.5l-342 49h-537h-198 q-70 0 -122.5 -3t-88.5 -7l-142 -19h-176h-31l-10 -8q-16 -10 -22 -10q-25 0 -25 57q0 51 60 62q57 8 86 26v1401q0 133 -119 185q-117 51 -117 69z" />
<glyph unicode="M" horiz-adv-x="2879" d="M-29 1509q0 219 170 383q143 137 262 138h136q16 0 43.5 -8.5t66.5 -28.5l158 -80q6 0 14 7t18.5 16.5t22.5 17.5t31 8q25 0 37 -8t12 -41q0 -8 -41 -45t-141 -119q-55 -59 -97 -101t-57 -42q-61 57 -135 96q-90 47 -174 47q-104 0 -168 -68q-53 -57 -53 -104v-164h-66 q-31 27 -33 35q-6 14 -6 61zM0 653v78l16 105q35 127 127 260q63 92 152.5 173t193.5 165l129 102q86 70 144.5 118t91.5 75q63 53 102 86.5t54 50.5q23 23 53.5 56.5t71.5 78.5q43 47 47 47q61 -39 107 -69.5t75 -57.5q184 -158 184 -305h29q166 119 270 246 q137 168 162 168q16 -20 34.5 -39t35.5 -37q78 -86 122 -134t54 -59q51 -57 106.5 -122.5t118.5 -139.5q4 0 78 -84q45 -51 82 -104.5t65 -106.5q82 -150 82 -272v-96q0 -211 -200 -508q-209 -309 -385 -310h-107q-27 0 -98 48l-74 49q-16 0 -49 -19q-20 -10 -29 -10 q-14 0 -30.5 20.5t-16.5 36.5q53 57 94 100.5t68 71.5q166 174 184 174q37 0 43 -124q6 -125 121 -125q86 0 178 94q109 113 109 262q0 127 -195 397q-74 104 -165 216t-201 235q-90 100 -141.5 154.5t-65.5 64.5l-279 -260v-1067q0 -92 33 -156q8 -14 25.5 -38.5 t46.5 -63.5v-60h-29q-66 0 -123 19q-37 10 -49 10h-117q-41 -14 -83 -25.5t-70 -11.5q-12 0 -29 4q-29 10 -29 33q37 57 67 106.5t30 106.5v1268q0 23 -70 98q-70 76 -102 76q-27 0 -170 -150q-154 -160 -236 -282q-78 -121 -135 -273q-55 -154 -55 -219v-289l57 -268v-115 q0 -16 -7 -34.5t-17.5 -33.5t-25 -26.5t-28.5 -11.5q-39 0 -62.5 25.5t-23.5 52.5q0 12 19 67q10 35 10 58q0 20 -189 129q-186 111 -186 321z" />
<glyph unicode="N" horiz-adv-x="1994" d="M0 1696q0 27 117 119l293 233q74 -35 125 -139l86 -232l485 361q260 -72 434 -271q63 -72 118.5 -155.5t86.5 -188.5l55 -184q10 -23 17.5 -40t11.5 -32q29 -86 29 -139v-285q0 -86 -46 -184q-47 -104 -96 -139q-16 -10 -86 -31q-47 -12 -47 -47q0 -100 119 -176t119 -98 q-10 -23 -21 -33q-35 -35 -84 -35q-96 0 -186 115q-100 125 -100 295v628q0 199 -136 426q-154 260 -350 260q-25 0 -102 -51q-53 -35 -114.5 -81t-127.5 -105v-1211q0 -55 35 -124q14 -27 29.5 -47.5t31.5 -36.5q-10 -14 -20 -26.5t-27 -12.5q2 0 -92 22q-90 25 -108 25 h-87q-23 0 -65.5 -15.5t-85.5 -31.5q-20 0 -35 12q-23 18 -22 45q0 16 36 59l39 45q4 6 9 23q2 6 2 25q-2 14 -2 24v19q0 37 20 71v944q-4 2 -18 0q2 25 4 63t2 46q0 43 -6 53h18q0 66 -25 125q-35 84 -98 84q-39 0 -59.5 -14.5t-36.5 -14.5q-23 0 -31 9q-8 8 -8 49z" />
<glyph unicode="O" horiz-adv-x="1837" d="M0 958q0 96 66 322q55 193 75 223q51 88 118 171t149 161q225 213 411 213h158q94 0 246 -86q127 -70 225 -186q45 -45 82 -89.5t65 -84.5q143 -211 144 -418v-178q0 -129 -111 -363q-121 -254 -299 -432q-213 -211 -436 -211q-313 0 -592 279q-301 297 -301 679z M264 1108q0 -117 121 -311q16 -27 49 -74t84 -113q121 -160 275 -245q125 -74 213 -74h104q158 0 303 207q45 66 111 207v243q-57 143 -125 275q-74 139 -158 215q-47 51 -87 88t-69 61q-186 152 -323 152h-160q-104 0 -221 -140q-117 -139 -117 -245v-246z" />
<glyph unicode="P" horiz-adv-x="2400" d="M0 1618q0 41 30.5 73.5t59.5 32.5q18 -6 34.5 -14t41.5 -27v-135q25 -10 55 -32q8 -6 58 -7q84 0 307 140q326 205 430 258q276 141 481 141h129q317 0 551 -270q213 -248 213 -514v-107q0 -217 -164 -502q-78 -135 -170 -248.5t-203 -207.5q-225 -199 -401 -199 q-53 0 -106.5 10t-104.5 41l-225 135v-403q0 -117 31 -178l71 -94q0 -16 -16.5 -32t-42.5 -16q-33 14 -86 25.5t-131 11.5q-51 0 -86 -14q-80 -33 -88 -33q-27 0 -43.5 22.5t-16.5 53.5q0 8 39 84q20 39 21 76v694h-111q-76 -61 -106 -174q-8 -33 -48 -33q-23 0 -42 21.5 t-19 40.5q0 137 150 231l176 88v492q0 156 -127 172q-59 10 -60 53q0 33 27 47q61 20 133 49t156 70q33 16 81 46t115 75q99 67 132 67h1q37 0 37 -41l-92 -145q-45 -70 -45 -109v-776l401 -188q59 -29 94 -44.5t48 -19.5q25 -6 78 -6q131 0 251 154q139 176 140 428v168 q0 276 -242 505q-211 199 -377 199h-215q-55 0 -235 -86q-182 -86 -375 -172q-193 -84 -299 -84q-119 0 -201 49q-94 57 -94 158z" />
<glyph unicode="Q" horiz-adv-x="1968" d="M0 471q0 18 106 86t107 193v577q0 45 -78 107q-78 61 -78 75q0 29 127 64q88 20 154 61l80 78q88 88 110 105q154 119 281 175t250 56h86q88 -12 139 -33q162 -59 303 -207q160 -168 233.5 -322.5t73.5 -322.5v-86q0 -164 -84 -348l-184 -305l45 -62q47 -63 70 -63h57 q31 6 35 6t4 -37q0 -16 -164 -143l-164 -125q-12 0 -53 96t-72 97q-47 -37 -104 -72t-122.5 -61.5t-137.5 -43t-146 -16.5q-141 0 -292 115q-16 12 -73.5 65t-158.5 148q-120 114 -185 114h-1h-96q-4 -4 -7 -4q-20 -10 -32 -10q-29 0 -29 43zM307 567q16 -8 43 -8q10 0 49 4 t72 4q141 0 268 -94l191 -176q100 -94 176 -94q45 0 90 20.5t92 44.5v31q-25 12 -49.5 25.5t-48.5 25.5q-31 16 -76 17q-10 0 -34.5 -3.5t-59.5 -7.5q-8 20 -10 31q-2 6 -19 16q37 61 133 103q74 33 127 33h125q12 0 19.5 -1t17.5 -4.5t25.5 -11.5t42.5 -22h39l77 211v356 q-33 133 -90 270t-131 201l-213 180q-127 80 -229 80h-107q-37 0 -110 -29q-88 -37 -158 -96v-749q0 -41 4 -76t17 -62l45 -94q0 -27 -158 -76z" />
<glyph unicode="R" horiz-adv-x="2215" d="M0 1573q0 31 19.5 50t48.5 19q57 0 75 -73q18 -74 142 -74q117 0 346 143l428 267q129 80 245.5 111.5t217.5 31.5q174 0 319 -115q53 -41 99.5 -93t78.5 -120l56 -116q4 -6 51 -17q49 -10 49 -74q-59 -70 -137 -122q-66 -47 -153 -98.5t-197 -108.5q14 -37 36 -66 l64 -67q70 -295 135 -498q66 -205 123 -238q14 -8 47 -8q8 0 23.5 1t37.5 3q23 2 35.5 3t14.5 1q2 -10 3 -17t1 -15q-4 -5 -4 -19q0 -27 -39 -53q-102 -68 -119 -82q-61 -49 -113 -111q-47 -55 -59 -55q-131 0 -232 260q-23 57 -141 486q-70 260 -137 260q-57 0 -100 -119 t-90 -119q-41 0 -50 33q-8 33 -28 55q14 14 30 66q18 51 299 252q59 41 121 82t123 79q100 63 100 88q0 104 -86 216q-115 147 -299 147q-76 0 -174 -21.5t-217 -74.5l-397 -178q-111 -49 -190.5 -73t-133.5 -24q-106 0 -188 56q-84 59 -84 139zM399 1290q0 25 101 51 q51 14 97 29.5t85 38.5q59 33 105.5 59.5t84.5 42.5q88 41 125 41q10 -8 24 -14t28 -14q-2 -6 -66 -86q-45 -57 -45 -119v-382t-2 -181t-5 -78t-11 -66q2 -12 4 -40.5t2 -90.5q0 -41 -1 -87t-3 -99t-2 -80v-29l55 -69q55 -72 55 -86l-18 -19q-20 -20 -43 -20q-27 0 -70 16 q-104 41 -149 41q-37 0 -80 -14q-104 -33 -117 -33q-66 0 -66 57q0 23 37 60q39 39 39 88v909q0 86 -82 119t-82 55z" />
<glyph unicode="S" horiz-adv-x="1957" d="M0 543v96q0 102 84 180q82 76 182 76q41 0 78 -11.5t72 -31.5q70 -43 69 -100v-29q-109 0 -149.5 -35t-40.5 -127q0 -160 154 -291q174 -147 436 -147q238 0 405 156q168 156 168 350q0 180 -127 313q-127 135 -282 135q-123 0 -215 -61q-90 -59 -91 -168h-28 q-252 0 -453 164q-215 174 -215 436q0 250 217 434q193 166 402 166q174 0 368 -78q106 -41 212 -85t212 -85q80 0 127 62q45 63 72 63q10 0 28.5 -16.5t18.5 -40.5q0 -139 -150 -289q-113 -113 -260 -113q-61 0 -130.5 20.5t-147.5 65.5q-78 43 -150.5 88.5t-144.5 85.5 q-80 47 -143.5 70t-110.5 23q-96 0 -174 -72q-74 -72 -74 -148q0 -119 152 -245q162 -135 334 -135h266q35 51 123 96q106 57 211 57q168 0 307 -117q100 -86 172 -231q55 -115 55 -166v-115q0 -131 -88 -292q-100 -188 -268 -308q-201 -143 -455 -143h-199 q-270 0 -467.5 115.5t-314.5 333.5q-18 20 -22 30q-25 39 -25 64z" />
<glyph unicode="T" horiz-adv-x="1921" d="M0 1522q0 180 193 352q193 174 391 174h258l776 -162l242 66l122 39q23 0 49.5 -17.5t26.5 -40.5q0 -10 -180 -190q-98 -98 -135 -154q-47 -68 -88 -141.5t-80 -151.5q-29 -61 -72 -61q-20 0 -43.5 19.5t-23.5 37.5q0 4 61 131q63 125 64 138l-189 10q-94 4 -146 9t-67 9 q-14 4 -44 12.5t-77 22.5q-96 31 -110 31q-80 0 -230 -166q-172 -195 -172 -379v-154q0 -121 80 -258q96 -164 258 -262q201 -121 457 -121q133 0 260 86q125 86 152 86q37 0 47 -20.5t10 -44.5q0 -96 -193 -250q-215 -172 -419 -172h-183q-240 0 -501 231 q-272 242 -273 486v221l12 102q33 131 129 273q135 197 375 381q-47 12 -88 22t-78 19q-111 26 -173 26h-5q-166 0 -239 -164q-74 -162 -97 -161q-37 0 -47 21.5t-10 64.5z" />
<glyph unicode="U" horiz-adv-x="1921" d="M0 1753q0 33 152 154q150 123 170 123q88 -43 137 -91q137 -131 137 -337q0 -14 1 -36t1 -43.5t1 -42t1 -32.5v-29q0 -12 -2 -28.5t-2 -24.5q0 -10 -12 -18q-2 -2 -6.5 -4.5t-8.5 -6.5h19q-4 -10 -8.5 -18t-6.5 -16q-14 -49 -14 -138v-387q0 -123 109 -254 q74 -88 206 -180q100 -70 121 -70l156 107q158 109 158 141v369q0 8 -2 8l-19 -8v768q0 141 -33 215q-18 33 -36.5 63.5t-34.5 63.5q0 37 28 37h21q10 0 108 -29q92 -27 119 -27q12 0 109 33q96 33 119 33q20 0 42.5 -14.5t22.5 -32.5q-43 -33 -73.5 -105.5t-30.5 -207.5 v-1158q0 -117 84 -176q70 -51 182 -51v-37q0 -35 -184 -153q-31 -20 -77 -48t-110 -65q-29 0 -123 106q-113 125 -112 226h-29q-35 -14 -330 -236q-131 -96 -164 -96q-20 0 -151 80q-176 106 -283 233q-154 180 -153 379v549q14 2 18 10q10 16 10 39v264q0 92 -55 123 q-33 20 -115 21q-57 0 -57 55z" />
<glyph unicode="V" horiz-adv-x="1804" d="M0 1681q0 39 233 203q39 27 98.5 65t137.5 89q20 0 29.5 -15.5t9.5 -31.5q0 -31 -21 -45q-20 -14 -26 -68l610 -1436q74 55 238 316q184 291 184 416v141q0 96 -84 239q-98 164 -207 164q-35 0 -61 -20q-63 -45 -88 -45q-39 0 -39 65q0 31 80 84l155 105l84 96 q23 25 42.5 35t33.5 10q106 0 242 -166q143 -174 143 -342v-141q0 -55 -8 -90q-10 -53 -35 -114.5t-59 -131.5q-100 -190 -275 -395q-66 -78 -134.5 -160t-133.5 -170l-135 -178q-10 -23 -19.5 -47.5t-19.5 -46.5q-37 -66 -103 -66q-49 0 -69 80q-35 135 -56.5 226 t-41.5 136l-58 133l-131 318q-10 27 -33.5 78t-58.5 129t-63.5 138t-51.5 105q-43 86 -72.5 144.5t-48.5 87.5q-29 49 -42 56t-37 7q-14 -2 -23.5 -2h-17.5q-35 0 -51.5 8.5t-16.5 36.5z" />
<glyph unicode="W" horiz-adv-x="2527" d="M0 1235v158q25 236 229 440q215 215 463 215q109 0 269 -129q143 -117 143 -152q0 -20 -209 -127q-35 -18 -87 -44.5t-124 -61.5l-18 10q-20 18 -21 45q0 12 14 27q33 33 33 57q0 51 -55 105q-69 65 -165 65h-3q-98 0 -166 -76q-68 -74 -67 -159v-150q0 -66 29.5 -141.5 t94.5 -155.5q59 -74 122 -143.5t126 -140.5q147 -168 178 -287h29q35 100 189 278q137 156 137 179q0 8 -99 104q-96 92 -96 102q0 12 139 105l142 92q10 0 67 -64q39 -43 101 -86q78 63 117.5 92t50.5 29q4 0 34 -43q14 -20 22.5 -33.5t8.5 -17.5q0 -23 -43 -49 q-98 -68 -98 -90q2 0 80 -127q49 -80 89 -146.5t68 -119.5q90 -166 109 -234q61 16 217 223q176 231 176 367v158q0 106 -94 243q-96 139 -176 140q-10 0 -47 -17q-25 -10 -29 -10q-12 0 -22.5 8t-17.5 20.5t-11 25t-4 20.5q0 33 186 162l187 129q29 0 167 -191 q152 -213 152 -334v-149q0 -104 -46 -221t-151 -240l-364 -428q-104 -123 -150.5 -230.5t-46.5 -199.5q0 -8 -14 -23l-14 -14h-95l-55 215q-20 78 -47 142.5t-55 119.5q-47 92 -90 186.5t-84 192.5q-35 80 -60 80t-44 -29.5t-40 -54.5q-135 -170 -213 -294t-98 -210 q-41 -172 -111 -348h-94q-27 129 -62.5 232.5t-82.5 185.5q-59 102 -183 229q-66 66 -109.5 118t-66.5 87q-23 55 -41 97t-28 71q-72 184 -72 215z" />
<glyph unicode="X" horiz-adv-x="2353" d="M0 227q0 23 152 144l151 123h47v-58q0 -74 42 -118t112 -44q115 0 235 152q20 25 43 63.5t54 88.5q35 53 73.5 109t79.5 122q82 131 82 149l-106 197q-109 203 -129 229q-35 51 -68 101.5t-66 101.5q-94 119 -227 119q-47 0 -139 -33q-16 -4 -38 -13t-50 -20 q-39 0 -39 66q0 18 119 106q39 29 94 67t131 89q119 80 121 80q111 0 229 -131q45 -49 95.5 -121t105.5 -170l168 -299q23 14 143 203q74 117 129 198.5t92 129.5q135 172 213 172q49 0 156 -58q106 -57 137 -57q47 0 78 33q35 35 47 34q16 0 35.5 -17t19.5 -40 q-27 -59 -49 -102t-41 -72q-115 -176 -231 -176q-35 0 -117 41q-80 43 -139 43q-74 0 -158 -109q-14 -16 -29.5 -44.5t-39.5 -63.5l-80 -115q-82 -119 -82 -141l61 -115l129 -233q41 -72 68.5 -118t44.5 -67l190 -241q139 -109 314 -109h180v-29q-47 -35 -114.5 -79.5 t-157.5 -98.5l-164 -96h-97q-129 0 -262 152q-94 111 -213 331l-178 332q-39 -23 -170 -240q-162 -264 -260 -378q-170 -197 -319 -197h-76q-41 0 -178 78q-154 88 -154 149z" />
<glyph unicode="Y" horiz-adv-x="1986" d="M0 1739q0 18 178 164q182 145 209 145q143 0 244 -242q51 -121 162 -555q53 -209 103 -360.5t91 -253.5q23 -53 38 -95t30 -69q90 -164 198 -164q8 0 125 195q119 193 160 276l92 185q47 92 71.5 172t24.5 147q0 88 -86 178q-193 199 -192 248v135q0 55 80 129t141 74h80 q39 0 109 -41q84 -53 84 -113q0 -49 -9 -57q-10 -10 -49 -18q-4 37 -12 57q-16 47 -43 47q-31 0 -55.5 -24.5t-24.5 -53.5q0 -27 115 -119t114 -178v-80q0 -92 -51 -208q-25 -59 -66.5 -143.5t-103.5 -192.5l-291 -510q-119 -207 -188.5 -335t-97.5 -175q-23 -35 -43.5 -67 t-42.5 -58q-43 -47 -78 -84t-62 -60q-164 -145 -262 -145h-174q-39 0 -133 31q-117 37 -117 73l107 168q109 170 112 170l50 -96q49 -96 225 -96q137 0 242 129q37 47 77 131q-90 35 -198 115q-123 90 -207 254l-150 475q-2 14 -22.5 91t-59.5 218q-43 156 -70.5 248 t-43.5 125q-33 66 -54.5 104.5t-31.5 48.5q-37 39 -88 39q-55 0 -70 -18q-16 -18 -37 -19q-4 0 -11 6.5t-16.5 15.5t-15.5 19.5t-6 16.5z" />
<glyph unicode="Z" horiz-adv-x="2025" d="M-29 1645q0 82 154 233q176 170 346 170h193q41 0 378 -111q166 -53 285 -53h96q135 0 269 68q129 67 162 67h1q12 0 29 -18q31 -41 39 -49l-663 -711l202 -213q-25 -23 -54.5 -48.5t-64.5 -51.5q-63 -49 -180 -207h-28l-39 160q-10 39 -86 61l-586 -614l18 -11 q104 47 217 86q236 86 361 86h162q197 0 317 -114q20 -18 38.5 -47t39.5 -68q115 16 180 146q72 133 109 133q33 0 50 -21.5t17 -56.5q0 -59 -75 -160q-90 -121 -222 -201q-164 -100 -348 -100h-106q-86 0 -246 57l-330 117h-117q-162 0 -262 -78t-141 -78t-55 19 q-16 27 -31 49l856 895l-10 18q-9 1 -18 1q-55 0 -140 -50q-78 -45 -131 -123h-57v39q0 51 143 201q176 182 338 182h86q14 0 88 74q41 41 79 83t73 85q33 39 72.5 81t90.5 89q49 45 50 80q-109 -35 -208.5 -65.5t-186.5 -55.5t-160.5 -39t-128.5 -14h-258q-111 0 -197 57 t-121 164h-29q-92 -90 -141 -158q-31 -43 -61 -43q-57 0 -58 58z" />
<glyph unicode="[" horiz-adv-x="679" d="M174 2107q0 35 14.5 45.5t32.5 10.5q29 0 58.5 -3t58.5 -3q27 0 51.5 3t44.5 3q63 0 86 -3t23 -24q0 -33 -20.5 -43t-45 -21.5t-45 -32t-20.5 -75.5l16 -2230q0 -55 20.5 -75.5t45 -32t45 -22t20.5 -42.5q0 -20 -22.5 -23.5t-85.5 -3.5q-20 0 -45 3t-52 3q-29 0 -58.5 -3 t-57.5 -3q-18 0 -33 10.5t-15 44.5z" />
<glyph unicode="\" horiz-adv-x="858" d="M-20 1774q0 20 24 20q20 0 51 -6q20 -4 40 -6t38 -2q12 0 24.5 2t22.5 4q14 2 26.5 3t16.5 1q23 0 29 -13.5t14 -66.5q6 -45 27.5 -134t56.5 -209t80 -265.5t98 -304.5q66 -199 114 -341.5t82 -242.5t57.5 -166.5t42 -114t34.5 -83t35 -74.5q10 -23 16 -34t6 -20 q0 -29 -26 -28q-6 0 -19.5 2t-31.5 6q-10 2 -17.5 3t-17.5 -1l-43 -2q-68 -12 -90 -12q-25 0 -33 32q-4 57 -21.5 145.5t-45 200t-65.5 242.5t-85 279q-66 211 -130.5 399.5t-119.5 337t-98 248.5t-66 133q-16 25 -21 40t-5 28z" />
<glyph unicode="]" horiz-adv-x="679" d="M109 -438q0 33 20.5 43t45 21.5t45 31.5t20.5 76l16 2230q0 55 -20.5 75.5t-45 32t-45 21.5t-20.5 43q0 20 22.5 23.5t85.5 3.5q20 0 45 -3t52 -3q29 0 58.5 3t57.5 3q18 0 33 -10.5t15 -45.5l-17 -2517q0 -35 -14 -45t-33 -10q-29 0 -58.5 3t-58.5 3q-27 0 -51 -3 t-45 -3q-63 0 -85.5 3t-22.5 24z" />
<glyph unicode="^" horiz-adv-x="835" d="M-8 1290l12 35q27 27 63.5 78t77.5 109.5t85 117t85 99.5q16 27 40 46t55 19q16 0 32 -8q27 -8 50 -35q43 -37 89 -96.5t90 -122t84 -118.5t68 -85l13 -35l-50 -16q-25 12 -68.5 38.5t-96 62.5t-107.5 74t-100 73q-47 -35 -101.5 -74t-106.5 -75t-96 -63.5t-69 -39.5z " />
<glyph unicode="_" horiz-adv-x="1024" d="M0 -16h1024v-125h-1024v125z" />
<glyph unicode="`" horiz-adv-x="466" d="M53 1901q0 41 37 81q45 49 103 50q80 0 139 -201q92 -324 119 -379v-37h-52q-39 39 -86 94.5t-106 130.5q-154 197 -154 261z" />
<glyph unicode="a" horiz-adv-x="1519" d="M0 588q0 233 244 495q258 279 530 279q55 0 170 -78t164 -78q63 0 184 97h39v-39q-76 -90 -127 -177q-59 -96 -59 -206v-441q0 -131 117 -176q119 -45 118 -59l-141 -96q-147 -98 -162 -99q-57 0 -110 68l-115 147q-6 0 -174 -112q-168 -113 -189 -113q-145 0 -303 152 q-186 180 -186 436zM274 745q0 -133 144 -319q106 -141 248 -141q55 0 112 22l64 27v391q12 16 22 30.5t19 28.5q23 35 49 84.5t57 110.5v-29q-23 12 -49 13q-18 0 -32.5 -4.5t-26.5 -8.5q-82 0 -187 99q-104 98 -166 98q-96 0 -166 -98q-67 -95 -67 -222q0 -10 -10.5 -35.5 t-10.5 -46.5z" />
<glyph unicode="b" horiz-adv-x="1423" d="M0 1823q68 39 119 66.5t86 45.5q207 113 225 113q35 0 52.5 -7t17.5 -32q-35 -23 -66 -65q-33 -47 -33 -132v-647q20 2 77 28t151 73q188 96 241 96q115 0 269 -172t153 -307v-88q0 -98 -73.5 -214t-229.5 -257q-74 -53 -130 -94.5t-95 -67.5q-231 -162 -275 -162 q-170 0 -292 229q-20 39 -43 96.5t-48 135.5v1165q0 53 -71 131q-35 39 -35 66zM420 539q0 -80 104 -187q104 -106 162 -106q84 0 199 129q115 131 114 203v157q0 115 -122 250q-129 141 -250 141q-57 0 -140 -53q-20 -12 -67 -53v-481z" />
<glyph unicode="c" horiz-adv-x="1189" d="M0 559v223q0 166 170 365q186 215 399 215q31 0 76 -9.5t105 -33.5l108 -45h78q16 0 35 12q45 29 61 29q49 0 49 -41q0 -45 -92 -139q-109 -111 -198 -111q-92 0 -273 78q-86 39 -143 39q-96 0 -168 -90q-53 -70 -53 -113v-107q0 -125 165 -299q174 -184 318 -184h125 q33 0 65.5 14.5t65.5 36t64.5 49t64.5 54.5h59v-125q0 -102 -147 -232q-170 -145 -356 -145q-268 0 -441 225q-137 180 -137 334z" />
<glyph unicode="d" horiz-adv-x="1466" d="M0 520v185q0 121 129 286q109 139 260 254q150 117 217 117h137q20 0 55.5 -14.5t102.5 -53.5l29 29v313q0 76 -56 123q-53 43 -53 64l207 112q211 113 246 113q57 0 57 -39q-16 -16 -28.5 -29.5t-20.5 -23.5q-49 -66 -49 -123v-1579q0 -18 39 -102q41 -88 41 -103 q0 -49 -39 -49q-6 0 -21.5 7t-36 16.5t-47 17.5t-53.5 8q-43 0 -74 -12q-66 -27 -84 -27q-29 0 -38 21.5t-9 56.5q8 27 9 55q0 23 -9 54q-117 -84 -210 -140.5t-193 -56.5q-150 0 -324 174q-184 180 -184 346zM225 725q63 -176 164 -295q109 -127 266 -127h88q47 0 95 31 l82 78v528q-86 88 -181 150q-102 67 -180 67h-2q-141 0 -227 -106q-86 -104 -86 -256v-50q-16 -12 -19 -20z" />
<glyph unicode="e" horiz-adv-x="1228" d="M0 549v264q0 160 166 348q178 201 354 201h98q68 0 283 -129q217 -129 217 -156q0 -25 -155 -129q-61 -41 -136 -88t-165 -98l-201 -115q-92 -53 -139.5 -80.5t-47.5 -38.5q29 -35 52.5 -62.5t46.5 -43.5q133 -109 293 -109q129 0 225 74l158 162q27 0 34 -17.5t7 -50.5 q0 -156 -170 -319q-168 -162 -312 -162h-137q-135 0 -303 190q-168 188 -168 359zM176 774q16 -8 21 -47q2 -35 49 -80q14 18 168 109q84 47 165.5 96t165.5 98q-94 45 -225 211q-43 53 -108 53q-78 0 -140 -73q-25 -43 -49 -86t-47 -86v-195z" />
<glyph unicode="f" horiz-adv-x="1040" d="M0 975q0 45 49 147t88 135v254q0 172 187 353q186 184 329 184h78q35 -6 62.5 -12t44.5 -11q108 -34 108 -75q-47 -78 -74 -117q-41 -59 -67.5 -95t-42.5 -50q-23 23 -47.5 42t-46.5 35q-72 49 -111 50h-119v-519q20 -12 60 -12q20 0 73 6q51 6 82 6q41 0 73 7.5t54 25.5 l88 76q14 0 37 -39l13 -20q-29 -59 -53.5 -102.5t-43.5 -72.5q-115 -176 -196 -176h-195v-712q0 -106 43 -168q43 -61 43 -66q0 -20 -12 -33q-4 -6 -27 -16q-10 0 -102 27l-43 12h-88q-16 0 -51 -19.5t-87 -19.5q-39 0 -38 39q0 29 47 92q23 29 22 53v801q-63 0 -65 -31 q-4 -29 -33 -28q-10 0 -24.5 14t-14.5 35z" />
<glyph unicode="g" horiz-adv-x="1433" d="M0 -254l135 102q143 106 178 123q27 -147 168 -231q104 -61 193 -62q100 0 219 95q129 100 129 215v102l-25 90q-14 51 -25 86t-20 56q-102 -133 -215 -222q-121 -100 -266 -100q-201 0 -342 168q-129 154 -129 334v98q0 193 150 381q125 158 313 274q170 106 268 107 h103q23 0 141 -29q18 -4 46 -11t64 -17q4 0 84 28q12 4 31 11.5t45 17.5q14 -10 23 -16q25 -23 24 -41q-27 -45 -49 -86t-43 -78q-45 -82 -45 -142v-137q0 -27 17.5 -92t56.5 -174q76 -217 76 -244v-215q0 -184 -252 -407q-262 -231 -514 -232h-88q-141 0 -304 105 q-147 94 -147 143zM293 803q0 -186 88 -324q113 -178 221 -178h100q31 20 53.5 35.5t37.5 25.5q90 72 90 127q0 35 -21 84q-18 51 -18 72v86q0 92 78 223q65 109 90 121q-49 -31 -95.5 -47t-105.5 -16q-66 0 -170 41q-102 43 -139 43q-76 0 -144 -92q-66 -90 -65 -201z" />
<glyph unicode="h" horiz-adv-x="1429" d="M-20 1802l223 123q115 63 175 93t68 30q49 0 50 -45q-47 -59 -84 -107.5t-37 -103.5q0 -59 -3 -113.5t-14 -93.5q4 -55 5.5 -110.5t5.5 -110.5q2 -53 4 -93t2 -65v-73q0 -29 -5 -46.5t-12 -27.5h37q61 12 275 160q210 149 233 149q20 0 107 -90q111 -113 176 -242 q92 -178 92 -354v-129q0 -244 -184 -504q-164 -231 -400 -397q-227 -160 -377 -160h-116q-29 0 -45.5 22.5t-16.5 39.5q0 29 97 51q279 68 477 254q88 80 161 260q76 178 76 315v111q0 160 -98 350q-97 192 -165 192h-1q-6 0 -72 -34q-152 -84 -239 -154v-661q0 -63 35 -121 q16 -29 26 -48.5t10 -29.5q0 -25 -15 -32t-36 -7l-65 18q-41 12 -76 16.5t-64 4.5q-23 0 -63.5 -10.5t-67.5 -28.5h-59v78q12 18 24.5 36.5t26.5 37.5q16 39 17 86v1448q0 27 -60 73q-29 23 -28 43z" />
<glyph unicode="i" horiz-adv-x="684" d="M0 1151q31 35 186 123q150 88 170 88q53 0 117 -125q10 -20 24.5 -52t30.5 -73v-887q0 -33 7.5 -61.5t25.5 -52.5q20 -29 35.5 -48.5t24.5 -31.5v-31h-498v41l51 102q29 57 29 123v729q0 61 -36 83t-95 22q-33 0 -72 51zM266 1769q0 86 44 131.5t110 45.5 q33 0 64.5 -13.5t54 -35t37 -49t14.5 -58.5q0 -53 -82 -178q-90 -135 -152 -135q-29 0 -59 102q-31 104 -31 190z" />
<glyph unicode="j" horiz-adv-x="696" d="M-10 -561q0 33 33 33q25 0 57 -17l33 -16q63 37 98 61q100 76 100 146v94q0 12 -69 149q-33 63 -33 111v938q0 53 -24.5 88t-78.5 45l-106 21v30q4 33 182 135l180 105q135 0 160 -275q4 -45 6 -119.5t2 -179.5v-643q0 -100 29 -233q8 -43 31 -111v-94q0 -43 -55 -123 q-136 -198 -359 -198h-2h-125q-23 0 -41 20.5t-18 32.5zM195 1458v41l131 301q29 66 67.5 95.5t83.5 29.5q59 0 103 -49q43 -49 43 -90q0 -66 -164 -180l-207 -148h-57z" />
<glyph unicode="k" horiz-adv-x="1419" d="M0 1772q0 29 45 43q141 47 170 75q49 45 123 92q88 55 123 56q16 0 37.5 -14.5t21.5 -34.5q-43 -23 -75.5 -80.5t-32.5 -155.5v-719h49q45 41 217 148q217 137 287 137q59 0 59 -49q0 -25 -16 -29q-14 -2 -15 -41q31 -47 55.5 -94t24.5 -102q0 -80 -94 -138 q-94 -57 -94 -80q18 -12 42.5 -34.5t50.5 -62.5t50.5 -98.5t44.5 -137.5q16 -66 32.5 -112t33.5 -69q46 -65 146 -65h3v-39q0 -31 -131 -107q-23 -12 -55.5 -30.5t-77.5 -40.5q-41 0 -83 39t-73 121l-114 299q-63 161 -135 161h-1q-27 0 -67 -20q-63 -33 -139 -98v-295 q0 -23 34 -76q35 -53 35 -72v-39h-88q-37 16 -81 32.5t-66 16.5q-14 0 -51 -16l-97 -43h-41v68q18 39 32.5 77.5t24 68.5t15.5 49.5t8 21.5v1319q0 20 -69 90q-68 70 -68 78zM422 659q39 10 93 41t126 78q156 101 156 148q0 14 -25 45q-24 30 -24 106v6h-31l-295 -198v-226z " />
<glyph unicode="l" horiz-adv-x="577" d="M0 1790q66 43 118 74.5t87 54.5q215 129 270 129q20 0 33 -12q6 -4 16 -27q-18 -20 -31.5 -35.5t-21.5 -27.5q-55 -78 -55 -125v-1504q0 -160 51 -217q27 -29 27 -61q0 -25 -13.5 -32t-36.5 -7q-6 0 -79 29q-70 30 -97 30h-2q-45 0 -102.5 -19.5t-114.5 -39.5h-39v70 q25 25 51 102q27 74 27 104v1366q0 55 -59 103q-29 23 -29 45z" />
<glyph unicode="m" horiz-adv-x="2357" d="M0 1098q0 43 150 155q25 18 61.5 46t87.5 63q55 0 152 -148q16 -25 35.5 -61.5t45.5 -85.5l404 295q70 0 197 -141q20 -23 48.5 -60t63.5 -84l434 295q100 -45 199 -160q106 -121 107 -215v-573q0 -152 34 -205q20 -33 70 -33q37 0 43 -6q10 -10 10 -33q0 -14 -119 -96 q-115 -82 -127 -82q-53 0 -147 107q-92 106 -92 182q4 27 7 86t7 156q4 96 6 202.5t2 225.5q0 47 -51 110q-57 76 -117 76q-23 0 -149 -82q-129 -80 -129 -104v-721q0 -4 7 -22.5t24 -51.5q16 -31 28.5 -56.5t22.5 -45.5q-23 -12 -33 -13q-10 0 -12 7q-4 6 -6 6 q-29 0 -57.5 2t-57.5 12q-10 2 -20.5 6t-22.5 8l-53 -10q-29 -6 -55.5 -16t-51.5 -23h-57v39q18 61 32.5 128t14.5 120v621q0 82 -72 141q-59 49 -104 49q-39 -23 -66.5 -40t-46.5 -32q-115 -84 -115 -118v-682q0 -98 33 -138q35 -41 35 -57q0 -41 -37 -41q-12 0 -98 39 q-43 20 -90 20q-16 0 -74 -24q-59 -25 -84 -25q-27 0 -39 4q-12 6 -12 35q23 31 41 88.5t18 149.5v661q0 43 -41 96t-84 54q-29 0 -50 -5.5t-38 -9.5q-12 0 -12 15z" />
<glyph unicode="n" horiz-adv-x="1636" d="M0 1163q0 10 33 40t100 73l133 86q41 0 82 -29.5t76 -93.5l100 -176l480 289q102 -41 206 -164q109 -133 109 -242v-559q0 -184 84 -188t84 -39q0 -14 -127 -99q-41 -29 -129 -79q-23 0 -123 81q-115 96 -115 156v637q0 80 -32 125q-33 49 -148 131l-299 -174v-739 q0 -98 33 -119q18 -12 18 -49v-31h-71q-8 8 -27 16q-63 33 -139 33q-55 0 -150 -49h-39q-2 10 -3 17.5t-1 15.5q4 8 4 16q0 25 33 111q35 92 35 108v707q0 96 -105 133q-102 35 -102 55z" />
<glyph unicode="o" d="M0 553v131q0 190 184 428q195 250 379 250h113q168 0 348 -186q205 -211 205 -492q0 -272 -242 -494q-209 -190 -377 -190q-266 0 -456 231q-154 186 -154 322zM190 848q0 -180 222 -385q219 -205 397 -205q74 0 131 53l98 138v133l-82 143q-47 80 -99 143.5t-105 110.5 q-154 135 -324 135q-92 0 -166 -80q-72 -78 -72 -186z" />
<glyph unicode="p" horiz-adv-x="1488" d="M0 1096v59q14 14 137 100q139 96 162 97q49 0 92 -70l105 -176l409 256q143 -55 279 -209q168 -188 168 -387v-80q0 -225 -222 -461q-213 -225 -385 -225h-81q-6 0 -97 47q-49 27 -100 43v-459q0 -10 15.5 -39.5t43.5 -58.5v-72h-51q-35 14 -58.5 22.5t-33.5 12.5 q-55 16 -96 17q-35 0 -81 -15.5t-75 -15.5h-53v61q14 10 23.5 19.5l17.5 17.5q51 53 51 178v412q-27 -4 -45 -14q-33 -16 -52.5 -24.5t-23.5 -10.5q-12 20 -12 33q0 6 6 10q6 2 6 6q0 84 60 115q61 33 61 73v596q0 88 -45 119q-35 23 -125 23zM506 453q74 -18 147 -64 q106 -66 191 -153h121l120 133q58 82 58 215q0 184 -105 323q-74 96 -198 166q-88 47 -107 47l-22 -18q-35 -29 -80 -53.5t-103 -53.5l-6 -231h-16q2 -6 4 -52t2 -106q0 -61 -6 -100v-53z" />
<glyph unicode="q" horiz-adv-x="1474" d="M0 545v121q0 162 139 335q117 147 293 254q174 106 283 107h121q45 0 114.5 -36t143.5 -75q16 0 57 54q35 45 72 75h49v-1677q-2 -8 -2 -15v-14q0 -37 13 -71.5t58 -77.5v-31q-16 -6 -26 -6q-16 0 -21 2q-2 2 -2 4q-51 0 -95 15.5t-85 15.5q-72 0 -127 -25 q-51 -26 -71 -26h-1q-20 0 -29.5 16t-9.5 35q0 31 35 65q35 35 35 82v527q-43 -10 -180 -107q-127 -92 -238 -92q-211 0 -379 211q-147 184 -147 334zM330 768q0 -113 102 -252q133 -176 334 -176q61 0 119 22q18 8 112 58v256h19l-19 10v41l19 23l-19 18v180q0 82 -131 164 q-127 82 -239 82q-127 0 -219 -104q-78 -90 -78 -164v-158z" />
<glyph unicode="r" horiz-adv-x="1163" d="M0 1126q0 23 131 127q131 106 152 107q33 -14 45 -25q104 -72 170 -200q25 6 108 114q76 100 187 101q29 0 135 -27q111 -29 129 -51l-275 -402h-28q-4 20 -4 50q0 16 2 45.5t2 42.5q0 41 -17 61q-20 27 -82 27q-35 0 -86 -56q-51 -53 -51 -92v-753q0 -45 43 -84 q45 -43 45 -72q0 -25 -13 -32t-36 -7q-31 20 -75 38.5t-101 18.5q-70 0 -117 -18.5t-98 -38.5h-25l-24 39q16 20 28.5 34.5t20.5 24.5q49 68 49 107v735q0 90 -68 131z" />
<glyph unicode="s" horiz-adv-x="1296" d="M0 338q0 74 51 127q51 57 113 57q33 0 88 -26q37 -16 37 -33q0 -16 -25 -31q-53 -35 -53 -123q0 -90 92 -147q92 -55 217 -56q156 0 266 113q111 113 111 254q0 88 -61 160t-142 72q-61 0 -106 -62q-37 -53 -37 -84q0 -23 11 -36t18 -21v-39q-221 0 -359 112 q-102 84 -147 216q-10 33 -18.5 63.5t-16.5 63.5q2 20 18 38q0 186 125 299q113 106 281 107q104 0 203.5 -39t203.5 -78q18 0 43 29t52 29h49v-29l-88 -154q-53 -96 -154 -96h-86q-45 0 -192 86q-145 88 -224 88q-35 -16 -47 -29q-49 -47 -49 -127t94 -153q106 -86 262 -86 q33 0 160 92q57 43 111 43h78q90 0 186 -90q113 -104 113 -240v-106q0 -170 -183 -328q-201 -174 -483 -174q-197 0 -340 80q-172 94 -172 258z" />
<glyph unicode="t" horiz-adv-x="960" d="M0 1024v90q45 106 117 184q23 27 22 43v230q0 199 31 239q23 29 250 138h29v-588h198q76 0 117 24l72 56q10 0 24 -17.5t14 -44.5q0 -195 -212 -284q-72 -29 -213 -50v-520q0 -143 92 -205q63 -43 166 -43q18 0 36.5 1.5t30.5 3.5q33 0 47.5 -9.5t14.5 -33.5 q0 -12 -181 -125q-180 -113 -206 -113q-43 0 -177 106q-154 119 -153 211v748q-16 2 -30.5 -3t-26 -14.5t-19.5 -16.5t-12 -7q0 4 2 6q-2 2 -33 -6z" />
<glyph unicode="u" horiz-adv-x="1609" d="M0 1139q0 20 164 123q164 100 180 100q23 0 72 -66q63 -84 63 -196v-238q-10 -14 -14 -16q-14 -8 -14 -33v-217q0 -137 71 -240q79 -110 203 -110h2q41 0 131 59q104 70 105 133v740q0 12 -13 41q-10 18 -23.5 39.5t-33.5 44.5v40h49q47 0 70.5 -10t50.5 -20h117 q10 0 53 18q41 20 61 21q25 0 32 -13.5t7 -35.5q-25 -37 -41 -78q-14 -35 -25.5 -76t-21.5 -88v-660l53 -125q33 -8 74 -17t92 -23v-41q-135 -100 -213 -152q-66 -45 -82 -45q-59 0 -206 248l-404 -248q-86 20 -233 135q-170 133 -170 219v666q0 53 -18.5 71.5t-49.5 18.5 q-14 0 -32.5 -2t-20.5 -2q-35 0 -35 35z" />
<glyph unicode="v" horiz-adv-x="1376" d="M0 1155q0 25 158 115l159 92q25 0 76 -64q66 -84 66 -180v-520q0 -145 145 -242q45 -31 148 -67q82 88 122 147q123 180 123 340q0 84 -61 189q-61 106 -129 106h-105q-2 4 -15 20.5t-13 26.5q0 23 190 156q99 69 132 69h1q37 0 131 -94q121 -121 121 -254v-73 q0 -63 -43 -181q-66 -172 -180 -303q-10 -10 -22.5 -24.5t-28.5 -34.5q-68 -86 -129.5 -169t-155.5 -171l-43 -41q-12 0 -119 57q-135 74 -221 154q-121 115 -121 221v526q0 102 -34 138q-24 24 -72 24h-4h-33q-43 0 -43 37z" />
<glyph unicode="w" horiz-adv-x="2170" d="M0 1159q0 23 141 113q145 90 174 90q29 -23 50.5 -42.5t35.5 -35.5q86 -98 86 -203q39 2 230 138q188 133 221 133q47 0 158 -121q127 -139 127 -264v-459q0 -82 116 -182q98 -86 125 -86t133 155q125 180 125 314v114q0 121 -100 191l-223 114q0 10 151 121 q150 113 181 113q39 0 131 -105q110 -126 110 -251q0 -117 -63 -263q-61 -150 -160 -274q-86 -113 -167 -225.5t-167 -225.5q-28 -36 -61 -36h-2q-47 0 -230 131q-205 143 -204 223v469q0 102 -31 192q-41 121 -121 121l-258 -160v-718q0 -74 37 -131q39 -57 39 -70 q0 -20 -15.5 -29.5t-31.5 -9.5q-27 0 -62 14q-92 35 -141 35q-23 0 -44.5 -8t-42 -17.5t-40 -16.5t-35.5 -7q-14 0 -35.5 14.5t-21.5 34.5q16 23 29.5 41.5t21.5 32.5q53 84 53 125q0 8 -2 8l-18 -8q14 26 14 88v16q-2 76 -5 146.5t-5 142.5t-3 146.5t-1 160.5q0 76 -34 115 t-120 39q-16 0 -30.5 15.5t-14.5 41.5z" />
<glyph unicode="x" horiz-adv-x="1617" d="M0 133q0 8 82 121q14 18 34.5 47t49.5 68h47q0 -57 20.5 -96.5t67.5 -39.5q70 0 188 175q113 162 113 204q0 18 -55 127q-37 72 -74 130.5t-76 99.5q-113 121 -218 121h-3q-20 0 -51 -4.5t-55 -4.5q-33 0 -33 9q0 29 147 145q147 117 164 117q63 0 156 -74 q131 -109 264 -326q53 96 99 172t90 129.5t88.5 81t93.5 27.5q14 0 88 -27q33 -12 67 -12q27 0 45.5 14.5t32.5 24.5h29q0 -2 18 -33q11 -20 11 -26q0 -80 -74 -168q-59 -74 -142 -74q-33 0 -80 12t-94 27q-37 0 -116 -90q-88 -96 -88 -174q0 -74 151 -318 q166 -266 258 -266h98q12 0 30 5t20 5q16 0 16 -39q0 -16 -113 -121q-118 -112 -167 -112h-1q-162 0 -262 131q-53 72 -123 241q-53 133 -94 134q-111 -195 -209 -338q-109 -158 -217 -158q-55 0 -131 37q-92 45 -92 96z" />
<glyph unicode="y" horiz-adv-x="1394" d="M0 1159q0 10 139 107l140 96q49 0 139 -121q92 -121 92 -168v-534q0 -106 61 -189q61 -84 131 -84q23 0 69 62.5t116 191.5l139 258v189q0 94 -115 123q-113 27 -112 53q0 27 151 117l152 92q53 0 112 -78q51 -70 52 -125v-96q0 -57 -40 -157.5t-128 -242.5l-314 -501 q-86 -137 -128 -226.5t-42 -130.5q0 -84 86 -98q88 -14 88 -45q0 -27 -129 -98l-131 -74q-10 0 -53 65q-43 63 -43 99v77q0 47 55 140q72 121 80 139q-184 106 -202 123q-143 106 -144 223v621q0 80 -48 116.5t-134 36.5q-12 0 -25.5 11.5t-13.5 27.5z" />
<glyph unicode="z" horiz-adv-x="1325" d="M0 989q0 66 92 205q113 168 242 168h137q10 0 64.5 -11.5t152.5 -33.5q102 -23 156 -23q68 6 102 13q113 18 152 45h80v-58q-2 0 -189 -223q-113 -135 -202 -242.5t-154 -189.5q-195 -240 -211 -287q131 -27 212 -43t116 -22q35 -8 58 -10.5t36 -2.5h117q41 0 112 72 q70 74 84 74q16 0 32.5 -9.5t16.5 -17.5q0 -84 -159 -233q-170 -160 -283 -160q-53 0 -135 25q-190 55 -207 55h-158q-35 0 -92 -31q-59 -31 -92 -31q-39 0 -39 41q0 8 29.5 51.5t95.5 120.5l285 347q35 41 58 78.5t46 66.5l119 145l188 230h-37l-166 -56q-158 -53 -198 -53 h-109q-63 0 -110 53q-16 20 -31.5 41t-32.5 43q-59 -47 -78 -122q-16 -74 -59 -74q-8 4 -12 8t-9 8q-20 20 -20 43z" />
<glyph unicode="{" horiz-adv-x="737" d="M43 860q0 25 15.5 34t58.5 13q82 6 130 47t48 107q0 35 -14.5 85t-53.5 148q-20 55 -38.5 147.5t-32 186.5t-20.5 173t-7 104q0 164 172 276q70 49 107 49h7t11 -2t24.5 -5t47.5 -9q20 -4 44.5 -5t49.5 -1q12 0 27.5 2t44.5 8q27 6 41 6q20 0 20 -24q0 -18 -13.5 -43 t-56.5 -84q-31 -45 -55.5 -59.5t-62.5 -14.5q-20 0 -34 3t-52 19l-70 25q-27 10 -33 10q-18 0 -34.5 -31.5t-16.5 -66.5q0 -20 8 -90t30.5 -169.5t63.5 -219t107 -240.5q29 -55 41 -88t12 -55q0 -76 -67.5 -133.5t-217.5 -108.5q57 -14 108.5 -46t90.5 -75t62.5 -92 t23.5 -96q0 -25 -6 -93.5t-18.5 -151.5t-30 -167t-39.5 -141q-37 -98 -51.5 -147.5t-14.5 -82.5q0 -49 43 -80.5t136 -50.5q47 -10 59 -16t12 -29q0 -45 -53 -45q-25 0 -67 8.5t-90 22.5t-99 33.5t-94 40.5q-109 53 -109 127q0 18 5 51t17.5 86t34 129t56.5 178 q20 63 42.5 126t39 115t28 92t11.5 56q0 31 -26 67t-63.5 66.5t-83.5 52t-85 23.5q-41 2 -55.5 11.5t-14.5 33.5z" />
<glyph unicode="|" horiz-adv-x="1024" d="M377 -406v2235h174v-2235h-174z" />
<glyph unicode="}" horiz-adv-x="737" d="M6 2202q0 25 23 24q10 0 41 -6q29 -8 43 -9t26 -1q25 0 50.5 1t43.5 5q31 6 47.5 9t24.5 5t12.5 2h8.5q35 0 106 -49q84 -55 128 -125.5t44 -150.5q0 -25 -7 -104t-21.5 -173t-33 -187t-38.5 -149q-39 -96 -52.5 -147t-13.5 -84q0 -66 47 -107t131 -47q43 -4 57.5 -13 t14.5 -34t-13 -34t-54 -11t-86.5 -23.5t-84 -52t-63.5 -66.5t-25 -67q0 -16 11.5 -56t28 -92t38 -114.5t41.5 -126.5q35 -102 57.5 -178t35 -129t16.5 -86t4 -51q0 -76 -109 -127q-43 -20 -93 -40t-99 -34t-91 -22.5t-67 -8.5q-53 0 -53 45q0 23 12 29t62 16q92 18 135 49 t43 82q0 33 -15.5 82.5t-52.5 147.5q-23 57 -39 141t-28.5 167t-18.5 151.5t-6 93.5q0 47 23.5 96t62.5 92t90 75t107 44q-147 53 -215 110.5t-68 133.5q0 23 11.5 55.5t41.5 87.5q63 121 104.5 241t64 219t30.5 167.5t8 91.5q0 35 -16.5 66.5t-32.5 31.5q-6 0 -35 -10 l-67 -25q-41 -16 -54.5 -19t-31.5 -3q-41 0 -64.5 14.5t-56.5 59.5q-43 59 -56.5 82.5t-13.5 44.5z" />
<glyph unicode="~" horiz-adv-x="1167" d="M104 1526q27 125 129 211q100 88 191 88q16 0 22 -2l140 -25q55 -25 109.5 -46t88.5 -28q8 -2 25 -2q53 0 95 29t71 76l57 -10q0 -27 -2 -33q-8 -18 -10 -33q-18 -106 -123 -223q-104 -115 -195 -115q-16 0 -20 2l-94 17q-8 2 -37 14t-80 39q-53 27 -80 31q-12 2 -38.5 9 t-67.5 19q-80 25 -117 25q-27 0 -43.5 -9t-20.5 -34z" />
<glyph unicode="&#xa1;" horiz-adv-x="763" d="M305 -502q0 12 19 35q29 31 38 43t17 35q6 20 9 37.5t3 42v60.5t2 89l15 469v344q0 25 3 48.5t4 45t-4 41t-22 35.5q-12 12 -12 25q0 10 11 23.5t42 35.5q27 20 43 24.5t31.5 7.5t31 10t37.5 32q23 25 30 40t22 15q12 0 20 -10t8 -22t-10 -43q-6 -23 -7 -33t1 -22.5 t5 -35t3 -69.5l2 -518l15 -471q0 -33 1 -52.5t4 -34t9 -26.5t16 -27q10 -14 10 -26q0 -16 -15 -26.5t-58 -22.5q-29 -10 -56.5 -24.5t-44.5 -18.5l-151 -60q-16 -6 -28.5 -13t-18.5 -7q-25 0 -25 24zM344 1319q-18 84 14.5 137t98.5 70q33 6 64.5 1t59 -21.5t48 -40 t26.5 -54.5q12 -49 -53 -158q-31 -53 -50.5 -67.5t-49.5 -22.5q-8 -2 -20.5 -4t-26 -2t-27.5 5t-25 20q-41 57 -59 137z" />
<glyph unicode="&#xa2;" horiz-adv-x="1107" d="M49 680q31 166 125 252l225 196l121 -47l2 232l162 80l-4 -349q59 -16 117.5 -22t113.5 4q-16 -37 -26.5 -69.5t-18.5 -67.5t-13 -77t-9 -93q-31 4 -50.5 6t-29.5 2q-20 -2 -43 -1t-51 -3l4 -397q53 -4 100 -3t90 5q86 12 223 49q-123 -106 -241 -348q-16 -4 -58.5 -7.5 t-107.5 -5.5l-16 -133l-177 -98l13 250q-72 16 -138.5 48t-128.5 81q-59 49 -99 101t-62 108q-53 137 -23 307zM194.5 771q-4.5 -48 18.5 -107q33 -84 97.5 -151t193.5 -136l8 381l-272 96q-41 -35 -45.5 -83z" />
<glyph unicode="&#xa3;" d="M55 649l54 162h157q29 213 52.5 345t41.5 183q100 279 371 279q127 0 239.5 -85t192.5 -249q-66 -14 -111.5 -35.5t-99.5 -68.5q-80 270 -219 270q-55 0 -106 -221q-53 -219 -54 -447h267l-52 -166h-233q0 -29 -2 -89t-6 -160t-6 -162t-2 -94h422q0 197 172 348 q69 -108 196 -223q-74 -29 -112 -89q-49 -72 -50 -178q-18 10 -37.5 18.5t-56.5 20.5h-919l43 109l53 532h-195z" />
<glyph unicode="&#xa7;" horiz-adv-x="1239" d="M29 -547q59 84 86 139q18 39 27.5 77t11.5 73q172 -4 346 -86q74 -37 150.5 -92.5t154.5 -124.5q20 0 40.5 14.5t38 38t28 52t10.5 57.5q2 86 -226 190q-184 86 -288.5 139.5t-135.5 75.5q-227 158 -225 365q4 152 158 262q53 37 153 82q-137 76 -223 198q-68 98 -67 193 q2 178 165 291q41 29 136.5 74t244.5 104l43 39q117 -104 229.5 -160.5t243.5 -60.5q-57 -66 -83 -123q-39 -82 -39 -164l-86 51q-74 10 -136.5 31.5t-118 56.5t-108.5 86t-108 123q-113 -23 -113 -145q-4 -170 225 -271q106 -47 214 -89t214 -87q233 -129 228 -354 q-4 -162 -74 -236q-55 -59 -221 -131q131 -39 205.5 -144.5t72.5 -252.5q-4 -207 -237 -311q-150 -70 -239 -123t-118 -94q-43 51 -99 96t-119.5 79t-132.5 54t-134 23zM322 563q-4 -133 260 -280q51 -29 106 -54.5t115 -48.5q66 10 99.5 47t35.5 105q0 90 -227 217 l-281 156q-29 -16 -47 -29.5t-29 -24.5q-29 -35 -32 -88z" />
<glyph unicode="&#xa9;" horiz-adv-x="1466" d="M25 678q0 291 204 496q205 209 500 208q293 0 498 -204q207 -203 207 -500q0 -291 -205 -496q-203 -207 -500 -207q-289 0 -498 203q-207 203 -206 500zM123 678q0 -248 176 -430q174 -178 430 -178q244 0 426 176q180 178 180 432q0 252 -176 428q-176 178 -430 178 q-248 0 -428 -178q-178 -176 -178 -428zM365 633q0 129 77 268q25 45 80 111l101 -2q41 -2 80.5 5t80.5 21q14 4 30.5 11.5t39.5 17.5q45 -39 103.5 -77t119.5 -66l-243 -170q-66 0 -66 49q0 33 35 33q10 0 24 -9q2 0 4 -2q2 -4 13 -6l22 6l2 19l-176 137q-2 2 -12 2h-10 q-14 0 -52 -10q-61 -145 -61 -301q0 -158 43 -246q51 -104 162 -105q63 0 112.5 35t49.5 95q0 23 -7.5 39t-39.5 47q31 41 81 40q35 0 59.5 -22.5t24.5 -67.5q0 -88 -76.5 -145t-199.5 -57q-184 0 -287 77q-115 90 -114 273z" />
<glyph unicode="&#xab;" horiz-adv-x="1060" d="M39 709q74 51 139.5 123.5t112.5 164.5h250q-29 -41 -63 -78.5t-68 -76.5q-59 -61 -146 -129l221 -371l-79 -53q-20 -16 -55.5 -45t-82.5 -70zM494 709q145 109 247 288h254q-63 -86 -125.5 -150.5t-152.5 -133.5l215 -371q-20 -14 -42 -29.5t-44 -33.5l-129 -105z" />
<glyph unicode="&#xad;" horiz-adv-x="1167" />
<glyph unicode="&#xae;" horiz-adv-x="1515" d="M37 678q0 291 205 496q205 209 499 208q293 0 498 -204q207 -203 207 -500q0 -291 -205 -496q-203 -207 -500 -207q-289 0 -497 203q-207 203 -207 500zM135 678q0 -248 176 -430q174 -178 430 -178q244 0 426 176q181 178 181 432q0 252 -177 428q-176 178 -430 178 q-248 0 -428 -178q-178 -176 -178 -428zM389 303l17 43v698l-11 23l21 -4q111 0 205 6t176 16h28q111 0 191 -55q90 -66 90 -166q0 -88 -60.5 -148.5t-154.5 -74.5l-4 -8q0 -96 55 -189q57 -92 135 -92q33 0 56 17q6 2 12 18l8 -4q0 -51 -41 -84t-102 -33q-141 0 -223 104.5 t-105 291.5l-78 51v-367l14 -43h-229zM606 788q14 0 25.5 10.5t15.5 14.5q35 0 55.5 -5t26.5 -24q-16 0 -33.5 -17t-17.5 -34q0 -23 25.5 -42t58.5 -19q27 0 53.5 12t48 35.5t34.5 54.5t13 68q0 39 -11 74.5t-31.5 61.5t-47 41t-57.5 13l-158 -8v-236z" />
<glyph unicode="&#xb0;" horiz-adv-x="634" d="M23 1565q0 55 8 110.5t51 104.5t96 65.5t107 26.5l106 -33q18 -10 34.5 -17t33.5 -14q20 -8 57 -51q27 -33 43 -45q6 -31 10 -67.5t4 -81.5q0 -66 -11 -115t-44 -119l-57 -37q-10 -8 -33 -16q-18 -8 -48 -19.5t-77 -21.5q-33 6 -54.5 15.5t-38.5 19.5t-35.5 22.5 t-45.5 28.5q-45 41 -75.5 107.5t-30.5 136.5zM105 1563.5q-1 -7.5 1.5 -17.5t10.5 -23.5t26 -31.5q39 -41 66 -64.5t86 -35.5q25 -6 40 -9.5t31.5 -1.5t37 11.5t51.5 29.5q4 12 13 33.5t5 56.5v19.5t-5 25t-16.5 32t-35.5 40.5q-43 41 -83 57.5t-71 26.5l-39 12 q-18 -4 -35.5 -8t-46.5 -22q-4 -6 -11 -20.5t-13 -32t-9.5 -35t-1.5 -31.5q0 -4 -1 -11.5z" />
<glyph unicode="&#xb1;" horiz-adv-x="1097" d="M63 82l130 180l841 8l-131 -188h-840zM63 803l130 178h272v358l176 123h43v-473h350l-131 -186h-219v-357l-264 -122l45 122v357h-402z" />
<glyph unicode="&#xb6;" horiz-adv-x="1699" d="M227 604q0 106 28 207.5t77 191t119.5 163t156.5 126.5q47 29 93.5 48.5t96.5 31.5t107.5 17.5t124.5 5.5h588q31 0 39 -7.5t8 -29.5v-51q0 -27 -6 -32t-35 -5h-256q-37 0 -47 -10.5t-10 -53.5v-1181q0 -39 10 -47.5t55 -8.5h236q35 0 44 -5t9 -23v-64q0 -18 -8 -25.5 t-35 -7.5h-635q-154 0 -260 28t-199 95q-47 35 -86 74t-71 86q-70 100 -107 226t-37 251zM944 188q0 -70 5 -113.5t22.5 -68t47.5 -33t79 -8.5q57 0 80.5 17.5t23.5 56.5v1161q0 41 -23.5 57.5t-78.5 16.5q-51 0 -82 -8.5t-47.5 -33t-21.5 -68.5t-5 -113v-863z" />
<glyph unicode="&#xb9;" horiz-adv-x="452" />
<glyph unicode="&#xba;" horiz-adv-x="802" d="M2 1276q0 117 35 186q55 76 80 135q47 14 83 28.5t65.5 29t56 32t55.5 39.5l180 -81q88 -41 141.5 -129t53.5 -211q0 -90 -27 -164q-29 -94 -100 -140q-53 -23 -111.5 -46t-124.5 -60l-194 61q-82 29 -136 119q-57 96 -57 201zM37 649v121h721v-121h-721zM100 1411 q0 -119 113 -207q66 -51 166 -90t235 -67q41 59 41 139q0 141 -163 237q-125 74 -334 123q-57 -33 -58 -135z" />
<glyph unicode="&#xbb;" horiz-adv-x="1060" d="M39 182q80 98 141 160q35 35 70 63.5t72 55.5l-220 373q68 45 110 74.5t58 43.5q25 27 52 52l219 -529q-154 -121 -248 -293h-254zM496 182q51 78 114.5 142.5t155.5 136.5l-219 373q45 29 77.5 52t55.5 40l86 78l229 -529q-160 -123 -256 -293h-243z" />
<glyph unicode="&#xbc;" horiz-adv-x="1179" d="M72 1235q51 12 78 25q35 12 126 57v-709l19 -37h-199l17 33v604zM90 -35l645 1223l113 35l-623 -1231zM594 270q-10 129 73 231.5t220 164.5l-4 45h200l-8 -47v-369h58v-49h-58v-197l8 -51h-206l12 51v197h-293zM745 406q0 -51 35 -99h107v322q-53 -25 -99 -92 q-43 -68 -43 -131z" />
<glyph unicode="&#xbd;" horiz-adv-x="1159" d="M72 1231q51 12 78 24q35 12 126 58v-709l19 -37h-199l17 33v604zM92 -35l645 1223l113 35l-623 -1231zM604 2q37 121 299 309q113 80 113 140q0 51 -43 87.5t-109 36.5q-68 0 -129 -34q-23 -12 -43 -25.5t-43 -26.5q35 88 35 189q43 25 94 40t105 15q111 0 182 -74 q63 -63 63 -165q0 -88 -116 -168q-57 -39 -115.5 -78t-118.5 -78l13 -6h311l26 8l-57 -170h-467z" />
<glyph unicode="&#xbe;" horiz-adv-x="1394" d="M45 727q0 68 47 90q35 16 56.5 27.5t25.5 19.5q0 10 -2 24.5t-4 24.5q49 0 82 -34.5t33 -85.5q0 -55 -45 -90t-103 -35v-17q63 -51 123 -51q63 0 117 59q51 57 51 142q0 39 -14.5 78t-46.5 51q-29 0 -55.5 7t-47.5 28l8 28q16 -4 15 -4q20 -6 24 -6q39 0 73 32t34 83 q0 68 -39 102.5t-94 34.5q-27 0 -55.5 -15.5t-28.5 -35.5q0 -37 32 -37q14 0 27 14q2 0 2 2t2 6q31 -29 31 -61q0 -31 -25.5 -58.5t-66.5 -27.5q-43 0 -72 32.5t-29 78.5q0 74 62.5 110.5t167.5 36.5q104 0 180 -51t68 -137q0 -111 -121 -158q63 -39 94 -76q43 -54 43 -113 q0 -92 -76 -146t-199 -54q-119 0 -196.5 51t-77.5 131zM326 -35l645 1223l112 35l-622 -1231zM797 281q-10 129 72.5 231t220.5 164l-5 45h201l-8 -47v-369h57v-49h-57v-197l8 -53h-207l13 53v197h-293zM948 416q0 -51 35 -99h107v322q-53 -25 -99 -92q-43 -68 -43 -131z " />
<glyph unicode="&#xbf;" horiz-adv-x="1619" d="M379 127q0 219 168 442l405 437q4 -16 4 -23q-57 -98 -105 -188t-89 -177q-90 -190 -90 -372q0 -158 129 -269q100 -88 174 -88h172q63 0 170 97q53 47 105.5 96t105.5 100q33 0 43 -14t10 -51q0 -256 -178 -441q-180 -188 -418 -188q-258 0 -432 180t-174 459zM799 1317 q0 49 86 141q84 90 147 90q35 0 62 -63q29 -59 28 -148q0 -86 -44 -131t-109 -45q-35 0 -66 12.5t-53.5 34t-36.5 50t-14 59.5z" />
<glyph unicode="&#xc0;" horiz-adv-x="2041" d="M0 1507q0 -18 23 -59q25 -37 63 -37q35 0 46 9.5t11 58.5q0 29 -14 69.5t-14 73.5q0 76 61 117q45 29 94 28q104 0 213 -65q70 -41 108 -63.5t46 -24.5l356 241q-16 29 -30.5 38.5t-26.5 9.5q-6 0 -39 -25l-29 -23q-53 27 -92 46.5t-67 31.5q-164 76 -207 76h-117 q-47 0 -203 -151q-182 -182 -182 -351zM47 782q0 -160 125 -303q127 -145 127 -180q0 -41 -33 -92q-63 -100 -63 -129q0 -35 23.5 -56.5t62.5 -21.5q61 0 121 141q20 49 43 140q2 8 2 13v9q-2 25 -2 90.5v175.5q0 135 96 351q23 47 56.5 111.5t80.5 146.5q70 123 141.5 223 t149.5 186q123 133 162 133q74 0 153 -151q47 -92 79 -179t48 -173l-10 -367l-520 164q-88 0 -246 -158q-141 -141 -141 -180q0 -23 15 -40.5t32 -17.5q12 0 55 58q43 57 101 57q96 0 303 -92q66 -29 180 -90q31 35 60.5 70.5t58 67.5t57.5 54.5t55 28.5h29q-8 -14 -8 -33 q0 -12 3 -47t5 -63q0 -23 10 -39q4 -8 19 -10v-48v-213q0 -158 120 -253q20 -16 50 -33t71 -33q29 0 115 94q94 100 117 176v49q-94 0 -129 134q-25 92 -25 290v97q0 14 -10 25.5t-19 23.5q4 16 5.5 36.5t1.5 73.5q0 57 -7 131q-8 16 -18 42t-10 104v106q0 166 -103 334 q-92 152 -217 246q0 14 9.5 25.5t19.5 21.5v39h-47l-783 -528q-162 -111 -269 -204t-167 -165q-135 -166 -135 -369zM694 2359q0 41 43 90t103 50q45 0 84 -31t67 -94l131 -301v-41h-57l-207 147q-164 117 -164 180z" />
<glyph unicode="&#xc1;" horiz-adv-x="2041" d="M0 1507q0 168 182 351q156 152 203 151h117q43 0 207 -76q29 -12 67.5 -31.5t91.5 -46.5l29 23q33 25 39 25q12 0 26.5 -9.5t30.5 -38.5l-356 -241q-8 2 -46 24.5t-108 63.5q-109 66 -213 65q-49 0 -94 -28q-61 -41 -61 -117q0 -33 14 -74t14 -69q0 -49 -11 -58.5 t-46 -9.5q-39 0 -63 37q-23 41 -23 59zM47 782q0 203 135 369q59 72 167 165t269 204l783 528h47v-39q-10 -10 -19.5 -21.5t-9.5 -25.5q125 -94 217 -246q102 -168 103 -334v-106q0 -78 10 -103.5t18 -42.5q6 -74 7 -131q0 -53 -1 -73.5t-6 -36.5q8 -12 18.5 -23.5 t10.5 -25.5v-97q0 -199 25 -290q35 -133 129 -134v-49q-23 -76 -117 -176q-86 -94 -115 -94q-41 16 -70.5 32.5t-50.5 33.5q-121 96 -120 253v213v48q-14 2 -19 10q-10 16 -10 39q-2 29 -5 63.5t-3 46.5q0 18 8 33h-29q-27 -6 -55.5 -28.5t-57 -54.5t-58 -67.5t-60.5 -70.5 q-115 61 -180 90q-207 92 -303 92q-57 0 -101 -57q-43 -57 -55 -58q-16 0 -31.5 17.5t-15.5 40.5q0 39 141 180q158 158 246 158l520 -164l10 367q-16 86 -48 173t-79 179q-80 152 -153 151q-39 0 -162 -133q-78 -86 -149.5 -186.5t-141.5 -222.5q-47 -82 -81 -146.5 t-56 -111.5q-96 -215 -96 -351v-176t2 -90v-9t-2 -13q-23 -90 -43 -140q-59 -141 -121 -141q-39 0 -62.5 21.5t-23.5 56.5q0 29 63 129q33 51 33 92q0 35 -127 180q-125 143 -125 303zM944 2023v41l131 301q29 66 68 95.5t84 29.5q59 0 102 -49t43 -90q0 -66 -164 -180 l-207 -148h-57z" />
<glyph unicode="&#xc2;" horiz-adv-x="2041" d="M0 1507q0 -18 23 -59q25 -37 63 -37q35 0 46 9.5t11 58.5q0 29 -14 69.5t-14 73.5q0 76 61 117q45 29 94 28q104 0 213 -65q70 -41 108 -63.5t46 -24.5l356 241q-16 29 -30.5 38.5t-26.5 9.5q-6 0 -39 -25l-29 -23q-53 27 -92 46.5t-67 31.5q-164 76 -207 76h-117 q-47 0 -203 -151q-182 -182 -182 -351zM47 782q0 -160 125 -303q127 -145 127 -180q0 -41 -33 -92q-63 -100 -63 -129q0 -35 23.5 -56.5t62.5 -21.5q61 0 121 141q20 49 43 140q2 8 2 13v9q-2 25 -2 90.5v175.5q0 135 96 351q23 47 56.5 111.5t80.5 146.5q70 123 141.5 223 t149.5 186q123 133 162 133q74 0 153 -151q47 -92 79 -179t48 -173l-10 -367l-520 164q-88 0 -246 -158q-141 -141 -141 -180q0 -23 15 -40.5t32 -17.5q12 0 55 58q43 57 101 57q96 0 303 -92q66 -29 180 -90q31 35 60.5 70.5t58 67.5t57.5 54.5t55 28.5h29q-8 -14 -8 -33 q0 -12 3 -47t5 -63q0 -23 10 -39q4 -8 19 -10v-48v-213q0 -158 120 -253q20 -16 50 -33t71 -33q29 0 115 94q94 100 117 176v49q-94 0 -129 134q-25 92 -25 290v97q0 14 -10 25.5t-19 23.5q4 16 5.5 36.5t1.5 73.5q0 57 -7 131q-8 16 -18 42t-10 104v106q0 166 -103 334 q-92 152 -217 246q0 14 9.5 25.5t19.5 21.5v39h-47l-783 -528q-162 -111 -269 -204t-167 -165q-135 -166 -135 -369zM870 2034l13 34q27 27 63.5 78.5t77.5 109.5t85 115.5t85 98.5q16 29 41 48t53 19q16 0 33 -10q25 -6 49 -33q43 -37 89 -97t91 -122.5t84 -118t68 -83.5 l12 -35l-49 -17q-25 12 -69 39t-96 62t-107.5 73.5t-100.5 73.5q-47 -35 -101 -73.5t-106.5 -74.5t-96 -65t-68.5 -41z" />
<glyph unicode="&#xc3;" horiz-adv-x="2041" d="M0 1507q0 168 182 351q156 152 203 151h117q43 0 207 -76q29 -12 67.5 -31.5t91.5 -46.5l29 23q33 25 39 25q12 0 26.5 -9.5t30.5 -38.5l-356 -241q-8 2 -46 24.5t-108 63.5q-109 66 -213 65q-49 0 -94 -28q-61 -41 -61 -117q0 -33 14 -74t14 -69q0 -49 -11 -58.5 t-46 -9.5q-39 0 -63 37q-23 41 -23 59zM47 782q0 203 135 369q59 72 167 165t269 204l783 528h47v-39q-10 -10 -19.5 -21.5t-9.5 -25.5q125 -94 217 -246q102 -168 103 -334v-106q0 -78 10 -103.5t18 -42.5q6 -74 7 -131q0 -53 -1 -73.5t-6 -36.5q8 -12 18.5 -23.5 t10.5 -25.5v-97q0 -199 25 -290q35 -133 129 -134v-49q-23 -76 -117 -176q-86 -94 -115 -94q-41 16 -70.5 32.5t-50.5 33.5q-121 96 -120 253v213v48q-14 2 -19 10q-10 16 -10 39q-2 29 -5 63.5t-3 46.5q0 18 8 33h-29q-27 -6 -55.5 -28.5t-57 -54.5t-58 -67.5t-60.5 -70.5 q-115 61 -180 90q-207 92 -303 92q-57 0 -101 -57q-43 -57 -55 -58q-16 0 -31.5 17.5t-15.5 40.5q0 39 141 180q158 158 246 158l520 -164l10 367q-16 86 -48 173t-79 179q-80 152 -153 151q-39 0 -162 -133q-78 -86 -149.5 -186.5t-141.5 -222.5q-47 -82 -81 -146.5 t-56 -111.5q-96 -215 -96 -351v-176t2 -90v-9t-2 -13q-23 -90 -43 -140q-59 -141 -121 -141q-39 0 -62.5 21.5t-23.5 56.5q0 29 63 129q33 51 33 92q0 35 -127 180q-125 143 -125 303zM455 2161q27 125 129 211q100 88 190 88q16 0 23 -2l139 -25q55 -25 109.5 -46.5 t89.5 -27.5q8 -2 24 -2q53 0 95 29t71 76l57 -11q0 -27 -2 -32q-8 -18 -10 -33q-18 -106 -123 -223q-104 -115 -194 -115q-16 0 -21 2l-94 16q-8 2 -37 14.5t-80 39.5q-53 27 -80 30q-12 2 -38.5 9.5t-67.5 19.5q-80 25 -117 25q-27 0 -43 -9t-20 -34z" />
<glyph unicode="&#xc4;" horiz-adv-x="1959" d="M0 1507q0 168 182 351q156 152 203 151h117q43 0 207 -76q29 -12 67.5 -31.5t91.5 -46.5l29 23q33 25 39 25q12 0 26.5 -9.5t30.5 -38.5l-356 -241q-8 2 -46 24.5t-108 63.5q-109 66 -213 65q-49 0 -94 -28q-61 -41 -61 -117q0 -33 14 -74t14 -69q0 -49 -11 -58.5 t-46 -9.5q-39 0 -63 37q-23 41 -23 59zM47 782q0 203 135 369q59 72 167 165t269 204l783 528h47v-39q-10 -10 -19.5 -21.5t-9.5 -25.5q125 -94 217 -246q102 -168 103 -334v-106q0 -78 10 -103.5t18 -42.5q6 -74 7 -131q0 -53 -1 -73.5t-6 -36.5q8 -12 18.5 -23.5 t10.5 -25.5v-97q0 -199 25 -290q35 -133 129 -134v-49q-23 -76 -117 -176q-86 -94 -115 -94q-41 16 -70.5 32.5t-50.5 33.5q-121 96 -120 253v213v48q-14 2 -19 10q-10 16 -10 39q-2 29 -5 63.5t-3 46.5q0 18 8 33h-29q-27 -6 -55.5 -28.5t-57 -54.5t-58 -67.5t-60.5 -70.5 q-115 61 -180 90q-207 92 -303 92q-57 0 -101 -57q-43 -57 -55 -58q-16 0 -31.5 17.5t-15.5 40.5q0 39 141 180q158 158 246 158l520 -164l10 367q-16 86 -48 173t-79 179q-80 152 -153 151q-39 0 -162 -133q-78 -86 -149.5 -186.5t-141.5 -222.5q-47 -82 -81 -146.5 t-56 -111.5q-96 -215 -96 -351v-176t2 -90v-9t-2 -13q-23 -90 -43 -140q-59 -141 -121 -141q-39 0 -62.5 21.5t-23.5 56.5q0 29 63 129q33 51 33 92q0 35 -127 180q-125 143 -125 303zM686 2341q0 86 44 131t110 45q33 0 64.5 -13.5t54 -35t37 -49t14.5 -58.5 q0 -53 -82 -178q-90 -135 -152 -135q-29 0 -59 102q-31 104 -31 191zM1096 2351q0 86 44 131t109 45q33 0 65 -13t54.5 -34.5t36.5 -49t14 -58.5q0 -53 -82 -179q-90 -135 -151 -135q-29 0 -60 103q-31 104 -30 190z" />
<glyph unicode="&#xc5;" horiz-adv-x="2041" d="M0 1507q0 168 182 351q156 152 203 151h117q43 0 207 -76q29 -12 67.5 -31.5t91.5 -46.5l29 23q33 25 39 25q12 0 26.5 -9.5t30.5 -38.5l-356 -241q-8 2 -46 24.5t-108 63.5q-109 66 -213 65q-49 0 -94 -28q-61 -41 -61 -117q0 -33 14 -74t14 -69q0 -49 -11 -58.5 t-46 -9.5q-39 0 -63 37q-23 41 -23 59zM47 782q0 203 135 369q59 72 167 165t269 204l783 528h47v-39q-10 -10 -19.5 -21.5t-9.5 -25.5q125 -94 217 -246q102 -168 103 -334v-106q0 -78 10 -103.5t18 -42.5q6 -74 7 -131q0 -53 -1 -73.5t-6 -36.5q8 -12 18.5 -23.5 t10.5 -25.5v-97q0 -199 25 -290q35 -133 129 -134v-49q-23 -76 -117 -176q-86 -94 -115 -94q-41 16 -70.5 32.5t-50.5 33.5q-121 96 -120 253v213v48q-14 2 -19 10q-10 16 -10 39q-2 29 -5 63.5t-3 46.5q0 18 8 33h-29q-27 -6 -55.5 -28.5t-57 -54.5t-58 -67.5t-60.5 -70.5 q-115 61 -180 90q-207 92 -303 92q-57 0 -101 -57q-43 -57 -55 -58q-16 0 -31.5 17.5t-15.5 40.5q0 39 141 180q158 158 246 158l520 -164l10 367q-16 86 -48 173t-79 179q-80 152 -153 151q-39 0 -162 -133q-78 -86 -149.5 -186.5t-141.5 -222.5q-47 -82 -81 -146.5 t-56 -111.5q-96 -215 -96 -351v-176t2 -90v-9t-2 -13q-23 -90 -43 -140q-59 -141 -121 -141q-39 0 -62.5 21.5t-23.5 56.5q0 29 63 129q33 51 33 92q0 35 -127 180q-125 143 -125 303zM758 2204v39q0 59 65 127q68 74 135 73h39q59 0 125 -55q72 -65 72 -145t-86 -148 q-74 -55 -133 -55q-96 0 -164 67q-53 53 -53 97zM825 2290q0 -51 78 -113q80 -61 141 -61q27 0 48 16l34 41v39l-28 43q-35 45 -74 74q-53 41 -115 41q-33 0 -59 -25q-25 -23 -25 -55z" />
<glyph unicode="&#xc6;" horiz-adv-x="3176" d="M0 1507q0 168 182 351q156 152 203 151h117q43 0 207 -76q29 -12 67.5 -31.5t91.5 -46.5l29 23q33 25 39 25q12 0 26.5 -9.5t30.5 -38.5l-356 -241q-8 2 -46 24.5t-108 63.5q-109 66 -213 65q-49 0 -94 -28q-61 -41 -61 -117q0 -33 14 -74t14 -69q0 -49 -11 -58.5 t-46 -9.5q-39 0 -63 37q-23 41 -23 59zM47 782q0 203 135 369q59 72 167 165t269 204l783 528h47v-39q-10 -10 -19.5 -21.5t-9.5 -25.5q125 -94 217 -246q10 -16 18.5 -32.5t16.5 -32.5q33 49 64 80q78 86 254 194q223 137 370 137h123q27 0 203 -67q178 -66 205 -66 q72 0 131 72q27 33 49 33q29 0 39 -19.5t10 -56.5q0 -104 -139 -234q-139 -127 -270 -127q-49 0 -240 62q-190 61 -215 61h-189q-111 0 -260 -145q-23 -23 -42 -44.5t-35 -43.5q10 -57 10 -105v-106q0 -39 3 -63.5t7 -40t9 -23.5t9 -16q8 12 18.5 24t20.5 25q92 102 185 102 h141q59 -14 118.5 -25.5t90.5 -11.5q53 0 99 35t71 98h57q2 -6 2 -18v-14q-2 -14 -2 -22.5v-12.5q0 -117 -88 -248q-96 -141 -186 -141h-96q-27 0 -97 24q-72 25 -121 25q-68 0 -139 -47q-37 -23 -57 -60q12 -16 12 -26v-78q10 -16 24.5 -33.5t34.5 -40.5q53 -59 108.5 -106 t115.5 -82q162 -96 319 -97h285q53 0 103 20.5t91 65.5l175 189q35 0 41 -23.5t6 -62.5q0 -158 -234 -369q-233 -209 -420 -209h-190q-92 0 -203 52q-80 35 -162 98q-25 -35 -57 -70q-86 -94 -115 -94q-41 16 -70.5 32.5t-50.5 33.5q-121 96 -120 253v213v48q-14 2 -19 10 q-10 16 -10 39q-2 29 -5 63.5t-3 46.5q0 18 8 33h-29q-27 -6 -55.5 -28.5t-57 -54.5t-58 -67.5t-60.5 -70.5q-115 61 -180 90q-207 92 -303 92q-57 0 -101 -57q-43 -57 -55 -58q-16 0 -31.5 17.5t-15.5 40.5q0 39 141 180q158 158 246 158l520 -164l10 367q-16 86 -48 173 t-79 179q-80 152 -153 151q-39 0 -162 -133q-78 -86 -149.5 -186.5t-141.5 -222.5q-47 -82 -81 -146.5t-56 -111.5q-96 -215 -96 -351v-176t2 -90v-9t-2 -13q-23 -90 -43 -140q-59 -141 -121 -141q-39 0 -62.5 21.5t-23.5 56.5q0 29 63 129q33 51 33 92q0 35 -127 180 q-125 143 -125 303z" />
<glyph unicode="&#xc7;" horiz-adv-x="1800" d="M0 854v205q0 160 121 366q123 207 315 351q86 63 171 113t165 86t152.5 54.5t132.5 18.5q55 0 262 -47q35 -8 83 -20.5t111 -28.5q16 0 82 57q35 29 54 29q14 0 31.5 -17.5t17.5 -29.5q0 -25 -88 -156q-53 -82 -94 -147.5t-68 -116.5q-90 -176 -90 -289v-108h-78 q-14 59 -14 83q0 16 10 21l4 4q0 90 14 141q8 23 16.5 45.5t18.5 44.5q0 27 -192 127q-219 117 -361 117q-225 0 -385 -182q-150 -170 -149 -381q0 -240 168 -446q139 -174 356 -287q195 -102 321 -103h136q145 0 276 131t160 132q18 0 33.5 -19.5t15.5 -48.5 q0 -51 -92 -174q-113 -150 -273 -250q-207 -129 -442 -129q-252 0 -475 166q-184 137 -313 358q-113 193 -113 330zM711 -344q0 31 88 45q86 14 86 98q0 41 -50.5 125t-119.5 232l420 -29q-10 -6 -60.5 -38t-142.5 -85q8 -18 80 -139q55 -92 55 -139v-78q0 -35 -43 -99 q-43 -66 -53 -65l-131 74q-129 72 -129 98z" />
<glyph unicode="&#xc8;" horiz-adv-x="1730" d="M0 920q0 -111 51 -250q59 -164 176 -310q180 -221 375 -309q111 -51 203 -51h190q186 0 420 209q233 211 234 369q0 39 -6.5 62.5t-40.5 23.5l-175 -189q-41 -47 -91 -66.5t-103 -19.5h-285q-158 0 -319 96q-59 35 -114.5 82t-108.5 107q-84 96 -84 123q0 70 69 114 q72 47 139 47q49 0 121 -24q70 -25 97 -25h96q90 0 186 142q88 131 88 247v12.5t2 22.5v15q0 12 -2 18h-57q-25 -63 -71 -98t-99 -35q-31 0 -90.5 11t-118.5 26h-141q-92 0 -185 -103q-100 -109 -100 -247q-33 14 -50.5 53t-17.5 69v172q0 184 168 347q150 145 260 145h189 q25 0 215 -61t240 -62q131 0 270 127q139 130 139 234q0 37 -10 56t-39 19q-23 0 -49 -32q-59 -72 -131 -72q-27 0 -205 65q-176 68 -203 68h-123q-147 0 -370 -137q-176 -109 -254 -195q-106 -119 -197 -327q-88 -203 -88 -336v-133zM664 2482q0 41 43 90t102 49 q45 0 84 -29.5t68 -94.5l131 -302v-41h-58l-207 148q-163 114 -163 180z" />
<glyph unicode="&#xc9;" horiz-adv-x="1730" d="M0 920v133q0 133 88 336q90 209 197 327q78 86 254 195q223 137 370 137h123q27 0 203 -68q178 -66 205 -65q72 0 131 72q27 33 49 32q29 0 39 -19t10 -56q0 -104 -139 -234q-139 -127 -270 -127q-49 0 -240 62q-190 61 -215 61h-189q-111 0 -260 -145 q-168 -162 -168 -347v-172q0 -31 17.5 -69.5t50.5 -52.5q0 139 100 247q92 102 185 103h141q59 -14 118.5 -25.5t90.5 -11.5q53 0 99 35t71 98h57q2 -6 2 -18v-15q-2 -14 -2 -22v-13q0 -117 -88 -247q-96 -141 -186 -142h-96q-27 0 -97 25q-72 25 -121 24q-68 0 -139 -47 q-70 -45 -69 -114q0 -27 84 -123q53 -59 108 -106.5t115 -82.5q162 -96 319 -96h285q53 0 103 19.5t91 66.5l175 189q35 0 41 -24t6 -62q0 -158 -234 -369q-233 -209 -420 -209h-190q-92 0 -203 51q-195 88 -375 309q-117 145 -176 310q-51 139 -51 250zM815 2167v41 l131 301q29 66 68 95.5t84 29.5q59 0 102 -49q43 -50 43 -91q0 -63 -164 -180l-207 -147h-57z" />
<glyph unicode="&#xca;" horiz-adv-x="1730" d="M0 920q0 -111 51 -250q59 -164 176 -310q180 -221 375 -309q111 -51 203 -51h190q186 0 420 209q233 211 234 369q0 39 -6.5 62.5t-40.5 23.5l-175 -189q-41 -47 -91 -66.5t-103 -19.5h-285q-158 0 -319 96q-59 35 -114.5 82t-108.5 107q-84 96 -84 123q0 70 69 114 q72 47 139 47q49 0 121 -24q70 -25 97 -25h96q90 0 186 142q88 131 88 247v12.5t2 22.5v15q0 12 -2 18h-57q-25 -63 -71 -98t-99 -35q-31 0 -90.5 11t-118.5 26h-141q-92 0 -185 -103q-100 -109 -100 -247q-33 14 -50.5 53t-17.5 69v172q0 184 168 347q150 145 260 145h189 q25 0 215 -61t240 -62q131 0 270 127q139 130 139 234q0 37 -10 56t-39 19q-23 0 -49 -32q-59 -72 -131 -72q-27 0 -205 65q-176 68 -203 68h-123q-147 0 -370 -137q-176 -109 -254 -195q-106 -119 -197 -327q-88 -203 -88 -336v-133zM541 2077l12 34q27 27 63.5 79.5 t77.5 110.5t85 115.5t85 98.5q16 29 41 47t53 18q18 0 35 -8q27 -8 47 -32q43 -37 89.5 -97.5t91.5 -123t83.5 -118t67.5 -83.5l12 -35l-49 -19q-25 12 -68.5 40t-96 63t-107.5 72.5t-100 72.5q-47 -35 -101.5 -73.5t-107 -73.5l-96 -64t-68.5 -41z" />
<glyph unicode="&#xcb;" horiz-adv-x="1730" d="M0 920v133q0 133 88 336q90 209 197 327q78 86 254 195q223 137 370 137h123q27 0 203 -68q178 -66 205 -65q72 0 131 72q27 33 49 32q29 0 39 -19t10 -56q0 -104 -139 -234q-139 -127 -270 -127q-49 0 -240 62q-190 61 -215 61h-189q-111 0 -260 -145 q-168 -162 -168 -347v-172q0 -31 17.5 -69.5t50.5 -52.5q0 139 100 247q92 102 185 103h141q59 -14 118.5 -25.5t90.5 -11.5q53 0 99 35t71 98h57q2 -6 2 -18v-15q-2 -14 -2 -22v-13q0 -117 -88 -247q-96 -141 -186 -142h-96q-27 0 -97 25q-72 25 -121 24q-68 0 -139 -47 q-70 -45 -69 -114q0 -27 84 -123q53 -59 108 -106.5t115 -82.5q162 -96 319 -96h285q53 0 103 19.5t91 66.5l175 189q35 0 41 -24t6 -62q0 -158 -234 -369q-233 -209 -420 -209h-190q-92 0 -203 51q-195 88 -375 309q-117 145 -176 310q-51 139 -51 250zM674 2177v41 l131 301q29 66 67.5 95.5t83.5 29.5q59 0 103 -49q43 -49 43 -90q0 -63 -164 -181l-207 -147h-57zM1065 2161v41l131 301q29 66 68 95.5t84 29.5q59 0 102 -50q43 -49 43 -90q0 -66 -164 -180l-207 -147h-57z" />
<glyph unicode="&#xcc;" horiz-adv-x="1570" d="M0 305q0 -16 17.5 -31.5t29.5 -15.5q49 0 225 -129q174 -129 291 -129h209q76 0 217 74q158 84 279 207q70 74 110.5 150.5t51.5 158.5q4 25 7 52.5t3 43.5q0 25 -11.5 49.5t-17.5 44.5v906q0 80 49 159q23 35 48.5 71t54.5 75q0 57 -47 57l-254 -98q-66 -25 -119 -35 t-94 -10h-277q-76 0 -278 71q-51 16 -100.5 35t-98.5 37q-20 0 -150 -145q-127 -145 -127 -160q0 -31 25 -49q10 -8 25 -8q6 0 18 7t26.5 16t30 17.5t29.5 8.5l391 -125h191q115 0 235 43l268 129q-8 -35 -35.5 -65.5t-58.5 -30.5q-23 0 -24 -3q-8 -12 -15 -16 q-16 -35 -135 -78q-66 -25 -102 -73l121 -72q59 -35 59 -168v-856q0 -117 -88 -203q-78 -74 -150 -74q-133 0 -274 172q-117 143 -117 199q0 23 29 45q29 23 29 41q0 47 -47 47q-27 0 -238 -166t-211 -176zM537 2349q0 41 43 90t102 49q45 0 84 -29.5t68 -95.5l131 -301v-41 h-58l-207 148q-163 117 -163 180z" />
<glyph unicode="&#xcd;" horiz-adv-x="1570" d="M0 305q0 10 211 176t238 166q47 0 47 -47q0 -18 -29 -41t-29 -45q0 -55 117 -199q141 -172 274 -172q72 0 150 74q88 86 88 203v856q0 133 -59 168l-121 72q37 49 102 73q119 43 135 78q6 4 15 16q2 2 24 3q31 0 58.5 30.5t35.5 65.5l-268 -129q-121 -43 -235 -43h-191 l-391 125q-14 0 -29.5 -8.5t-30 -17.5t-26.5 -16t-18 -7q-14 0 -25 8q-25 18 -25 49q0 14 127 160q129 145 150 145q49 -18 98 -36.5t101 -35.5q203 -72 278 -71h277q41 0 94 10t119 35l254 98q47 0 47 -57q-29 -39 -54.5 -75t-48.5 -71q-49 -80 -49 -159v-906 q6 -20 17.5 -44.5t11.5 -49.5q0 -16 -3 -44t-7 -52q-10 -82 -51.5 -159t-110.5 -150q-121 -123 -279 -207q-141 -74 -217 -74h-209q-117 0 -291 129q-176 129 -225 129q-12 0 -29.5 15.5t-17.5 31.5zM772 2032v41l131 301q29 66 68 95.5t84 29.5q59 0 102 -50q43 -49 43 -90 q0 -63 -164 -180l-207 -147h-57z" />
<glyph unicode="&#xce;" horiz-adv-x="1570" d="M0 305q0 -16 17.5 -31.5t29.5 -15.5q49 0 225 -129q174 -129 291 -129h209q76 0 217 74q158 84 279 207q70 74 110.5 150.5t51.5 158.5q4 25 7 52.5t3 43.5q0 25 -11.5 49.5t-17.5 44.5v906q0 80 49 159q23 35 48.5 71t54.5 75q0 57 -47 57l-254 -98q-66 -25 -119 -35 t-94 -10h-277q-76 0 -278 71q-51 16 -100.5 35t-98.5 37q-20 0 -150 -145q-127 -145 -127 -160q0 -31 25 -49q10 -8 25 -8q6 0 18 7t26.5 16t30 17.5t29.5 8.5l391 -125h191q115 0 235 43l268 129q-8 -35 -35.5 -65.5t-58.5 -30.5q-23 0 -24 -3q-8 -12 -15 -16 q-16 -35 -135 -78q-66 -25 -102 -73l121 -72q59 -35 59 -168v-856q0 -117 -88 -203q-78 -74 -150 -74q-133 0 -274 172q-117 143 -117 199q0 23 29 45q29 23 29 41q0 47 -47 47q-27 0 -238 -166t-211 -176zM459 2083l12 35q27 27 63.5 79t77.5 110t85 115.5t85 98.5 q16 29 41 47.5t54 18.5q18 0 34 -9q27 -8 47 -32q43 -37 89.5 -97.5t91.5 -123t84 -118t67 -83.5l13 -35l-50 -18q-25 12 -68.5 39.5t-96 62.5t-107.5 73t-100 72q-47 -35 -101.5 -73.5t-106.5 -73.5t-96 -64t-69 -41z" />
<glyph unicode="&#xcf;" horiz-adv-x="1570" d="M0 305q0 10 211 176t238 166q47 0 47 -47q0 -18 -29 -41t-29 -45q0 -55 117 -199q141 -172 274 -172q72 0 150 74q88 86 88 203v856q0 133 -59 168l-121 72q37 49 102 73q119 43 135 78q6 4 15 16q2 2 24 3q31 0 58.5 30.5t35.5 65.5l-268 -129q-121 -43 -235 -43h-191 l-391 125q-14 0 -29.5 -8.5t-30 -17.5t-26.5 -16t-18 -7q-14 0 -25 8q-25 18 -25 49q0 14 127 160q129 145 150 145q49 -18 98 -36.5t101 -35.5q203 -72 278 -71h277q41 0 94 10t119 35l254 98q47 0 47 -57q-29 -39 -54.5 -75t-48.5 -71q-49 -80 -49 -159v-906 q6 -20 17.5 -44.5t11.5 -49.5q0 -16 -3 -44t-7 -52q-10 -82 -51.5 -159t-110.5 -150q-121 -123 -279 -207q-141 -74 -217 -74h-209q-117 0 -291 129q-176 129 -225 129q-12 0 -29.5 15.5t-17.5 31.5zM578 2066v41l131 301q57 125 151 125q59 0 103 -49q43 -49 43 -90 q0 -66 -164 -180l-207 -148h-57zM971 2050v41l131 301q29 66 67.5 95.5t83.5 29.5q59 0 103 -49q43 -49 43 -90q0 -63 -164 -180l-207 -148h-57z" />
<glyph unicode="&#xd0;" horiz-adv-x="2113" d="M-51 997q86 57 179 82t198 25q66 0 132 -6t130 -19q41 -10 81 -9t81 1q18 0 43.5 1t53 2t53.5 2t44 3l109 11q43 6 60 7t27.5 1t28 1t60.5 7q-33 -20 -63.5 -41t-63.5 -39q-29 -16 -87.5 -32.5t-126 -32t-130 -24.5t-99.5 -9t-80.5 8t-89 17.5t-88.5 17.5t-79 10 q-43 2 -92.5 3t-92.5 1q-29 0 -51.5 2t-42.5 5t-43 5t-51 0zM0 244q0 47 28.5 98t88.5 98l215 172q63 51 91 108.5t28 115.5v188q0 260 -140 276q-66 10 -65 43q0 16 8 25q8 12 39 12h84q47 0 102.5 12.5t120.5 43.5l256 123q27 0 27 -37q0 -23 -43 -62q-41 -41 -41 -80 v-516q0 -37 28 -69q29 -33 29 -43q0 -25 -90 -47q-92 -18 -145 -95q8 -2 18 -4t26.5 -3t44 -1h70.5q47 0 98.5 -20.5t106.5 -67.5q49 -41 96 -82t95 -80q111 -90 206 -90q166 0 322 217q147 205 147 385v84q0 264 -174 459q-174 199 -381 199h-346l-112 -19 q-121 -18 -152 -18h-254q-113 0 -196 53q-94 61 -95 164q0 94 60 178q61 84 129 84q18 0 30 -37q27 -86 138 -86q137 18 264 32.5t207 14.5h348q309 0 518 -256q186 -225 186 -485v-207q0 -119 -57 -299q-59 -186 -135 -305q-39 -59 -100.5 -124t-149.5 -130 q-219 -166 -377 -166h-84q-70 0 -141.5 27.5t-140.5 91.5l-240 221q-70 63 -137.5 92t-128.5 29q-152 0 -187 -146q-35 -145 -96 -145q-25 0 -36 21.5t-11 52.5z" />
<glyph unicode="&#xd1;" horiz-adv-x="1994" d="M0 1696q0 27 117 119l293 233q74 -35 125 -139l86 -232l485 361q260 -72 434 -271q63 -72 118.5 -155.5t86.5 -188.5l55 -184q10 -23 17.5 -40t11.5 -32q29 -86 29 -139v-285q0 -86 -46 -184q-47 -104 -96 -139q-16 -10 -86 -31q-47 -12 -47 -47q0 -100 119 -176t119 -98 q-10 -23 -21 -33q-35 -35 -84 -35q-96 0 -186 115q-100 125 -100 295v628q0 199 -136 426q-154 260 -350 260q-25 0 -102 -51q-53 -35 -114.5 -81t-127.5 -105v-1211q0 -55 35 -124q14 -27 29.5 -47.5t31.5 -36.5q-10 -14 -20 -26.5t-27 -12.5q2 0 -92 22q-90 25 -108 25 h-87q-23 0 -65.5 -15.5t-85.5 -31.5q-20 0 -35 12q-23 18 -22 45q0 16 36 59l39 45q4 6 9 23q2 6 2 25q-2 14 -2 24v19q0 37 20 71v944q-4 2 -18 0q2 25 4 63t2 46q0 43 -6 53h18q0 66 -25 125q-35 84 -98 84q-39 0 -59.5 -14.5t-36.5 -14.5q-23 0 -31 9q-8 8 -8 49z M356 2247q27 121 129 211q104 88 191 88q16 0 22 -2l140 -25q55 -25 109 -46.5t89 -27.5q8 -2 25 -2q53 0 95 29t71 76l57 -11q0 -27 -2 -32q-8 -18 -10 -33q-18 -111 -123 -223q-102 -115 -195 -115q-16 0 -20 2l-94 16q-8 2 -37 14.5t-80 39.5q-53 27 -80 30 q-12 2 -38.5 9.5t-67.5 19.5q-80 25 -117 25q-27 0 -43.5 -9t-20.5 -34z" />
<glyph unicode="&#xd2;" horiz-adv-x="1837" d="M0 958q0 -383 301 -679q279 -279 592 -279q223 0 436 211q178 178 299 432q111 233 111 363v178q0 207 -144 418q-29 41 -65.5 85t-81.5 89q-98 117 -225 186q-152 86 -246 86h-158q-186 0 -411 -213q-82 -78 -148.5 -161t-118.5 -171q-20 -31 -75 -223 q-66 -225 -66 -322zM264 1108v246q0 106 117 245t221 140h160q137 0 323 -152q29 -25 69 -61.5t87 -87.5q84 -76 158 -215q68 -131 125 -275v-243q-66 -141 -111 -207q-145 -207 -303 -207h-104q-88 0 -213 74q-154 86 -275 245q-51 66 -84 113t-49 74q-121 195 -121 311z M463 2490q0 41 43 90t102 50q45 0 84 -30t68 -95l131 -301v-41h-57l-207 147q-164 114 -164 180z" />
<glyph unicode="&#xd3;" horiz-adv-x="1837" d="M0 958q0 96 66 322q55 193 75 223q51 88 118 171t149 161q225 213 411 213h158q94 0 246 -86q127 -70 225 -186q45 -45 82 -89.5t65 -84.5q143 -211 144 -418v-178q0 -129 -111 -363q-121 -254 -299 -432q-213 -211 -436 -211q-313 0 -592 279q-301 297 -301 679z M264 1108q0 -117 121 -311q16 -27 49 -74t84 -113q121 -160 275 -245q125 -74 213 -74h104q158 0 303 207q45 66 111 207v243q-57 143 -125 275q-74 139 -158 215q-47 51 -87 88t-69 61q-186 152 -323 152h-160q-104 0 -221 -140q-117 -139 -117 -245v-246zM774 2173v41 l131 301q29 63 68 94t84 31q59 0 102 -49t43 -90q0 -66 -164 -181l-207 -147h-57z" />
<glyph unicode="&#xd4;" horiz-adv-x="1837" d="M0 958q0 -383 301 -679q279 -279 592 -279q223 0 436 211q178 178 299 432q111 233 111 363v178q0 207 -144 418q-29 41 -65.5 85t-81.5 89q-98 117 -225 186q-152 86 -246 86h-158q-186 0 -411 -213q-82 -78 -148.5 -161t-118.5 -171q-20 -31 -75 -223 q-66 -225 -66 -322zM264 1108v246q0 106 117 245t221 140h160q137 0 323 -152q29 -25 69 -61.5t87 -87.5q84 -76 158 -215q68 -131 125 -275v-243q-66 -141 -111 -207q-145 -207 -303 -207h-104q-88 0 -213 74q-154 86 -275 245q-51 66 -84 113t-49 74q-121 195 -121 311z M475 2091l12 35q27 27 64 78t78 109.5t85 116.5t85 99q16 29 39.5 47.5t52.5 18.5q18 0 35 -8q27 -8 49 -35q43 -37 89 -96.5t90 -122t84 -118.5t69 -85l12 -35l-49 -16q-25 12 -69 38.5t-96 62.5t-107.5 74t-100.5 73q-47 -35 -101.5 -74t-106.5 -75t-96 -63.5t-69 -39.5z " />
<glyph unicode="&#xd5;" horiz-adv-x="1837" d="M0 958q0 96 66 322q55 193 75 223q51 88 118 171t149 161q225 213 411 213h158q94 0 246 -86q127 -70 225 -186q45 -45 82 -89.5t65 -84.5q143 -211 144 -418v-178q0 -129 -111 -363q-121 -254 -299 -432q-213 -211 -436 -211q-313 0 -592 279q-301 297 -301 679z M264 1108q0 -117 121 -311q16 -27 49 -74t84 -113q121 -160 275 -245q125 -74 213 -74h104q158 0 303 207q45 66 111 207v243q-57 143 -125 275q-74 139 -158 215q-47 51 -87 88t-69 61q-186 152 -323 152h-160q-104 0 -221 -140q-117 -139 -117 -245v-246zM412 2251 q27 121 129 211q104 88 190 88q16 0 23 -2l139 -25q55 -25 109.5 -46t89.5 -28q8 -2 24 -2q53 0 95 29t71 76l57 -10q0 -27 -2 -33q-8 -18 -10 -33q-18 -111 -123 -223q-102 -115 -194 -115q-16 0 -21 2l-94 17q-8 2 -37 14t-80 39q-53 27 -80 31q-12 2 -38.5 9t-67.5 19 q-80 25 -117 25q-27 0 -43 -9t-20 -34z" />
<glyph unicode="&#xd6;" horiz-adv-x="1755" d="M0 958q0 96 66 322q55 193 75 223q51 88 118 171t149 161q225 213 411 213h158q94 0 246 -86q127 -70 225 -186q45 -45 82 -89.5t65 -84.5q143 -211 144 -418v-178q0 -129 -111 -363q-121 -254 -299 -432q-213 -211 -436 -211q-313 0 -592 279q-301 297 -301 679z M264 1108q0 -117 121 -311q16 -27 49 -74t84 -113q121 -160 275 -245q125 -74 213 -74h104q158 0 303 207q45 66 111 207v243q-57 143 -125 275q-74 139 -158 215q-47 51 -87 88t-69 61q-186 152 -323 152h-160q-104 0 -221 -140q-117 -139 -117 -245v-246zM438 2316 q0 86 44 131t110 45q33 0 64.5 -13t54 -34.5t37 -49t14.5 -58.5q0 -53 -82 -178q-90 -135 -152 -136q-29 0 -59 103q-31 104 -31 190zM1139 2310q0 86 44 131t109 45q33 0 65 -13t54.5 -34.5t36.5 -49t14 -58.5q0 -53 -82 -179q-90 -135 -151 -135q-29 0 -60 103 q-31 104 -30 190z" />
<glyph unicode="&#xd7;" horiz-adv-x="1142" d="M53 283q0 10 15.5 24.5t37.5 26.5q18 8 54.5 32.5t76 56.5t78.5 67.5t64 66.5l70 84l-97 119q-23 29 -57.5 62.5t-71.5 65.5t-69.5 56.5t-51.5 34.5q-29 16 -39 25.5t-10 21.5q0 10 12.5 19.5t24.5 9.5q2 0 60.5 -5.5t179.5 -15.5q4 0 14 1t22.5 3t23.5 5.5t18 5.5 q10 2 16 4t10 2q10 0 22.5 -9.5t10.5 -13.5l-4 -63q0 -4 6 -17.5t14.5 -30t16.5 -32t12 -21.5l63 -71l58 71q6 6 11 19.5t9 30t7.5 33t3.5 28.5v14q-2 10 -2 18.5v12.5q0 31 30 31q6 0 13.5 -2t15.5 -4q27 -6 45 -10.5t31 -4.5q6 0 12 1t24.5 3t54.5 5.5t101 7.5 q10 0 19.5 1t15.5 1q8 0 12 2q14 0 25.5 -8.5t11.5 -20.5t-11 -21.5t-40 -25.5q-20 -10 -55 -34.5t-74 -55.5t-75 -64.5t-60 -64.5l-76 -94l137 -164q20 -23 50 -49.5t59.5 -50t56.5 -43t41 -25.5q47 -27 47 -51q0 -10 -11 -18.5t-26 -8.5h-3t-17.5 2t-45 5t-85.5 7 q-61 6 -92 6q-23 0 -72 -14q-8 -2 -15.5 -4t-13.5 -2q-16 0 -21 11.5t-5 49.5q0 23 -11.5 51.5t-29.5 51.5l-70 88l-57 -76q-4 -6 -11.5 -20.5t-13.5 -30.5t-10 -29.5t-4 -19.5l6 -58q0 -4 -10.5 -12t-16.5 -8q-4 0 -12 2t-18 6q-12 4 -40 9t-38 5q-2 0 -31 -2t-66.5 -5 t-76.5 -7t-62 -6q-14 0 -27.5 8t-13.5 19z" />
<glyph unicode="&#xd8;" horiz-adv-x="1837" d="M-86 195q4 18 31.5 46.5t66.5 62.5t81 66.5t77 61.5q-84 117 -127 249t-43 277q0 39 15.5 117t38 163t46 160t41.5 105q45 80 120 174.5t166 177t192.5 138t199.5 55.5h158q57 0 123.5 -25.5t131 -65.5t120 -87t92.5 -90q29 27 70.5 65.5t87 72.5t87.5 57.5t72 19.5 q-4 -31 -24.5 -73t-50 -89t-65.5 -93t-67 -85q68 -86 106 -159t55.5 -146.5t20.5 -156.5t3 -187q0 -43 -10.5 -91.5t-26.5 -95.5t-35.5 -92t-38.5 -84q-49 -102 -122.5 -216t-168 -209t-207 -156.5t-237.5 -61.5q-94 0 -182 24.5t-168 68.5t-150.5 102.5t-132.5 126.5 q-66 -37 -120 -64t-89 -43q-4 -2 -16 -7t-31.5 -10t-42 -7.5t-47.5 4.5zM264 1108q0 -51 19.5 -107.5t48 -113t63.5 -108.5t64 -91q68 68 105.5 104.5t61 60.5t38 39t34 36.5t51 58.5t89.5 103q88 100 170 205.5t172 205.5q-39 39 -87.5 81t-103.5 77t-112.5 57.5 t-114.5 22.5h-160q-55 0 -114.5 -41t-108.5 -99.5t-82 -126t-33 -118.5v-246zM575 543q35 -39 86.5 -83t109.5 -82t118.5 -62.5t116.5 -24.5h104q78 0 142.5 42t114.5 104.5t89 134t68 133.5v243q-41 102 -88 205.5t-113 192.5q-150 -180 -310.5 -345t-320.5 -337 q-29 -31 -57.5 -61.5t-59.5 -59.5z" />
<glyph unicode="&#xd9;" horiz-adv-x="1921" d="M0 1753q0 -55 57 -55q82 0 115 -21q55 -31 55 -123v-264q0 -23 -10 -39q-4 -8 -18 -10v-549q0 -199 153 -379q106 -127 283 -233q131 -80 151 -80q33 0 164 96q295 221 330 236h29q0 -100 112 -226q94 -106 123 -106q63 37 109.5 64.5t77.5 48.5q184 119 184 153v37 q-113 0 -182 51q-84 59 -84 176v1158q0 135 30.5 207.5t73.5 105.5q0 18 -22.5 32.5t-42.5 14.5q-23 0 -119 -33t-109 -33q-27 0 -119 27q-98 29 -108 29h-21q-29 0 -28 -37q16 -33 34.5 -63.5t36.5 -63.5q33 -74 33 -215v-768l19 8q2 0 2 -8v-369q0 -33 -158 -141 l-156 -107q-20 0 -121 70q-133 92 -206 180q-109 131 -109 254v387q0 88 14 138q2 8 6.5 16t8.5 18h-19q4 4 8.5 6.5t6.5 4.5q12 8 12 18q0 8 2 24.5t2 28.5v29q0 12 -1 32.5t-1 42t-1 43t-1 36.5q0 207 -137 337q-49 47 -137 91q-20 0 -170 -123q-152 -121 -152 -154z M514 2388q0 41 43 90t102 49q45 0 84 -29.5t68 -95.5l131 -301v-41h-57l-207 148q-164 117 -164 180z" />
<glyph unicode="&#xda;" horiz-adv-x="1921" d="M0 1753q0 33 152 154q150 123 170 123q88 -43 137 -91q137 -131 137 -337q0 -14 1 -36t1 -43.5t1 -42t1 -32.5v-29q0 -12 -2 -28.5t-2 -24.5q0 -10 -12 -18q-2 -2 -6.5 -4.5t-8.5 -6.5h19q-4 -10 -8.5 -18t-6.5 -16q-14 -49 -14 -138v-387q0 -123 109 -254 q74 -88 206 -180q100 -70 121 -70l156 107q158 109 158 141v369q0 8 -2 8l-19 -8v768q0 141 -33 215q-18 33 -36.5 63.5t-34.5 63.5q0 37 28 37h21q10 0 108 -29q92 -27 119 -27q12 0 109 33q96 33 119 33q20 0 42.5 -14.5t22.5 -32.5q-43 -33 -73.5 -105.5t-30.5 -207.5 v-1158q0 -117 84 -176q70 -51 182 -51v-37q0 -35 -184 -153q-31 -20 -77 -48t-110 -65q-29 0 -123 106q-113 125 -112 226h-29q-35 -14 -330 -236q-131 -96 -164 -96q-20 0 -151 80q-176 106 -283 233q-154 180 -153 379v549q14 2 18 10q10 16 10 39v264q0 92 -55 123 q-33 20 -115 21q-57 0 -57 55zM782 2032v41l131 301q29 63 68 94t84 31q59 0 102 -50q43 -49 43 -90q0 -63 -163 -180l-207 -147h-58z" />
<glyph unicode="&#xdb;" horiz-adv-x="1921" d="M0 1753q0 -55 57 -55q82 0 115 -21q55 -31 55 -123v-264q0 -23 -10 -39q-4 -8 -18 -10v-549q0 -199 153 -379q106 -127 283 -233q131 -80 151 -80q33 0 164 96q295 221 330 236h29q0 -100 112 -226q94 -106 123 -106q63 37 109.5 64.5t77.5 48.5q184 119 184 153v37 q-113 0 -182 51q-84 59 -84 176v1158q0 135 30.5 207.5t73.5 105.5q0 18 -22.5 32.5t-42.5 14.5q-23 0 -119 -33t-109 -33q-27 0 -119 27q-98 29 -108 29h-21q-29 0 -28 -37q16 -33 34.5 -63.5t36.5 -63.5q33 -74 33 -215v-768l19 8q2 0 2 -8v-369q0 -33 -158 -141 l-156 -107q-20 0 -121 70q-133 92 -206 180q-109 131 -109 254v387q0 88 14 138q2 8 6.5 16t8.5 18h-19q4 4 8.5 6.5t6.5 4.5q12 8 12 18q0 8 2 24.5t2 28.5v29q0 12 -1 32.5t-1 42t-1 43t-1 36.5q0 207 -137 337q-49 47 -137 91q-20 0 -170 -123q-152 -121 -152 -154z M541 2114l12 34q27 27 63.5 79t77.5 110.5t85 116t85 98.5q16 29 41 47t53 18q16 0 33 -8q27 -8 49 -35q43 -37 89.5 -96t90.5 -121.5t83.5 -119t68.5 -85.5l12 -32l-49 -19q-25 12 -68.5 39t-96 62.5t-107.5 73.5t-100 73q-47 -35 -101.5 -74t-107 -74.5t-96 -63.5 t-68.5 -40z" />
<glyph unicode="&#xdc;" horiz-adv-x="1921" d="M0 1753q0 33 152 154q150 123 170 123q88 -43 137 -91q137 -131 137 -337q0 -14 1 -36t1 -43.5t1 -42t1 -32.5v-29q0 -12 -2 -28.5t-2 -24.5q0 -10 -12 -18q-2 -2 -6.5 -4.5t-8.5 -6.5h19q-4 -10 -8.5 -18t-6.5 -16q-14 -49 -14 -138v-387q0 -123 109 -254 q74 -88 206 -180q100 -70 121 -70l156 107q158 109 158 141v369q0 8 -2 8l-19 -8v768q0 141 -33 215q-18 33 -36.5 63.5t-34.5 63.5q0 37 28 37h21q10 0 108 -29q92 -27 119 -27q12 0 109 33q96 33 119 33q20 0 42.5 -14.5t22.5 -32.5q-43 -33 -73.5 -105.5t-30.5 -207.5 v-1158q0 -117 84 -176q70 -51 182 -51v-37q0 -35 -184 -153q-31 -20 -77 -48t-110 -65q-29 0 -123 106q-113 125 -112 226h-29q-35 -14 -330 -236q-131 -96 -164 -96q-20 0 -151 80q-176 106 -283 233q-154 180 -153 379v549q14 2 18 10q10 16 10 39v264q0 92 -55 123 q-33 20 -115 21q-57 0 -57 55zM559 2273q0 86 44 131t110 45q33 0 64.5 -13t54 -34.5t37 -49t14.5 -58.5q0 -53 -82 -178q-90 -135 -152 -136q-29 0 -59 103q-31 104 -31 190zM946 2279q0 86 44 131.5t110 45.5q33 0 64.5 -13.5t54 -35t37 -49t14.5 -58.5q0 -53 -82 -178 q-90 -135 -152 -135q-29 0 -59 102q-31 104 -31 190z" />
<glyph unicode="&#xdd;" horiz-adv-x="1986" d="M0 1739q0 18 178 164q182 145 209 145q143 0 244 -242q51 -121 162 -555q53 -209 103 -360.5t91 -253.5q23 -53 38 -95t30 -69q90 -164 198 -164q8 0 125 195q119 193 160 276l92 185q47 92 71.5 172t24.5 147q0 88 -86 178q-193 199 -192 248v135q0 55 80 129t141 74h80 q39 0 109 -41q84 -53 84 -113q0 -49 -9 -57q-10 -10 -49 -18q-4 37 -12 57q-16 47 -43 47q-31 0 -55.5 -24.5t-24.5 -53.5q0 -27 115 -119t114 -178v-80q0 -92 -51 -208q-25 -59 -66.5 -143.5t-103.5 -192.5l-291 -510q-117 -207 -187.5 -335t-98.5 -175q-23 -35 -43.5 -67 t-42.5 -58q-43 -47 -78 -84t-62 -60q-164 -145 -262 -145h-174q-39 0 -133 31q-117 37 -117 73l107 168q109 170 112 170l50 -96q49 -96 225 -96q137 0 242 129q37 47 77 131q-90 35 -198 115q-123 90 -207 254l-150 475q-2 14 -22.5 91t-59.5 218q-43 156 -70.5 248 t-43.5 125q-33 66 -54.5 104.5t-31.5 48.5q-37 39 -88 39q-55 0 -70 -18q-16 -18 -37 -19q-4 0 -11 6.5t-16.5 15.5t-15.5 19.5t-6 16.5zM989 2071v40l131 302q29 66 68 95t84 29q59 0 102 -49t43 -90q0 -63 -164 -180l-206 -147h-58z" />
<glyph unicode="&#xde;" horiz-adv-x="1488" d="M-2 1638v60q8 8 41 32.5t96 67.5q137 96 162 96q12 0 44 -4t63.5 -12t57 -22.5t25.5 -34.5l9 -715l409 256q143 -55 279 -209q168 -188 168 -387v-80q0 -225 -222 -461q-213 -225 -385 -225h-81q-6 0 -97 47q-49 27 -100 43v-459q0 -10 15.5 -39.5t43.5 -58.5v-72h-51 q-35 14 -58.5 22.5t-33.5 12.5q-55 16 -96 17q-35 0 -81 -15.5t-75 -15.5h-53v61q14 10 23.5 19.5l17.5 17.5q51 53 51 178v412q-27 -4 -45 -14q-33 -16 -52.5 -24.5t-23.5 -10.5q-12 20 -12 33q0 6 6 10q6 2 6 6q0 84 60 115q61 33 61 73v596v68.5t1 127.5t0 153.5 t-4 150.5t-7 117t-13 53q-16 10 -59 12t-90 2zM506 453q74 -18 147 -64q106 -66 191 -153h121l120 133q58 82 58 215q0 184 -105 323q-74 96 -198 166q-88 47 -107 47l-22 -18q-35 -29 -80 -53.5t-103 -53.5l-6 -231h-16q2 -6 4 -52t2 -106q0 -61 -6 -100v-53z" />
<glyph unicode="&#xdf;" horiz-adv-x="1673" d="M0 975q0 25 14.5 65.5t35 83.5t45 80t42.5 53v254q0 78 50.5 172.5t127 175t167.5 135t171 54.5h52q18 0 58 -6t81 -18.5t71.5 -31t30.5 -42.5q-16 -29 -38.5 -65t-47 -72.5t-50.5 -70.5t-48 -54q-16 16 -42 37.5t-54.5 42t-57 34t-51.5 13.5h-119v-519l2 -2h-10l8 2 l-8 -301v-712q0 -43 6 -72t16.5 -53.5t27 -49t36.5 -59.5q0 -35 -39 -49q-10 2 -31.5 8t-45 13.5t-44 12.5t-24.5 5h-88q-20 0 -58.5 -19.5t-79.5 -19.5q-39 0 -38 39q0 20 11 38.5t23.5 36t23.5 35t11 35.5v801q-35 0 -48 -9t-17 -20.5t-9.5 -20.5t-23.5 -9 q-16 0 -27.5 17.5t-11.5 31.5zM268 1135q0 23 10.5 48t24.5 51t31.5 48.5t32.5 40.5q61 74 138 117t175 43q66 0 129 -19.5t123.5 -44t117 -44t105.5 -19.5q31 0 69 16.5t74.5 37t68.5 36.5t50 16q31 0 45.5 -17t18.5 -46l-506 -539q68 -45 132 -84t114.5 -85t81 -108.5 t30.5 -154.5q0 -49 -2 -82t-9 -61.5t-22.5 -58t-39.5 -70.5q-59 -100 -142.5 -180t-169.5 -156t-167 -158t-138 -186q-8 -16 -17.5 -28.5t-31.5 -12.5q-23 0 -43.5 25.5t-20.5 47.5q0 39 35 91.5t88.5 113t114.5 125t114.5 131t88.5 133t35 125.5v95q0 45 -21.5 82.5 t-56.5 66.5t-78 45t-86 16q-55 0 -94 -18t-86 -45q-18 6 -29.5 25.5t-11.5 37.5q0 16 29.5 54.5t75.5 85.5t98.5 99t98.5 101.5t76.5 90.5t32.5 65q-23 10 -86 38t-132.5 57.5t-129 52t-76.5 22.5q-53 0 -86.5 -18.5t-55 -40t-36 -40t-33.5 -18.5q-12 0 -31.5 19.5 t-19.5 34.5z" />
<glyph unicode="&#xe0;" horiz-adv-x="1519" d="M0 588q0 -256 186 -436q158 -152 303 -152q20 0 189 113q168 113 174 112l115 -147q53 -68 110 -68q14 0 162 99l141 96q0 14 -118 59q-117 45 -117 176v441q0 111 59 206q51 86 127 177v39h-39q-121 -96 -184 -97q-49 0 -164 78t-170 78q-272 0 -530 -279 q-244 -262 -244 -495zM274 745q0 20 10.5 46t10.5 32q0 129 67 226q70 98 166 98q61 0 166 -98q104 -98 187 -99q12 4 26.5 8.5t32.5 4.5q27 0 49 -13v29q-31 -61 -57.5 -110.5t-48.5 -84.5q-8 -14 -18.5 -28.5t-22.5 -30.5v-391l-64 -27q-57 -23 -112 -22q-141 0 -248 141 q-143 186 -144 319zM385 1774q0 41 43 90t102 49q45 0 84 -30t68 -95l131 -301v-41h-57l-207 147q-164 118 -164 181z" />
<glyph unicode="&#xe1;" horiz-adv-x="1519" d="M0 588q0 233 244 495q258 279 530 279q55 0 170 -78t164 -78q63 0 184 97h39v-39q-76 -90 -127 -177q-59 -96 -59 -206v-441q0 -131 117 -176q119 -45 118 -59l-141 -96q-147 -98 -162 -99q-57 0 -110 68l-115 147q-6 0 -174 -112q-168 -113 -189 -113q-145 0 -303 152 q-186 180 -186 436zM274 745q0 -133 144 -319q106 -141 248 -141q55 0 112 22l64 27v391q12 16 22 30.5t19 28.5q23 35 49 84.5t57 110.5v-29q-23 12 -49 13q-18 0 -32.5 -4.5t-26.5 -8.5q-82 0 -187 99q-104 98 -166 98q-96 0 -166 -98q-68 -96 -67 -226q0 -6 -10.5 -31.5 t-10.5 -46.5zM627 1446v41l131 301q29 66 67.5 95.5t83.5 29.5q59 0 103 -49q43 -49 43 -90q0 -63 -164 -181l-207 -147h-57z" />
<glyph unicode="&#xe2;" horiz-adv-x="1519" d="M0 588q0 -256 186 -436q158 -152 303 -152q20 0 189 113q168 113 174 112l115 -147q53 -68 110 -68q14 0 162 99l141 96q0 14 -118 59q-117 45 -117 176v441q0 111 59 206q51 86 127 177v39h-39q-121 -96 -184 -97q-49 0 -164 78t-170 78q-272 0 -530 -279 q-244 -262 -244 -495zM274 745q0 20 10.5 46t10.5 32q0 129 67 226q70 98 166 98q61 0 166 -98q104 -98 187 -99q12 4 26.5 8.5t32.5 4.5q27 0 49 -13v29q-31 -61 -57.5 -110.5t-48.5 -84.5q-8 -14 -18.5 -28.5t-22.5 -30.5v-391l-64 -27q-57 -23 -112 -22q-141 0 -248 141 q-143 186 -144 319zM317 1427l13 35q27 27 63.5 79t77.5 110.5t85 116t85 98.5q16 29 40 47t52 18q18 0 35 -8q27 -8 49 -35q43 -37 89 -96t90 -121.5t83 -119t68 -85.5l12 -32l-47 -19q-25 12 -69 39t-96 62.5t-107.5 73.5t-100.5 73q-47 -35 -101 -74t-106.5 -74.5 t-97 -63.5t-69.5 -40z" />
<glyph unicode="&#xe3;" horiz-adv-x="1519" d="M0 588q0 233 244 495q258 279 530 279q55 0 170 -78t164 -78q63 0 184 97h39v-39q-76 -90 -127 -177q-59 -96 -59 -206v-441q0 -131 117 -176q119 -45 118 -59l-141 -96q-147 -98 -162 -99q-57 0 -110 68l-115 147q-6 0 -174 -112q-168 -113 -189 -113q-145 0 -303 152 q-186 180 -186 436zM274 745q0 -133 144 -319q106 -141 248 -141q55 0 112 22l64 27v391q12 16 22 30.5t19 28.5q23 35 49 84.5t57 110.5v-29q-23 12 -49 13q-18 0 -32.5 -4.5t-26.5 -8.5q-82 0 -187 99q-104 98 -166 98q-96 0 -166 -98q-68 -96 -67 -226q0 -6 -10.5 -31.5 t-10.5 -46.5zM336 1587q27 125 129 211q100 88 190 88q16 0 23 -2l139 -24q55 -25 109.5 -46.5t89.5 -27.5q8 -2 24 -2q53 0 95.5 28.5t70.5 75.5l58 -10q0 -27 -2 -33q-8 -18 -11 -33q-18 -106 -123 -223q-104 -115 -194 -114q-16 0 -21 2l-94 16q-8 2 -36.5 14.5 t-80.5 38.5q-53 27 -79 31q-12 2 -39 9t-68 20q-80 25 -117 24q-27 0 -43 -9t-20 -34z" />
<glyph unicode="&#xe4;" horiz-adv-x="1519" d="M0 588q0 233 244 495q258 279 530 279q55 0 170 -78t164 -78q63 0 184 97h39v-39q-76 -90 -127 -177q-59 -96 -59 -206v-441q0 -131 117 -176q119 -45 118 -59l-141 -96q-147 -98 -162 -99q-57 0 -110 68l-115 147q-6 0 -174 -112q-168 -113 -189 -113q-145 0 -303 152 q-186 180 -186 436zM274 745q0 -133 144 -319q106 -141 248 -141q55 0 112 22l64 27v391q12 16 22 30.5t19 28.5q23 35 49 84.5t57 110.5v-29q-23 12 -49 13q-18 0 -32.5 -4.5t-26.5 -8.5q-82 0 -187 99q-104 98 -166 98q-96 0 -166 -98q-68 -96 -67 -226q0 -6 -10.5 -31.5 t-10.5 -46.5zM389 1456v41l131 301q29 66 68 95.5t84 29.5q59 0 102 -49t43 -90q0 -59 -164 -180l-207 -148h-57zM766 1446v41l131 301q29 66 68 95.5t84 29.5q59 0 102 -49t43 -90q0 -66 -164 -181l-207 -147h-57z" />
<glyph unicode="&#xe5;" horiz-adv-x="1519" d="M0 588q0 233 244 495q258 279 530 279q55 0 170 -78t164 -78q63 0 184 97h39v-39q-76 -90 -127 -177q-59 -96 -59 -206v-441q0 -131 117 -176q119 -45 118 -59l-141 -96q-147 -98 -162 -99q-57 0 -110 68l-115 147q-6 0 -174 -112q-168 -113 -189 -113q-145 0 -303 152 q-186 180 -186 436zM274 745q0 -133 144 -319q106 -141 248 -141q55 0 112 22l64 27v391q12 16 22 30.5t19 28.5q23 35 49 84.5t57 110.5v-29q-23 12 -49 13q-18 0 -32.5 -4.5t-26.5 -8.5q-82 0 -187 99q-104 98 -166 98q-96 0 -166 -98q-68 -96 -67 -226q0 -6 -10.5 -31.5 t-10.5 -46.5zM592 1616v39q0 59 65 127q70 74 136 73h38q59 0 125 -55q72 -63 72 -145q0 -80 -86 -148q-74 -55 -133 -55q-96 0 -164 68q-53 57 -53 96zM659 1702q0 -51 78 -113q80 -61 142 -61q27 0 47 16l35 41v39l-29 43q-35 45 -74 74q-53 41 -115 41q-33 0 -59 -25 q-25 -23 -25 -55z" />
<glyph unicode="&#xe6;" horiz-adv-x="2240" d="M0 588q0 233 244 495q258 279 530 279q55 0 170 -78t164 -78q63 0 184 97h39v-39l-6 -7q127 100 252 101h98q68 0 283 -129q217 -129 217 -156q0 -25 -156 -129q-61 -41 -136 -87t-165 -99l-200 -115q-92 -53 -139.5 -80.5t-47.5 -38.5q29 -35 52.5 -62.5t46.5 -43.5 q133 -109 292 -109q129 0 226 74l157 162q27 0 34 -17.5t7 -50.5q0 -156 -170 -319q-168 -162 -311 -162h-137q-111 0 -252 137l-37 -24q-147 -98 -162 -99q-57 0 -110 68l-115 147q-6 0 -174 -112q-168 -113 -189 -113q-145 0 -303 152q-186 180 -186 436zM274 745 q0 -133 144 -319q106 -141 248 -141q55 0 112 22l64 27v391q12 16 22 30.5t19 28.5q20 33 43.5 76t50.5 96q-16 6 -37 7q-18 0 -32.5 -4.5t-26.5 -8.5q-82 0 -187 99q-104 98 -166 98q-96 0 -166 -98q-68 -96 -67 -226q0 -6 -10.5 -31.5t-10.5 -46.5zM1233 770q16 -8 20 -47 q2 -35 50 -80q8 10 50 38t117 71q84 49 166 97t166 97q-94 45 -225 211q-43 53 -109 53q-78 0 -139 -73q-25 -43 -49.5 -86t-46.5 -86v-195z" />
<glyph unicode="&#xe7;" horiz-adv-x="1189" d="M0 559v223q0 166 170 365q186 215 399 215q31 0 76 -9.5t105 -33.5l108 -45h78q16 0 35 12q45 29 61 29q49 0 49 -41q0 -45 -92 -139q-109 -111 -198 -111q-92 0 -273 78q-86 39 -143 39q-96 0 -168 -90q-53 -70 -53 -113v-107q0 -125 165 -299q174 -184 318 -184h125 q33 0 65.5 14.5t65.5 36t64.5 49t64.5 54.5h59v-125q0 -102 -147 -232q-170 -145 -356 -145q-268 0 -441 225q-137 180 -137 334zM365 -303q0 31 88 45q86 14 86 98q0 41 -50.5 125t-119.5 232l419 -29q-18 -16 -202 -123q8 -18 80 -139q55 -92 55 -139v-78q0 -35 -43 -99 q-43 -66 -53 -65l-131 74q-129 72 -129 98z" />
<glyph unicode="&#xe8;" horiz-adv-x="1228" d="M0 549q0 -170 168 -359q168 -190 303 -190h137q143 0 312 162q170 164 170 319q0 33 -7.5 50.5t-33.5 17.5l-158 -162q-96 -74 -225 -74q-160 0 -293 109q-23 16 -46.5 44t-52.5 62q0 10 47.5 38t139.5 81l201 115q90 51 164.5 98t136.5 88q155 104 155 129 q0 27 -217 156q-215 129 -283 129h-98q-176 0 -354 -201q-166 -188 -166 -348v-264zM104 1808q0 41 43 90t103 50q45 0 84 -30t67 -95l131 -301v-41h-57l-207 147q-164 117 -164 180zM176 774v195q23 43 47.5 86t48.5 86q61 74 140 73q66 0 108 -53q131 -166 225 -211 q-84 -49 -165.5 -98t-165.5 -96q-154 -90 -168 -109q-47 45 -49 80q-4 39 -21 47z" />
<glyph unicode="&#xe9;" horiz-adv-x="1228" d="M0 549v264q0 160 166 348q178 201 354 201h98q68 0 283 -129q217 -129 217 -156q0 -25 -155 -129q-61 -41 -136 -88t-165 -98l-201 -115q-92 -53 -139.5 -80.5t-47.5 -38.5q29 -35 52.5 -62.5t46.5 -43.5q133 -109 293 -109q129 0 225 74l158 162q27 0 34 -17.5t7 -50.5 q0 -156 -170 -319q-168 -162 -312 -162h-137q-135 0 -303 190q-168 188 -168 359zM176 774q16 -8 21 -47q2 -35 49 -80q14 18 168 109q84 47 165.5 96t165.5 98q-94 45 -225 211q-43 53 -108 53q-78 0 -140 -73q-25 -43 -49 -86t-47 -86v-195zM313 1446v41l131 301 q29 63 68 94t84 31q59 0 102 -49t43 -90q0 -63 -163 -181l-207 -147h-58z" />
<glyph unicode="&#xea;" horiz-adv-x="1228" d="M0 549q0 -170 168 -359q168 -190 303 -190h137q143 0 312 162q170 164 170 319q0 33 -7.5 50.5t-33.5 17.5l-158 -162q-96 -74 -225 -74q-160 0 -293 109q-23 16 -46.5 44t-52.5 62q0 10 47.5 38t139.5 81l201 115q90 51 164.5 98t136.5 88q155 104 155 129 q0 27 -217 156q-215 129 -283 129h-98q-176 0 -354 -201q-166 -188 -166 -348v-264zM145 1393l13 34q27 27 63.5 78t77.5 109.5t85 117t85 99.5q16 27 41 46t53 19q8 0 16.5 -2t18.5 -6q29 -10 47 -35q43 -37 89 -96t91 -121.5t84 -119t68 -84.5l12 -35l-49 -17 q-25 12 -69 39t-96 63t-107.5 73.5t-100.5 72.5q-47 -35 -101 -73.5t-106.5 -74.5t-96 -64t-68.5 -40zM176 774v195q23 43 47.5 86t48.5 86q61 74 140 73q66 0 108 -53q131 -166 225 -211q-84 -49 -165.5 -98t-165.5 -96q-154 -90 -168 -109q-47 45 -49 80q-4 39 -21 47z " />
<glyph unicode="&#xeb;" horiz-adv-x="1228" d="M0 549v264q0 160 166 348q178 201 354 201h98q68 0 283 -129q217 -129 217 -156q0 -25 -155 -129q-61 -41 -136 -88t-165 -98l-201 -115q-92 -53 -139.5 -80.5t-47.5 -38.5q29 -35 52.5 -62.5t46.5 -43.5q133 -109 293 -109q129 0 225 74l158 162q27 0 34 -17.5t7 -50.5 q0 -156 -170 -319q-168 -162 -312 -162h-137q-135 0 -303 190q-168 188 -168 359zM176 774q16 -8 21 -47q2 -35 49 -80q14 18 168 109q84 47 165.5 96t165.5 98q-94 45 -225 211q-43 53 -108 53q-78 0 -140 -73q-25 -43 -49 -86t-47 -86v-195zM283 1487v41l131 301 q29 66 67.5 95.5t83.5 29.5q59 0 103 -49q43 -49 43 -90q0 -66 -164 -181l-207 -147h-57zM662 1475v41l131 301q29 66 67.5 95.5t83.5 29.5q59 0 103 -50q43 -49 43 -90q0 -63 -164 -180l-207 -147h-57z" />
<glyph unicode="&#xec;" horiz-adv-x="684" d="M-57 1815q0 41 43 90t102 49q45 0 84 -30t68 -95l131 -301v-41h-58l-207 147q-163 115 -163 181zM0 1151q39 -51 72 -51q59 0 95 -21.5t36 -83.5v-729q0 -66 -29 -123l-51 -102v-41h498v31q-8 12 -23.5 31.5t-36.5 48.5q-18 25 -25.5 53.5t-7.5 60.5v887q-16 41 -30.5 73 t-24.5 52q-63 125 -117 125q-20 0 -170 -88q-156 -88 -186 -123z" />
<glyph unicode="&#xed;" horiz-adv-x="684" d="M0 1151q31 35 186 123q150 88 170 88q53 0 117 -125q10 -20 24.5 -52t30.5 -73v-887q0 -33 7.5 -61.5t25.5 -52.5q20 -29 35.5 -48.5t24.5 -31.5v-31h-498v41l51 102q29 57 29 123v729q0 61 -36 83t-95 22q-33 0 -72 51zM313 1446v41l131 301q29 63 68 94t84 31 q59 0 102 -49t43 -90q0 -63 -163 -181l-207 -147h-58z" />
<glyph unicode="&#xee;" horiz-adv-x="684" d="M-72 1339l13 35q27 27 63.5 78t77.5 109.5t85 117t85 99.5q16 29 39.5 47t52.5 18q18 0 35 -8q27 -8 49 -35q43 -37 89 -96t90 -121.5t83 -119t68 -85.5l12 -35l-47 -16q-25 12 -69 39t-96 62.5t-107.5 73.5t-100.5 73q-47 -35 -101 -74t-106.5 -74.5t-97.5 -63.5 t-70 -40zM0 1151q39 -51 72 -51q59 0 95 -21.5t36 -83.5v-729q0 -66 -29 -123l-51 -102v-41h498v31q-8 12 -23.5 31.5t-36.5 48.5q-18 25 -25.5 53.5t-7.5 60.5v887q-16 41 -30.5 73t-24.5 52q-63 125 -117 125q-20 0 -170 -88q-156 -88 -186 -123z" />
<glyph unicode="&#xef;" horiz-adv-x="684" d="M0 1151q31 35 186 123q150 88 170 88q53 0 117 -125q10 -20 24.5 -52t30.5 -73v-887q0 -33 7.5 -61.5t25.5 -52.5q20 -29 35.5 -48.5t24.5 -31.5v-31h-498v41l51 102q29 57 29 123v729q0 61 -36 83t-95 22q-33 0 -72 51zM121 1477v41l131 301q29 66 67.5 95.5t83.5 29.5 q59 0 103 -50q43 -49 43 -90q0 -66 -164 -180l-207 -147h-57zM487 1464v41l131 301q29 66 68 95.5t84 29.5q59 0 102 -49t43 -90q0 -63 -163 -180l-207 -148h-58z" />
<glyph unicode="&#xf0;" horiz-adv-x="1423" d="M92 809v88q0 135 154 307t268 172q53 0 242 -96q47 -25 80.5 -40t59.5 -26.5t46.5 -19.5t40.5 -14l-43 86q-18 37 -42 76.5t-46 74.5q-27 37 -60.5 80t-66.5 78q-37 41 -78 84q-6 6 -12 13t-14 16q-35 -18 -64 -35t-39 -21q-37 -25 -87 -59.5t-95 -67t-79 -53t-38 -14.5 q-14 18 9.5 55t69.5 82t107.5 95t122.5 95q-53 43 -111.5 84t-109.5 75t-88 57.5t-45 31.5q-14 12 -23.5 23.5t-10.5 27t9.5 37t38.5 58.5q14 14 23.5 29.5t24 21.5t42 -1t78.5 -38q8 -4 65.5 -35t135.5 -84q29 -18 81.5 -57t109.5 -86q16 12 23 19t13 14q25 20 70 61t91 81 t84 70.5t48 32.5q4 0 0 -14q-4 -12 -17 -41t-42 -84q-18 -33 -41 -65.5t-47.5 -62.5t-47 -54.5t-40.5 -38.5q45 -41 80.5 -76t81.5 -88q55 -68 100 -125t80 -116.5t62.5 -125t49.5 -149.5q27 -96 27 -213t-10 -219q-12 -121 -35 -240q-25 -78 -46.5 -135t-43.5 -96 q-119 -229 -293 -230q-39 0 -274 162q-39 27 -95.5 68t-130.5 94q-156 141 -229.5 257t-73.5 214zM338 748l12 -119q4 -37 48 -105.5t102 -134.5q29 -33 63.5 -51.5t69.5 -28.5t65.5 -13t53.5 -3q14 0 23 1t19.5 8t25 22.5t40.5 42.5q27 27 50.5 68.5t41 85.5t26.5 83t9 60 l-6 278q-33 74 -52.5 105.5t-31.5 39.5q-82 53 -139 54q-31 0 -69 -7.5t-79 -22.5t-79.5 -41t-71.5 -60q-61 -68 -94 -136.5t-27 -125.5z" />
<glyph unicode="&#xf1;" horiz-adv-x="1636" d="M0 1163q0 10 33 40t100 73l133 86q41 0 82 -29.5t76 -93.5l100 -176l480 289q102 -41 206 -164q109 -133 109 -242v-559q0 -184 84 -188t84 -39q0 -14 -127 -99q-41 -29 -129 -79q-23 0 -123 81q-115 96 -115 156v637q0 80 -32 125q-33 49 -148 131l-299 -174v-739 q0 -98 33 -119q18 -12 18 -49v-31h-71q-8 8 -27 16q-63 33 -139 33q-55 0 -150 -49h-39q-2 10 -3 17.5t-1 15.5q4 8 4 16q0 25 33 111q35 92 35 108v707q0 96 -105 133q-102 35 -102 55zM236 1546q27 125 129 211q100 88 190 88q16 0 23 -2l139 -24q55 -25 109.5 -46.5 t88.5 -27.5q8 -2 25 -2q53 0 95 28.5t71 75.5l57 -10q0 -27 -2 -33q-8 -18 -10 -32q-18 -106 -123 -224q-104 -115 -194 -114q-16 0 -21 2l-94 16q-8 2 -37 14.5t-80 38.5q-53 27 -80 31q-12 2 -38.5 9t-67.5 20q-80 25 -117 24q-27 0 -43 -9t-20 -34z" />
<glyph unicode="&#xf2;" d="M0 553q0 -135 154 -322q190 -231 456 -231q168 0 377 190q242 222 242 494q0 281 -205 492q-180 186 -348 186h-113q-184 0 -379 -250q-184 -238 -184 -428v-131zM190 848q0 109 72 186q74 80 166 80q170 0 324 -135q53 -47 105 -110.5t99 -143.5l82 -143v-133l-98 -138 q-57 -53 -131 -53q-178 0 -397 205q-221 205 -222 385zM217 1806q0 41 43 90t102 50q45 0 84 -30t68 -95l131 -301v-41h-57l-207 147q-164 117 -164 180z" />
<glyph unicode="&#xf3;" d="M0 553v131q0 190 184 428q195 250 379 250h113q168 0 348 -186q205 -211 205 -492q0 -272 -242 -494q-209 -190 -377 -190q-266 0 -456 231q-154 186 -154 322zM190 848q0 -180 222 -385q219 -205 397 -205q74 0 131 53l98 138v133l-82 143q-47 80 -99 143.5t-105 110.5 q-154 135 -324 135q-92 0 -166 -80q-72 -78 -72 -186zM571 1458v41l131 301q29 63 68 94t84 31q59 0 102 -49t43 -90q0 -66 -163 -180l-207 -148h-58z" />
<glyph unicode="&#xf4;" d="M0 553q0 -135 154 -322q190 -231 456 -231q168 0 377 190q242 222 242 494q0 281 -205 492q-180 186 -348 186h-113q-184 0 -379 -250q-184 -238 -184 -428v-131zM190 848q0 109 72 186q74 80 166 80q170 0 324 -135q53 -47 105 -110.5t99 -143.5l82 -143v-133l-98 -138 q-57 -53 -131 -53q-178 0 -397 205q-221 205 -222 385zM215 1370l12 35q27 27 64 78t78 109.5t84 116.5t84 99q16 27 40.5 46.5t53.5 19.5q18 0 35 -8q27 -8 49 -35q43 -37 89 -96.5t90 -122t83 -118.5t67 -85l13 -35l-47 -16q-25 12 -69 38.5t-96 62.5t-107.5 74t-100.5 73 q-47 -35 -101.5 -74t-106.5 -75t-97 -63.5t-70 -39.5z" />
<glyph unicode="&#xf5;" d="M0 553v131q0 190 184 428q195 250 379 250h113q168 0 348 -186q205 -211 205 -492q0 -272 -242 -494q-209 -190 -377 -190q-266 0 -456 231q-154 186 -154 322zM174 1597q14 63 47 115.5t82 95.5q102 88 191 88q16 0 22 -2l139 -24q55 -25 109.5 -46.5t89.5 -27.5 q8 -2 25 -2q53 0 95 28.5t70 75.5l58 -10q0 -27 -2 -33q-8 -18 -10 -32q-18 -111 -123 -224q-102 -115 -195 -114q-16 0 -20 2l-95 16q-8 2 -36.5 14.5t-79.5 38.5q-53 27 -80 31q-12 2 -39 9.5t-68 19.5q-80 25 -116 24q-27 0 -43.5 -9t-20.5 -34zM190 848q0 -180 222 -385 q219 -205 397 -205q74 0 131 53l98 138v133l-82 143q-47 80 -99 143.5t-105 110.5q-154 135 -324 135q-92 0 -166 -80q-72 -78 -72 -186z" />
<glyph unicode="&#xf6;" d="M0 553v131q0 190 184 428q195 250 379 250h113q168 0 348 -186q205 -211 205 -492q0 -272 -242 -494q-209 -190 -377 -190q-266 0 -456 231q-154 186 -154 322zM190 848q0 -180 222 -385q219 -205 397 -205q74 0 131 53l98 138v133l-82 143q-47 80 -99 143.5t-105 110.5 q-154 135 -324 135q-92 0 -166 -80q-72 -78 -72 -186zM328 1462v41l131 301q29 63 67.5 94t83.5 31q59 0 103 -49q43 -49 43 -90q0 -63 -164 -180l-207 -148h-57zM692 1448v41l131 301q29 66 68 95.5t84 29.5q59 0 102 -49t43 -90q0 -66 -164 -181l-206 -147h-58z" />
<glyph unicode="&#xf7;" horiz-adv-x="1079" d="M61 639v137h947v-137h-947zM342 299l201 199q61 -37 110 -93.5t60 -121.5l-183 -168q-47 57 -90 100t-98 84zM342 1073l201 199q61 -37 110 -93.5t60 -121.5l-183 -168q-47 57 -90 100t-98 84z" />
<glyph unicode="&#xf8;" d="M-143 78q12 12 41.5 35.5t68.5 51.5t79 56.5t73 54.5q-45 59 -69.5 103.5t-35 88.5t-12.5 94t-2 122q0 92 51 209t132 221.5t181.5 176t198.5 71.5h113q92 0 169 -45t142 -105q29 27 63.5 54.5t71.5 52t77 43t79 24.5q-29 -45 -51.5 -77.5t-46 -60t-51 -53.5t-68.5 -58 q90 -100 129 -209t39 -244q0 -152 -66.5 -273.5t-175.5 -220.5q-37 -35 -81 -68.5t-92 -61t-99 -44t-105 -16.5q-135 0 -235.5 49t-188.5 150q-25 -14 -41 -23.5t-31.5 -19t-33 -19.5t-43.5 -24q-12 -6 -37 -14.5t-52.5 -15.5t-53 -9t-37.5 4zM190 848q0 -100 51.5 -180 t116.5 -148q14 16 24.5 25.5t22 21t26.5 27.5t44 47q72 80 139.5 168t139.5 168q-66 61 -150 99t-176 38q-51 0 -95 -23.5t-76 -61.5t-49.5 -85t-17.5 -96zM463 418q37 -31 77 -59.5t84 -51t90 -36t95 -13.5q45 0 78 17.5t59.5 45t47.5 61.5t44 67v133q-45 78 -89 154.5 t-103 146.5q-43 -61 -86 -117.5t-88 -112t-96.5 -113t-112.5 -122.5z" />
<glyph unicode="&#xf9;" horiz-adv-x="1609" d="M0 1139q0 -35 35 -35q2 0 20.5 2t32.5 2q31 0 49.5 -18.5t18.5 -71.5v-666q0 -86 170 -219q147 -115 233 -135l404 248q147 -248 206 -248q16 0 82 45q78 51 213 152v41q-51 14 -92 23t-74 17l-53 125v660q10 47 21.5 88t25.5 76q16 41 41 78q0 23 -7 36t-32 13 q-20 0 -61 -21q-43 -18 -53 -18h-117q-27 10 -50.5 20t-70.5 10h-49v-40q20 -23 33.5 -44.5t23.5 -39.5q12 -29 13 -41v-740q0 -63 -105 -133q-90 -59 -131 -59q-125 0 -205 110q-72 102 -71 240v217q0 25 14 33q4 2 14 16v238q0 113 -63 196q-49 66 -72 66q-16 0 -180 -100 q-164 -102 -164 -123zM317 1772q0 41 43 90t103 49q45 0 84 -31t67 -94l131 -301v-41h-57l-207 147q-164 118 -164 181z" />
<glyph unicode="&#xfa;" horiz-adv-x="1609" d="M0 1139q0 20 164 123q164 100 180 100q23 0 72 -66q63 -84 63 -196v-238q-10 -14 -14 -16q-14 -8 -14 -33v-217q0 -137 71 -240q80 -111 205 -110q41 0 131 59q104 70 105 133v740q0 12 -13 41q-10 18 -23.5 39.5t-33.5 44.5v40h49q47 0 70.5 -10t50.5 -20h117 q10 0 53 18q41 20 61 21q25 0 32 -13.5t7 -35.5q-25 -37 -41 -78q-14 -35 -25.5 -76t-21.5 -88v-660l53 -125q33 -8 74 -17t92 -23v-41q-135 -100 -213 -152q-66 -45 -82 -45q-59 0 -206 248l-404 -248q-86 20 -233 135q-170 133 -170 219v666q0 53 -18.5 71.5t-49.5 18.5 q-14 0 -32.5 -2t-20.5 -2q-35 0 -35 35zM569 1444v41l131 301q29 63 68 94t84 31q59 0 102 -49t43 -90q0 -63 -163 -181l-207 -147h-58z" />
<glyph unicode="&#xfb;" horiz-adv-x="1609" d="M0 1139q0 -35 35 -35q2 0 20.5 2t32.5 2q31 0 49.5 -18.5t18.5 -71.5v-666q0 -86 170 -219q147 -115 233 -135l404 248q147 -248 206 -248q16 0 82 45q78 51 213 152v41q-51 14 -92 23t-74 17l-53 125v660q10 47 21.5 88t25.5 76q16 41 41 78q0 23 -7 36t-32 13 q-20 0 -61 -21q-43 -18 -53 -18h-117q-27 10 -50.5 20t-70.5 10h-49v-40q20 -23 33.5 -44.5t23.5 -39.5q12 -29 13 -41v-740q0 -63 -105 -133q-90 -59 -131 -59q-125 0 -205 110q-72 102 -71 240v217q0 25 14 33q4 2 14 16v238q0 113 -63 196q-49 66 -72 66q-16 0 -180 -100 q-164 -102 -164 -123zM295 1479l12 34q27 27 64 79.5t77.5 110.5t85 115.5t84.5 98.5q16 29 40 47t53 18q18 0 34 -8q25 -8 50 -32q43 -37 89 -97.5t90 -123t84 -118t68 -83.5l13 -35l-49 -19q-25 12 -69 40t-96.5 63t-107.5 72.5t-100 72.5q-47 -35 -101.5 -73.5 t-106.5 -74.5t-97 -64t-70 -40z" />
<glyph unicode="&#xfc;" horiz-adv-x="1609" d="M0 1139q0 20 164 123q164 100 180 100q23 0 72 -66q63 -84 63 -196v-238q-10 -14 -14 -16q-14 -8 -14 -33v-217q0 -137 71 -240q80 -111 205 -110q41 0 131 59q104 70 105 133v740q0 12 -13 41q-10 18 -23.5 39.5t-33.5 44.5v40h49q47 0 70.5 -10t50.5 -20h117 q10 0 53 18q41 20 61 21q25 0 32 -13.5t7 -35.5q-25 -37 -41 -78q-14 -35 -25.5 -76t-21.5 -88v-660l53 -125q33 -8 74 -17t92 -23v-41q-135 -100 -213 -152q-66 -45 -82 -45q-59 0 -206 248l-404 -248q-86 20 -233 135q-170 133 -170 219v666q0 53 -18.5 71.5t-49.5 18.5 q-14 0 -32.5 -2t-20.5 -2q-35 0 -35 35zM348 1458v41l131 301q29 66 68 95.5t84 29.5q59 0 102 -49t43 -90q0 -63 -164 -180l-206 -148h-58zM739 1442v41l131 301q29 66 68 95.5t84 29.5q59 0 102 -49q43 -50 43 -91q0 -66 -163 -180l-207 -147h-58z" />
<glyph unicode="&#xfd;" horiz-adv-x="1394" d="M0 1159q0 10 139 107l140 96q49 0 139 -121q92 -121 92 -168v-534q0 -106 61 -189q61 -84 131 -84q23 0 69 62.5t116 191.5l139 258v189q0 94 -115 123q-113 27 -112 53q0 27 151 117l152 92q53 0 112 -78q51 -70 52 -125v-96q0 -57 -40 -157.5t-128 -242.5l-314 -501 q-86 -137 -128 -226.5t-42 -130.5q0 -84 86 -98q88 -14 88 -45q0 -27 -129 -98l-131 -74q-10 0 -53 65q-43 63 -43 99v77q0 47 55 140q72 121 80 139q-184 106 -202 123q-143 106 -144 223v621q0 80 -48 116.5t-134 36.5q-12 0 -25.5 11.5t-13.5 27.5zM563 1423v41l131 301 q29 66 68 95.5t84 29.5q59 0 102 -49t43 -90q0 -66 -164 -180l-206 -148h-58z" />
<glyph unicode="&#xfe;" horiz-adv-x="2400" d="M0 1618q0 41 30.5 73.5t59.5 32.5q18 -6 34.5 -14t41.5 -27v-135q25 -10 55 -32q8 -6 58 -7q84 0 307 140l76 47l-3 370q0 156 -127 172q-59 10 -59 54q0 33 27 47q61 20 133 49t155 70q31 16 80.5 45.5t116.5 74.5q100 68 133 68q37 0 37 -41l-92 -145q-45 -70 -45 -109 l2 -442q274 139 477 139h129q317 0 551 -270q213 -248 213 -514v-107q0 -217 -164 -502q-78 -135 -170 -248.5t-203 -207.5q-225 -199 -401 -199q-53 0 -106.5 10t-104.5 41l-225 135v-403q0 -117 31 -178l71 -94q0 -16 -16.5 -32t-42.5 -16q-33 14 -86 25.5t-131 11.5 q-51 0 -86 -14q-80 -33 -88 -33q-27 0 -43.5 22.5t-16.5 53.5q0 8 39 84q20 39 21 76v694h-111q-76 -61 -106 -174q-8 -33 -48 -33q-23 0 -42 21.5t-19 40.5q0 137 150 231l176 88l-6 969l-68 -31q-193 -84 -299 -84q-119 0 -201 49q-94 57 -94 158zM1020 1692l6 -1135 l401 -188q59 -29 94 -44.5t48 -19.5q25 -6 78 -6q131 0 251 154q139 176 140 428v168q0 276 -242 505q-211 199 -377 199h-215q-47 0 -184 -61z" />
<glyph unicode="&#xff;" horiz-adv-x="1394" d="M0 1159q0 10 139 107l140 96q49 0 139 -121q92 -121 92 -168v-534q0 -106 61 -189q61 -84 131 -84q23 0 69 62.5t116 191.5l139 258v189q0 94 -115 123q-113 27 -112 53q0 27 151 117l152 92q53 0 112 -78q51 -70 52 -125v-96q0 -57 -40 -157.5t-128 -242.5l-314 -501 q-86 -137 -128 -226.5t-42 -130.5q0 -84 86 -98q88 -14 88 -45q0 -27 -129 -98l-131 -74q-10 0 -53 65q-43 63 -43 99v77q0 47 55 140q72 121 80 139q-184 106 -202 123q-143 106 -144 223v621q0 80 -48 116.5t-134 36.5q-12 0 -25.5 11.5t-13.5 27.5zM348 1458v41l131 301 q29 66 68 95.5t84 29.5q59 0 102 -49t43 -90q0 -63 -164 -180l-206 -148h-58zM739 1442v41l131 301q29 66 68 95.5t84 29.5q59 0 102 -49q43 -50 43 -91q0 -66 -163 -180l-207 -147h-58z" />
<glyph unicode="&#x152;" horiz-adv-x="3252" d="M0 958q0 96 66 322q55 193 75 223q51 88 118 171t149 161q225 213 411 213h158q94 0 246 -86q127 -70 225 -186q45 -45 82 -89.5t65 -84.5q49 -72 80 -142q78 156 162 252q80 86 254 195q225 137 371 137h123q27 0 202 -68q178 -66 205 -65q72 0 131 71q27 33 49 33 q29 0 39.5 -19.5t10.5 -56.5q0 -106 -140 -233q-137 -127 -270 -127q-49 0 -240 61q-190 61 -215 62h-188q-109 0 -260 -146q-168 -164 -168 -346v-172q0 -31 17.5 -69.5t49.5 -53.5q0 135 101 248q96 102 184 103h141q59 -14 119 -25.5t90 -11.5q53 0 99.5 34.5t70.5 98.5 h58q2 -6 2 -19v-14q-2 -14 -2 -22.5v-12.5q0 -117 -88 -247q-96 -141 -187 -142h-96q-27 0 -96 25q-72 25 -121 24q-68 0 -139 -47q-70 -45 -70 -114q0 -27 84 -123q104 -117 223 -189q164 -96 320 -96h284q53 0 103.5 19.5t91.5 66.5l174 188q35 0 41 -23.5t6 -62.5 q0 -160 -233 -368q-231 -209 -420 -209h-191q-88 0 -203 51q-197 90 -374 309q-98 123 -160 271q-59 -125 -132 -227.5t-159 -188.5q-213 -211 -436 -211q-313 0 -592 279q-301 297 -301 679zM264 1108q0 -117 121 -311q16 -27 49 -74t84 -113q121 -160 275 -245 q125 -74 213 -74h104q158 0 303 207q45 66 111 207v243q-57 143 -125 275q-74 139 -158 215q-47 51 -87 88t-69 61q-186 152 -323 152h-160q-104 0 -221 -140q-117 -139 -117 -245v-246z" />
<glyph unicode="&#x153;" horiz-adv-x="2185" d="M0 553v131q0 190 184 428q195 250 379 250h113q168 0 348 -186q61 -66 100 -127q37 55 88 112q178 201 355 201h98q68 0 283 -129q217 -129 217 -156q0 -25 -156 -129q-61 -41 -136 -88t-165 -98l-201 -115q-92 -53 -139 -80.5t-47 -38.5q29 -35 52.5 -62.5t45.5 -43.5 q133 -109 293 -109q129 0 225 74l158 162q27 0 34 -17.5t7 -50.5q0 -156 -170 -319q-168 -162 -311 -162h-137q-135 0 -304 190q-33 35 -57 70t-45 70q-49 -70 -125 -140q-209 -190 -377 -190q-266 0 -456 231q-154 186 -154 322zM190 848q0 -180 222 -385 q219 -205 397 -205q74 0 131 53l98 138v133l-82 143q-47 80 -99 143.5t-105 110.5q-154 135 -324 135q-92 0 -166 -80q-72 -78 -72 -186zM1223 774q16 -8 20 -47q2 -35 49 -80q14 18 168 109q84 47 166 96t166 98q-94 45 -225 211q-43 53 -109 53q-78 0 -139 -73 q-25 -43 -49.5 -86t-46.5 -86v-187v-8zM1223 774v8v-8z" />
<glyph unicode="&#x178;" horiz-adv-x="1986" d="M0 1739q0 18 178 164q182 145 209 145q143 0 244 -242q51 -121 162 -555q53 -209 103 -360.5t91 -253.5q23 -53 38 -95t30 -69q90 -164 198 -164q8 0 125 195q119 193 160 276l92 185q47 92 71.5 172t24.5 147q0 88 -86 178q-193 199 -192 248v135q0 55 80 129t141 74h80 q39 0 109 -41q84 -53 84 -113q0 -49 -9 -57q-10 -10 -49 -18q-4 37 -12 57q-16 47 -43 47q-31 0 -55.5 -24.5t-24.5 -53.5q0 -27 115 -119t114 -178v-80q0 -92 -51 -208q-25 -59 -66.5 -143.5t-103.5 -192.5l-291 -510q-117 -207 -187.5 -335t-98.5 -175q-23 -35 -43.5 -67 t-42.5 -58q-43 -47 -78 -84t-62 -60q-164 -145 -262 -145h-174q-39 0 -133 31q-117 37 -117 73l107 168q109 170 112 170l50 -96q49 -96 225 -96q137 0 242 129q37 47 77 131q-90 35 -198 115q-123 90 -207 254l-150 475q-2 14 -22.5 91t-59.5 218q-43 156 -70.5 248 t-43.5 125q-33 66 -54.5 104.5t-31.5 48.5q-37 39 -88 39q-55 0 -70 -18q-16 -18 -37 -19q-4 0 -11 6.5t-16.5 15.5t-15.5 19.5t-6 16.5zM772 1927v41l131 301q29 63 68 94t84 31q59 0 102 -49t43 -90q0 -63 -164 -180l-207 -148h-57zM1149 1915v41l131 301q29 66 67.5 95.5 t84.5 29.5q59 0 102 -49t43 -90q0 -66 -164 -181l-207 -147h-57z" />
<glyph unicode="&#x2c6;" horiz-adv-x="1021" d="M82 1401l12 35q27 27 64 78t77.5 109t85 116.5t85.5 99.5q16 27 39.5 46.5t54.5 19.5q16 0 32 -9q27 -8 50 -34q43 -37 89 -96.5t90 -122t84 -119t68 -84.5l13 -35l-49 -16q-25 12 -69 38.5t-96.5 62.5t-107.5 74t-100 72q-47 -35 -101.5 -73.5t-106.5 -74.5t-96 -64 t-69 -40z" />
<glyph unicode="&#x2000;" horiz-adv-x="1323" />
<glyph unicode="&#x2001;" horiz-adv-x="2646" />
<glyph unicode="&#x2002;" horiz-adv-x="1323" />
<glyph unicode="&#x2003;" horiz-adv-x="2646" />
<glyph unicode="&#x2004;" horiz-adv-x="882" />
<glyph unicode="&#x2005;" horiz-adv-x="661" />
<glyph unicode="&#x2006;" horiz-adv-x="441" />
<glyph unicode="&#x2007;" horiz-adv-x="441" />
<glyph unicode="&#x2008;" horiz-adv-x="330" />
<glyph unicode="&#x2009;" horiz-adv-x="529" />
<glyph unicode="&#x200a;" horiz-adv-x="147" />
<glyph unicode="&#x2010;" horiz-adv-x="1167" d="M113 842q27 121 129 211q104 88 190 88q16 0 23 -2l139 -25q55 -25 109.5 -46t89.5 -28q8 -2 24 -2q53 0 95 29t71 76l57 -10q0 -27 -2 -33q-8 -18 -10 -33q-18 -111 -123 -223q-102 -115 -194 -115q-16 0 -21 2l-94 17q-18 0 -117 53q-27 12 -46 20t-34 10 q-12 2 -38.5 8.5t-67.5 20.5q-41 10 -69.5 17.5t-47.5 7.5q-27 0 -43 -9t-20 -34z" />
<glyph unicode="&#x2011;" horiz-adv-x="1167" d="M113 842q27 121 129 211q104 88 190 88q16 0 23 -2l139 -25q55 -25 109.5 -46t89.5 -28q8 -2 24 -2q53 0 95 29t71 76l57 -10q0 -27 -2 -33q-8 -18 -10 -33q-18 -111 -123 -223q-102 -115 -194 -115q-16 0 -21 2l-94 17q-18 0 -117 53q-27 12 -46 20t-34 10 q-12 2 -38.5 8.5t-67.5 20.5q-41 10 -69.5 17.5t-47.5 7.5q-27 0 -43 -9t-20 -34z" />
<glyph unicode="&#x2012;" horiz-adv-x="1167" d="M113 842q27 121 129 211q104 88 190 88q16 0 23 -2l139 -25q55 -25 109.5 -46t89.5 -28q8 -2 24 -2q53 0 95 29t71 76l57 -10q0 -27 -2 -33q-8 -18 -10 -33q-18 -111 -123 -223q-102 -115 -194 -115q-16 0 -21 2l-94 17q-18 0 -117 53q-27 12 -46 20t-34 10 q-12 2 -38.5 8.5t-67.5 20.5q-41 10 -69.5 17.5t-47.5 7.5q-27 0 -43 -9t-20 -34z" />
<glyph unicode="&#x2013;" horiz-adv-x="1372" d="M74 674l12 39l203 180l123 -6q20 0 76.5 1t130 3t157.5 5t160 7l133 7t80 5q53 6 121 19l39 -2l16 -21l-248 -217z" />
<glyph unicode="&#x2014;" horiz-adv-x="1810" d="M68 713l12 39l205 180l123 -4q20 -2 106 1t207 6t258 9t259 11.5t211 9.5t112 8q49 4 118 18l41 -2l15 -22l-248 -215z" />
<glyph unicode="&#x2018;" horiz-adv-x="466" d="M176 1497q0 63 154 260q59 76 106 131.5t86 93.5h51v-36q-14 -29 -42.5 -123t-75.5 -256q-55 -201 -140 -201q-57 0 -102 49q-37 39 -37 82z" />
<glyph unicode="&#x2019;" horiz-adv-x="466" d="M49 1417v37q14 31 44 124t75 253q57 203 139 203q59 0 99 -45q40 -47 40 -86q0 -63 -151 -258q-59 -76 -107.5 -132.5t-87.5 -95.5h-51z" />
<glyph unicode="&#x201a;" horiz-adv-x="466" d="M-90 -324q14 31 44 124.5t75 252.5q57 203 139 203q59 0 98 -45q41 -47 41 -86q0 -63 -151 -258q-59 -76 -107.5 -132.5t-87.5 -94.5h-51v36z" />
<glyph unicode="&#x201c;" horiz-adv-x="835" d="M205 1532q0 63 153 260q59 76 106.5 131t86.5 94h51v-37q-14 -29 -43 -123t-76 -255q-55 -201 -139 -201q-57 0 -102 49q-37 39 -37 82zM532 1526q0 63 154 260q59 76 106.5 131t86.5 94h51v-37q-14 -29 -43 -123t-76 -256q-55 -201 -139 -200q-57 0 -103 49 q-37 39 -37 82z" />
<glyph unicode="&#x201d;" horiz-adv-x="835" d="M20 1442v37q14 31 44 124t75 252q57 203 140 203q59 0 98 -45q41 -47 41 -86q0 -63 -152 -258q-59 -76 -107 -132t-87 -95h-52zM348 1436v37q14 31 44 124t75 252q57 203 139 203q59 0 99 -45q40 -47 40 -86q0 -63 -151 -258q-59 -76 -107.5 -132t-87.5 -95h-51z" />
<glyph unicode="&#x201e;" horiz-adv-x="835" d="M-47 -227q25 57 119 377q55 203 139 202q59 0 98 -45q41 -47 41 -86q0 -63 -151 -258q-59 -76 -107.5 -132t-87.5 -95h-51v37zM281 -233q25 57 118 376q55 203 140 203q59 0 98 -45q41 -47 41 -86q0 -63 -152 -258q-59 -76 -107 -132t-87 -95h-51v37z" />
<glyph unicode="&#x2022;" horiz-adv-x="440" d="M33 733q12 43 71 96l97 86q66 -8 123 -56t82 -118l-189 -176q-23 29 -43 51.5t-37 38.5q-20 20 -45.5 39t-58.5 39z" />
<glyph unicode="&#x2026;" horiz-adv-x="1677" d="M106 211q0 43 15.5 74.5t39 54t50.5 35t49 12.5q33 2 64.5 -11.5t54 -35t37 -50t14.5 -59.5q0 -25 -11 -65.5t-54 -87.5q-41 -45 -88.5 -61.5t-79.5 -16.5q-31 0 -62 63q-29 68 -29 148zM659 246q0 84 49.5 114.5t114.5 30.5q33 0 65 -13t54.5 -34.5t36.5 -49t14 -58.5 v-32t-3 -43.5t-14 -49t-32 -48.5q-20 -23 -46 -35t-51.5 -17t-48 -6t-38.5 -1q-35 0 -62 64q-16 33 -27.5 85t-11.5 93zM1257 266q0 43 12.5 67.5t33 39t49 18.5t61.5 4t64.5 -13t54 -34.5t37 -49t14.5 -58.5q0 -12 -4 -34t-14.5 -47.5t-25.5 -53t-36 -50.5 q-20 -23 -40.5 -33t-40 -13t-38 -2t-34.5 1q-31 0 -62 64q-6 16 -12 40.5t-10 52.5t-6.5 54.5t-2.5 46.5z" />
<glyph unicode="&#x202f;" horiz-adv-x="529" />
<glyph unicode="&#x2039;" horiz-adv-x="673" d="M45 737q47 31 92 69t90 83q102 102 150 192h291q-25 -41 -65 -85t-93 -91q-49 -41 -98.5 -81t-96.5 -81l273 -483l-287 -170q0 20 -1 43t-11 47z" />
<glyph unicode="&#x203a;" horiz-adv-x="673" d="M53 96q51 70 148 172q37 39 82 83t98 95l-272 488l286 166q2 -23 4 -45.5t11 -42.5l235 -549q-80 -61 -168 -168q-88 -106 -137 -199h-287z" />
<glyph unicode="&#x205f;" horiz-adv-x="661" />
<glyph unicode="&#x20ac;" horiz-adv-x="1566" d="M23 561l10 33l160 141h98q16 0 72.5 1t133 3t162.5 5.5t163 5.5t134.5 4t75.5 4t40 4t44 6l33 -2l12 -14l-196 -166zM23 821l10 29l160 139l98 -4q14 0 69.5 1t131 3t160.5 4t162 5t133.5 6.5t74.5 5.5q20 4 42.5 7t51.5 9l33 -2l12 -16l-196 -168zM219 739.5v81.5 q0 66 21.5 133.5t48.5 126.5q33 76 65.5 133.5t72.5 103.5t92 86t124 83q61 37 140 71.5t153 34.5h96q8 0 51 -13t95.5 -31.5t101.5 -36t74 -23.5q14 -4 29.5 -5t25.5 -11q14 -12 23.5 -48t9.5 -55q0 -23 -28 -47.5t-65.5 -45t-76.5 -32.5t-60 -12q-35 0 -85 14.5t-102 32.5 t-98 32.5t-73 14.5h-149q-57 0 -111.5 -37t-93.5 -76q-57 -53 -95 -120.5t-38 -145.5v-135q0 -31 14 -63.5t35 -57.5l55 -67q0 -10 9 -23.5t19.5 -28t21.5 -26.5t18 -19q39 -45 88 -85t103 -70.5t113.5 -48t123.5 -17.5h223q92 0 153 68l138 145q31 2 34 -21.5t3 -43.5 q0 -47 -26 -97.5t-68 -100.5t-95 -95t-110.5 -80t-113.5 -55.5t-101 -20.5h-150q-96 0 -189.5 51.5t-174 128t-141 168.5t-91.5 172q-16 43 -24.5 77t-11.5 68t-3 68.5z" />
<glyph unicode="&#x2122;" horiz-adv-x="1208" d="M63 455l13 41l203 182h122q23 0 67 1t99.5 3t115.5 5t116.5 5t100.5 5t67 5q25 4 51 6.5t57 8.5l39 -4l16 -19l-249 -215zM63 788l13 37l203 181l122 -5q31 -2 108 1.5l165 7.5t167 9t113 9q25 4 54.5 8t66.5 13l39 -2l16 -23l-249 -215z" />
<glyph unicode="&#x25fc;" horiz-adv-x="1361" d="M0 0v1362h1362v-1362h-1362z" />
<glyph unicode="&#xfb01;" horiz-adv-x="2048" />
</font>
</defs>
</svg>
